<svg width="333" height="265" viewBox="0 0 333 265" fill="none" xmlns="http://www.w3.org/2000/svg">
<circle cx="181" cy="132" r="95.5" stroke="#B0BAC4" stroke-opacity="0.5" stroke-dasharray="2 2"/>
<path d="M177.929 132.17L162.189 123.7L164.519 115.2L145.199 123.2L176.419 140L181.249 138.01L183.479 129.88L177.929 132.17Z" fill="#004F9F"/>
<path d="M185.878 106.35L180.738 108.47L178.488 116.69L184.458 114.23L199.918 122.55L197.508 131.3L217.198 123.2L185.878 106.35Z" fill="#004F9F"/>
<path d="M164.969 134.55L163.469 140L166.339 140.02L167.479 135.9L164.969 134.55Z" fill="#004F9F"/>
<path d="M160.58 132.19L158.43 140.02H161.3L163.09 133.51L160.58 132.19Z" fill="#004F9F"/>
<path d="M162.988 123.41L165.488 124.76L170.708 105.69H172.878L167.378 125.77L169.888 127.12L175.758 105.69L177.918 105.68L171.738 128.14L174.248 129.49L180.818 105.68H190.818L190.198 107.96L192.748 109.32L193.748 105.68H195.908L194.628 110.34L197.138 111.69L198.788 105.68H200.948L199.018 112.7L201.538 114.06L207.618 92.01L171.618 92L162.988 123.41Z" fill="#004F9F"/>
<path d="M196.609 121.479L191.52 139.999H194.409L199.12 122.839L196.609 121.479Z" fill="#004F9F"/>
<path d="M192.217 119.12L186.477 140H189.357L194.727 120.47L192.217 119.12Z" fill="#004F9F"/>
<path d="M187.781 116.74L181.391 140H184.321L190.341 118.11L187.781 116.74Z" fill="#004F9F"/>
<path d="M169.36 136.92L168.5 140.02H171.38L171.86 138.26L169.36 136.92Z" fill="#004F9F"/>
<path d="M150.71 157.87H155.37C159.45 157.87 160.48 155.95 160.48 154.19C160.48 151.87 159.09 151.14 156.8 151.14H152.15L150.71 157.87ZM158.97 146.29C161.84 146.29 166.73 147 166.73 153.11C166.73 155.68 165.66 162.73 155.33 162.73H149.71L147.9 171.31H142L147.29 146.29H158.97Z" fill="#004F9F"/>
<path d="M173.871 163.41C173.801 163.67 173.761 163.87 173.761 164.12C173.761 167.45 176.731 167.88 179.001 167.88C183.091 167.88 184.661 165.98 184.661 164.06C184.661 161.7 182.371 161.55 180.951 161.55H177.411L178.371 156.94H181.301C185.051 156.94 185.801 155.12 185.801 153.73C185.801 151.62 183.471 151.16 181.591 151.16C177.541 151.16 176.441 153.59 176.121 155.12H170.151C171.171 150.37 174.471 146.29 182.901 146.29C189.941 146.29 192.161 149.33 192.161 152.58C192.161 156.01 189.871 158.41 186.621 159.08V159.15C188.221 159.48 191.021 160.59 191.021 164.19C191.021 166.58 189.651 172.75 178.551 172.75C173.261 172.75 168.571 171.6 167.961 166.81C167.861 166.09 167.921 165.34 167.961 164.63C168.001 164.23 168.031 163.8 168.111 163.41H173.861H173.871Z" fill="#004F9F"/>
<path d="M199.898 171.31H193.988L199.278 146.29H220.518L215.228 171.31H209.318L213.568 151.15H204.138L199.898 171.31Z" fill="#004F9F"/>
<path d="M281 132C281 187.228 236.228 232 181 232C125.772 232 81 187.228 81 132C81 76.7715 125.772 32 181 32C236.228 32 281 76.7715 281 132ZM122.588 132C122.588 164.26 148.74 190.411 181 190.411C213.26 190.411 239.411 164.26 239.411 132C239.411 99.7402 213.26 73.5885 181 73.5885C148.74 73.5885 122.588 99.7402 122.588 132Z" fill="#004B98"/>
<circle cx="127" cy="214" r="30" fill="#B0BAC4"/>
<circle cx="127" cy="50" r="30" fill="#B0BAC4"/>
<circle cx="86" cy="133" r="30" fill="#B0BAC4"/>
<circle cx="235" cy="214" r="30" fill="#B0BAC4"/>
<circle cx="235" cy="50" r="30" fill="#B0BAC4"/>
<circle cx="276" cy="133" r="30" fill="#B0BAC4"/>
<path d="M114.971 213.5C114.971 212.963 114.536 212.529 114 212.529C113.463 212.529 113.029 212.963 113.029 213.5C113.029 214.036 113.463 214.471 114 214.471V215.5C112.895 215.5 112 214.604 112 213.5C112 212.395 112.895 211.5 114 211.5C115.104 211.5 116 212.395 116 213.5C116 214.604 115.104 215.5 114 215.5V214.471C114.536 214.471 114.971 214.036 114.971 213.5Z" fill="white"/>
<path d="M140.971 213.5C140.971 212.963 140.536 212.529 140 212.529C139.463 212.529 139.029 212.963 139.029 213.5C139.029 214.036 139.463 214.471 140 214.471V215.5C138.895 215.5 138 214.604 138 213.5C138 212.395 138.895 211.5 140 211.5C141.104 211.5 142 212.395 142 213.5C142 214.604 141.104 215.5 140 215.5V214.471C140.536 214.471 140.971 214.036 140.971 213.5Z" fill="white"/>
<path d="M120 214C120 214.276 119.552 214.5 119 214.5C118.448 214.5 118 214.276 118 214C118 213.724 118.448 213.5 119 213.5C119.552 213.5 120 213.724 120 214Z" fill="white"/>
<path d="M124 214C124 214.276 123.552 214.5 123 214.5C122.448 214.5 122 214.276 122 214C122 213.724 122.448 213.5 123 213.5C123.552 213.5 124 213.724 124 214Z" fill="white"/>
<path d="M128 214C128 214.276 127.552 214.5 127 214.5C126.448 214.5 126 214.276 126 214C126 213.724 126.448 213.5 127 213.5C127.552 213.5 128 213.724 128 214Z" fill="white"/>
<path d="M132 214C132 214.276 131.552 214.5 131 214.5C130.448 214.5 130 214.276 130 214C130 213.724 130.448 213.5 131 213.5C131.552 213.5 132 213.724 132 214Z" fill="white"/>
<path d="M136 214C136 214.276 135.552 214.5 135 214.5C134.448 214.5 134 214.276 134 214C134 213.724 134.448 213.5 135 213.5C135.552 213.5 136 213.724 136 214Z" fill="white"/>
<path d="M115 206C115 207.381 114.552 208.5 114 208.5C113.448 208.5 113 207.381 113 206C113 204.619 113.448 203.5 114 203.5C114.552 203.5 115 204.619 115 206Z" fill="white"/>
<path d="M115 222C115 220.619 114.552 219.5 114 219.5C113.448 219.5 113 220.619 113 222C113 223.381 113.448 224.5 114 224.5C114.552 224.5 115 223.381 115 222Z" fill="white"/>
<path d="M120 205C120 205.828 119.552 206.5 119 206.5C118.448 206.5 118 205.828 118 205C118 204.172 118.448 203.5 119 203.5C119.552 203.5 120 204.172 120 205Z" fill="white"/>
<path d="M119 223C119 222.172 118.552 221.5 118 221.5C117.448 221.5 117 222.172 117 223C117 223.828 117.448 224.5 118 224.5C118.552 224.5 119 223.828 119 223Z" fill="white"/>
<path d="M128 205C128 205.828 127.552 206.5 127 206.5C126.448 206.5 126 205.828 126 205C126 204.172 126.448 203.5 127 203.5C127.552 203.5 128 204.172 128 205Z" fill="white"/>
<path d="M125 223C125 222.172 124.552 221.5 124 221.5C123.448 221.5 123 222.172 123 223C123 223.828 123.448 224.5 124 224.5C124.552 224.5 125 223.828 125 223Z" fill="white"/>
<path d="M136 205C136 205.828 135.552 206.5 135 206.5C134.448 206.5 134 205.828 134 205C134 204.172 134.448 203.5 135 203.5C135.552 203.5 136 204.172 136 205Z" fill="white"/>
<path d="M131 223C131 222.172 130.552 221.5 130 221.5C129.448 221.5 129 222.172 129 223C129 223.828 129.448 224.5 130 224.5C130.552 224.5 131 223.828 131 223Z" fill="white"/>
<path d="M137 223C137 222.172 136.552 221.5 136 221.5C135.448 221.5 135 222.172 135 223C135 223.828 135.448 224.5 136 224.5C136.552 224.5 137 223.828 137 223Z" fill="white"/>
<path d="M124 206C124 207.381 123.552 208.5 123 208.5C122.448 208.5 122 207.381 122 206C122 204.619 122.448 203.5 123 203.5C123.552 203.5 124 204.619 124 206Z" fill="white"/>
<path d="M122 222C122 220.619 121.552 219.5 121 219.5C120.448 219.5 120 220.619 120 222C120 223.381 120.448 224.5 121 224.5C121.552 224.5 122 223.381 122 222Z" fill="white"/>
<path d="M132 206C132 207.381 131.552 208.5 131 208.5C130.448 208.5 130 207.381 130 206C130 204.619 130.448 203.5 131 203.5C131.552 203.5 132 204.619 132 206Z" fill="white"/>
<path d="M128 222C128 220.619 127.552 219.5 127 219.5C126.448 219.5 126 220.619 126 222C126 223.381 126.448 224.5 127 224.5C127.552 224.5 128 223.381 128 222Z" fill="white"/>
<path d="M134 222C134 220.619 133.552 219.5 133 219.5C132.448 219.5 132 220.619 132 222C132 223.381 132.448 224.5 133 224.5C133.552 224.5 134 223.381 134 222Z" fill="white"/>
<path d="M141 206C141 207.381 140.552 208.5 140 208.5C139.448 208.5 139 207.381 139 206C139 204.619 139.448 203.5 140 203.5C140.552 203.5 141 204.619 141 206Z" fill="white"/>
<path d="M141 222C141 220.619 140.552 219.5 140 219.5C139.448 219.5 139 220.619 139 222C139 223.381 139.448 224.5 140 224.5C140.552 224.5 141 223.381 141 222Z" fill="white"/>
<path d="M143.286 230.471V231.5H110.714V230.471H143.286ZM143.971 229.786V198.214C143.971 197.836 143.664 197.529 143.286 197.529H110.714C110.336 197.529 110.029 197.836 110.029 198.214V229.786C110.029 230.164 110.336 230.471 110.714 230.471V231.5L110.626 231.497C109.75 231.453 109.046 230.75 109.002 229.874L109 229.786V198.214C109 197.267 109.767 196.5 110.714 196.5H143.286L143.374 196.502C144.28 196.548 145 197.297 145 198.214V229.786L144.998 229.874C144.954 230.75 144.25 231.453 143.374 231.497L143.286 231.5V230.471C143.664 230.471 143.971 230.164 143.971 229.786Z" fill="white"/>
<path d="M234.966 193.4V196.375H236.74V202.929H233.784V204.964C237.246 207.025 238.888 208.147 240.151 209.683L239.224 210.445C238.08 209.054 236.567 208.009 232.878 205.821L232.584 205.646V202.929H227.281V205.678L226.946 205.843C223.168 207.695 218.399 211.301 216.247 216.067C215.178 218.434 214.755 221.086 215.411 223.973C216.058 226.817 217.764 229.935 221.022 233.262H238.505V234.462H220.52L220.344 234.285C216.857 230.776 214.961 227.405 214.241 224.239C213.52 221.067 213.991 218.149 215.154 215.573C217.4 210.598 222.225 206.897 226.081 204.933V202.929H222.534V196.375H224.308V193.4H234.966ZM223.734 201.729H235.54V197.575H223.734V201.729ZM225.508 196.375H233.766V194.6H225.508V196.375Z" fill="white"/>
<path d="M242.713 210.971C242.944 210.569 243.523 210.569 243.754 210.971L245.996 214.884C246.115 215.091 246.343 215.205 246.575 215.183L246.674 215.164L251.008 213.994C251.454 213.873 251.863 214.281 251.744 214.728L250.578 219.102C250.508 219.363 250.622 219.639 250.856 219.775L254.754 222.038C255.153 222.269 255.153 222.845 254.754 223.076L250.856 225.339C250.622 225.475 250.508 225.751 250.578 226.012L251.744 230.387C251.863 230.833 251.454 231.241 251.008 231.12L246.674 229.95C246.41 229.879 246.132 229.994 245.996 230.231L243.754 234.143L243.707 234.213C243.469 234.521 242.998 234.521 242.76 234.213L242.713 234.143L240.471 230.231C240.335 229.994 240.057 229.879 239.793 229.95L235.459 231.12L235.376 231.137C234.964 231.19 234.611 230.805 234.723 230.387L235.889 226.012C235.95 225.784 235.871 225.544 235.693 225.396L235.611 225.339L231.713 223.076C231.314 222.845 231.314 222.269 231.713 222.038L235.611 219.775C235.816 219.656 235.929 219.43 235.907 219.2L235.889 219.102L234.723 214.728C234.604 214.281 235.013 213.873 235.459 213.994L239.793 215.164C240.024 215.227 240.266 215.146 240.413 214.966L240.471 214.884L242.713 210.971ZM241.511 215.48C241.105 216.19 240.27 216.536 239.481 216.323L236.15 215.423L237.049 218.793C237.258 219.577 236.916 220.405 236.213 220.813L233.209 222.557L236.213 224.301C236.916 224.709 237.258 225.537 237.049 226.322L236.15 229.69L239.481 228.791C240.221 228.591 241.001 228.883 241.431 229.505L241.511 229.634L243.234 232.638L244.956 229.634L245.036 229.505C245.438 228.925 246.143 228.632 246.838 228.758L246.986 228.791L250.316 229.69L249.418 226.322C249.209 225.537 249.551 224.709 250.254 224.301L253.258 222.557L250.254 220.813C249.551 220.405 249.209 219.577 249.418 218.793L250.316 215.423L246.986 216.323C246.197 216.536 245.362 216.19 244.956 215.48L243.234 212.476L241.511 215.48Z" fill="white"/>
<path d="M239.713 217.952C241.357 216.881 243.122 216.684 243.654 217.511C244.186 218.339 243.284 219.878 241.639 220.949L240.99 219.94C241.69 219.484 242.181 218.959 242.433 218.53C242.516 218.388 242.559 218.282 242.582 218.209C242.506 218.201 242.393 218.197 242.23 218.215C241.738 218.27 241.061 218.506 240.361 218.961C239.662 219.417 239.171 219.942 238.919 220.371C238.836 220.513 238.792 220.618 238.769 220.691C238.845 220.7 238.958 220.704 239.122 220.686C239.614 220.631 240.291 220.395 240.99 219.94L241.639 220.949L241.485 221.047C239.885 222.031 238.213 222.191 237.698 221.389C237.166 220.561 238.068 219.022 239.713 217.952Z" fill="white"/>
<path d="M146.399 50.0002C146.399 39.2857 137.713 30.6004 126.998 30.6004C116.284 30.6005 107.599 39.2857 107.598 50.0002V60.8002H106.398V50.0002C106.399 38.623 115.621 29.4005 126.998 29.4004C138.376 29.4004 147.599 38.6229 147.599 50.0002V60.0004H146.399V50.0002Z" fill="white"/>
<path d="M118.398 56.374C118.398 55.1737 118.392 54.7066 118.286 54.3525L118.284 54.3467C118.165 53.9338 117.94 53.5591 117.631 53.2603C117.323 52.9626 116.943 52.7508 116.528 52.6451C116.195 52.5662 115.767 52.5957 114.615 52.6896L114.616 52.6902C112.662 52.8517 111.813 52.9269 111.135 53.1912L111.132 53.1918C109.52 53.814 108.278 55.2111 107.804 56.9646C107.603 57.7067 107.598 58.6105 107.598 60.656V61.0281C107.598 62.0761 107.599 62.5095 107.627 62.7965C107.651 63.0517 107.691 63.1612 107.822 63.6226L107.823 63.6273C108.03 64.3802 108.392 65.0816 108.886 65.6863C109.38 66.2911 109.995 66.7859 110.692 67.1388H110.691C111.374 67.4777 112.236 67.6256 114.218 67.9539H114.218C114.871 68.0612 115.333 68.1377 115.699 68.1754C116.06 68.2126 116.282 68.2062 116.455 68.1707C116.866 68.0811 117.248 67.8865 117.562 67.6058C117.876 67.3245 118.113 66.9664 118.248 66.5664L118.25 66.5605C118.314 66.3763 118.355 66.1386 118.377 65.7549C118.398 65.3685 118.398 64.8754 118.398 64.1857V56.374ZM134.399 56.374C134.399 55.2625 134.392 54.5733 134.562 54.0074C134.739 53.3956 135.074 52.8408 135.532 52.3978C135.991 51.9534 136.56 51.6369 137.18 51.4803L137.187 51.4785C137.612 51.3764 138.097 51.388 138.756 51.4363L139.478 51.4937V51.4943C141.348 51.6487 142.415 51.7291 143.296 52.0721C145.28 52.8379 146.782 54.5449 147.351 56.6512L147.352 56.6517C147.604 57.5856 147.599 58.686 147.599 60.656V61.0281C147.599 62.04 147.599 62.5506 147.565 62.9101C147.528 63.2999 147.445 63.5387 147.33 63.9443L147.331 63.9449C147.08 64.8593 146.64 65.7113 146.04 66.4457C145.44 67.1799 144.693 67.7808 143.847 68.2094L143.844 68.2111C142.96 68.6511 141.877 68.8229 139.974 69.1381H139.974C139.337 69.2428 138.831 69.3266 138.421 69.3689C138.008 69.4116 137.645 69.4176 137.297 69.3455L137.291 69.3443C136.676 69.2111 136.105 68.9203 135.636 68.5006C135.167 68.082 134.815 67.5496 134.614 66.9549V66.9555C134.496 66.6178 134.446 66.2523 134.422 65.8222C134.398 65.3946 134.399 64.8619 134.399 64.1857V56.374ZM119.598 64.1857C119.598 64.8619 119.599 65.3946 119.575 65.8222C119.551 66.2497 119.501 66.613 119.385 66.949L119.385 66.9496C119.184 67.5464 118.831 68.0809 118.362 68.5006C117.892 68.9203 117.321 69.2111 116.705 69.3443L116.7 69.3455C116.352 69.4175 115.989 69.4115 115.576 69.3689C115.166 69.3266 114.66 69.2428 114.023 69.1381H114.023C112.12 68.8229 111.038 68.6511 110.153 68.2111L110.149 68.2094C109.303 67.7808 108.556 67.18 107.956 66.4457C107.357 65.7113 106.917 64.8593 106.666 63.9449L106.666 63.9443C106.551 63.5388 106.469 63.2998 106.432 62.9101C106.398 62.5506 106.398 62.04 106.398 61.0281V60.656C106.398 58.686 106.393 57.5856 106.645 56.6517V56.6512C107.197 54.6107 108.623 52.9454 110.516 52.1471L110.7 52.0721C111.582 51.729 112.648 51.6487 114.517 51.4943L114.518 51.4937C115.505 51.4133 116.157 51.3509 116.703 51.4556L116.811 51.4785L116.818 51.4803C117.437 51.6369 118.005 51.9534 118.465 52.3978C118.923 52.8408 119.257 53.3957 119.434 54.0074H119.435C119.605 54.5733 119.598 55.2625 119.598 56.374V64.1857ZM135.599 64.1857C135.599 64.8754 135.599 65.3685 135.62 65.7549C135.636 66.0428 135.663 66.2486 135.703 66.4111L135.747 66.5605L135.749 66.5664C135.884 66.9664 136.121 67.3245 136.435 67.6058C136.749 67.8862 137.13 68.081 137.541 68.1707C137.714 68.2064 137.936 68.2127 138.298 68.1754C138.664 68.1377 139.126 68.0611 139.778 67.9539C141.763 67.6251 142.625 67.477 143.309 67.1371C144.004 66.7843 144.618 66.29 145.111 65.6863C145.605 65.0816 145.967 64.3802 146.174 63.6273L146.175 63.6226C146.305 63.1611 146.346 63.0517 146.371 62.7965C146.398 62.5095 146.399 62.0761 146.399 61.0281V60.656C146.399 58.6104 146.393 57.7067 146.193 56.9646C145.719 55.2111 144.476 53.8139 142.864 53.1918L142.863 53.1912C142.184 52.9269 141.335 52.8517 139.379 52.6902V52.6896C138.229 52.5957 137.801 52.5661 137.469 52.6451C137.054 52.7508 136.674 52.9627 136.366 53.2603C136.057 53.5591 135.832 53.9338 135.713 54.3467L135.711 54.3525C135.605 54.7066 135.599 55.1737 135.599 56.374V64.1857Z" fill="white"/>
<path d="M133 51.7998V52.9998H121V51.7998H133Z" fill="white"/>
<path d="M242.591 31.6762L244.319 32.6682L246.985 31.8613L249.769 36.6127L247.683 38.5375L247.428 40.2332L249.899 42.3203L247.021 47.2299L246.564 47.0863L243.94 46.2578L242.734 46.9516L242.051 50.0705L236.332 50.077L235.64 46.9668L234.432 46.2713L231.355 47.2439L231.113 46.8314L228.484 42.349L230.884 40.184L230.881 38.7994L228.613 36.6162L231.394 31.8754L234.06 32.6828L235.785 31.6938L236.412 29.0072L241.965 28.999L242.591 31.6762ZM237.364 30.2055L236.836 32.4748L234.432 33.8523L234.207 33.9813L231.95 33.2975L230.126 36.407L232.081 38.2885V38.5434L232.085 40.7172L230.014 42.5852L231.906 45.8107L234.574 44.9682L236.697 46.191L237.294 48.8758L241.084 48.8711L241.675 46.177L243.8 44.9553L244.051 45.0344L246.469 45.7979L248.352 42.5852L246.142 40.7172L246.528 38.1508L246.559 37.9422L248.245 36.3859L246.427 33.2834L244.171 33.9672L241.541 32.4572L241.482 32.2035L241.013 30.2002L237.364 30.2055ZM237.388 36.3408C238.044 35.974 238.798 35.8166 239.547 35.8896H239.549C240.388 35.973 241.174 36.3404 241.773 36.9314C242.334 37.4857 242.698 38.2049 242.812 38.9805L242.831 39.1363C242.906 39.881 242.745 40.6307 242.372 41.2809C241.999 41.931 241.432 42.4502 240.751 42.7686C240.07 43.0868 239.306 43.1891 238.564 43.0621C237.822 42.935 237.137 42.5846 236.603 42.0572C236.068 41.5299 235.711 40.8514 235.582 40.1143C235.452 39.3769 235.557 38.6179 235.881 37.9422C236.204 37.2665 236.731 36.7077 237.388 36.3408ZM239.43 37.0832C238.924 37.0341 238.415 37.141 237.973 37.3879C237.531 37.6349 237.179 38.0101 236.963 38.4607C236.747 38.9112 236.678 39.416 236.764 39.9062C236.85 40.3966 237.088 40.85 237.446 41.2035C237.804 41.5571 238.265 41.7938 238.766 41.8797C239.268 41.9656 239.784 41.8962 240.244 41.6816C240.703 41.4671 241.082 41.1183 241.331 40.6844C241.58 40.2507 241.686 39.7524 241.637 39.2576L241.624 39.1539C241.549 38.6378 241.306 38.157 240.93 37.7852C240.528 37.3885 239.998 37.1395 239.43 37.0832Z" fill="white"/>
<path d="M248.864 52.6L250.593 53.592L253.258 52.7852L256.042 57.5365L253.956 59.4613L253.701 61.157L256.173 63.2441L253.294 68.1537L252.838 68.0102L250.214 67.1816L249.007 67.8754L248.324 70.9943L242.605 71.0008L241.913 67.8906L240.705 67.1951L237.629 68.1678L237.386 67.7553L234.758 63.2729L237.157 61.1078L237.155 59.7232L234.886 57.54L237.667 52.7992L240.333 53.6066L242.059 52.6176L242.685 49.9311L248.238 49.9229L248.864 52.6ZM243.637 51.1293L243.109 53.3986L240.705 54.7762L240.481 54.9051L238.224 54.2213L236.399 57.3309L238.355 59.2123V59.4672L238.358 61.641L236.287 63.509L238.179 66.7346L240.847 65.892L242.97 67.1148L243.567 69.7996L247.358 69.7949L247.948 67.1008L250.073 65.8791L250.324 65.9582L252.742 66.7217L254.626 63.509L252.415 61.641L252.801 59.0746L252.833 58.866L254.519 57.3098L252.7 54.2072L250.445 54.891L247.815 53.3811L247.755 53.1273L247.287 51.124L243.637 51.1293ZM243.661 57.2646C244.317 56.8978 245.072 56.7404 245.821 56.8135H245.822C246.662 56.8968 247.448 57.2643 248.046 57.8553C248.608 58.4096 248.972 59.1288 249.085 59.9043L249.104 60.0602C249.179 60.8049 249.019 61.5545 248.646 62.2047C248.273 62.8548 247.706 63.3741 247.024 63.6924C246.343 64.0106 245.58 64.1129 244.838 63.9859C244.096 63.8589 243.41 63.5084 242.876 62.9811C242.342 62.4537 241.985 61.7752 241.855 61.0381C241.726 60.3008 241.83 59.5418 242.154 58.866C242.478 58.1904 243.005 57.6315 243.661 57.2646ZM245.703 58.007C245.197 57.9579 244.688 58.0649 244.246 58.3117C243.805 58.5587 243.452 58.934 243.236 59.3846C243.02 59.835 242.951 60.3398 243.037 60.8301C243.123 61.3204 243.361 61.7738 243.719 62.1273C244.077 62.481 244.539 62.7176 245.04 62.8035C245.541 62.8894 246.058 62.8201 246.517 62.6055C246.976 62.391 247.356 62.0421 247.604 61.6082C247.853 61.1746 247.96 60.6762 247.91 60.1814L247.897 60.0777C247.822 59.5616 247.58 59.0808 247.203 58.709C246.801 58.3123 246.271 58.0634 245.703 58.007Z" fill="white"/>
<path d="M227.942 48.4154L229.671 49.4074L232.336 48.6006L235.12 53.352L233.034 55.2768L232.779 56.9725L235.251 59.0596L232.372 63.9691L231.916 63.8256L229.292 62.9971L228.085 63.6908L227.402 66.8098L221.683 66.8162L220.991 63.7061L219.783 63.0105L216.707 63.9832L216.464 63.5707L213.836 59.0883L216.235 56.9232L216.233 55.5387L213.964 53.3555L216.745 48.6146L219.411 49.4221L221.137 48.433L221.763 45.7465L227.317 45.7383L227.942 48.4154ZM222.715 46.9447L222.187 49.2141L219.783 50.5916L219.559 50.7205L217.302 50.0367L215.477 53.1463L217.433 55.0277V55.2826L217.437 57.4564L215.365 59.3244L217.257 62.55L219.926 61.7074L222.048 62.9303L222.646 65.615L226.436 65.6104L227.027 62.9162L229.151 61.6945L229.403 61.7736L231.82 62.5371L233.704 59.3244L231.493 57.4564L231.879 54.89L231.911 54.6814L233.597 53.1252L231.779 50.0227L229.523 50.7064L226.893 49.1965L226.833 48.9428L226.365 46.9395L222.715 46.9447ZM222.739 53.0801C223.395 52.7132 224.15 52.5558 224.899 52.6289H224.9C225.74 52.7122 226.526 53.0797 227.124 53.6707C227.686 54.225 228.05 54.9442 228.163 55.7197L228.183 55.8756C228.257 56.6203 228.097 57.3699 227.724 58.0201C227.351 58.6703 226.784 59.1895 226.103 59.5078C225.421 59.826 224.658 59.9284 223.916 59.8014C223.174 59.6743 222.488 59.3238 221.954 58.7965C221.42 58.2691 221.063 57.5906 220.933 56.8535C220.804 56.1162 220.908 55.3572 221.232 54.6814C221.556 54.0058 222.083 53.447 222.739 53.0801ZM224.781 53.8225C224.275 53.7734 223.766 53.8803 223.325 54.1271C222.883 54.3742 222.53 54.7494 222.314 55.2C222.099 55.6505 222.029 56.1553 222.115 56.6455C222.201 57.1358 222.439 57.5892 222.797 57.9428C223.155 58.2964 223.617 58.5331 224.118 58.6189C224.619 58.7048 225.136 58.6355 225.595 58.4209C226.054 58.2064 226.434 57.8575 226.683 57.4236C226.931 56.99 227.038 56.4916 226.988 55.9969L226.976 55.8932C226.9 55.377 226.658 54.8962 226.281 54.5244C225.879 54.1277 225.349 53.8788 224.781 53.8225Z" fill="white"/>
<path d="M278.671 126.224L284.535 123.97C286.88 123.069 289.526 123.456 291.515 124.99L298.528 130.397L282.206 136.194L281.619 145.093L274.264 147.855L273.956 139.124L265.605 142.091L253.301 130.073L260.125 126.185L260.448 126.51L265.288 131.366L270.551 129.344L265.374 122.095L271.604 118.223L278.671 126.224ZM274.97 133.857L275.404 146.145L280.472 144.241L281.338 131.136L274.97 133.857ZM290.782 125.939C289.124 124.661 286.92 124.34 284.966 125.09L265.355 132.627L265.348 132.63L265.341 132.632L259.696 134.642L265.907 140.709L273.911 137.867L273.742 133.077L282.664 129.264L282.292 134.89L296.051 130.003L290.782 125.939ZM255.278 130.327L258.741 133.709L264.046 131.819L259.922 127.681L255.278 130.327ZM267.094 122.438L271.708 128.9L277.475 126.683L271.376 119.777L267.094 122.438Z" fill="white"/>
<path d="M86.4301 112.493C84.5594 113.68 81.6801 115.334 78.8891 116.585C77.4929 117.21 76.1345 117.728 74.9445 118.037C73.7333 118.352 72.7827 118.428 72.1566 118.26L71.4014 118.058V118.84C71.4014 122.081 72.1403 127.311 74.3486 132.548C76.5586 137.79 80.2597 143.082 86.2115 146.365L86.5016 146.525L86.7916 146.365C92.7385 143.084 96.5638 137.798 98.8994 132.56C101.233 127.326 102.102 122.092 102.102 118.84V118.058L101.346 118.26C100.72 118.428 99.7696 118.352 98.5584 118.037C97.3685 117.728 96.01 117.21 94.6139 116.585C91.8229 115.334 88.9435 113.68 87.0729 112.493L86.7518 112.289L86.4301 112.493ZM86.7518 113.706C88.6545 114.895 91.4208 116.469 94.1229 117.68C95.5511 118.32 96.9774 118.866 98.2566 119.198C99.1928 119.442 100.099 119.584 100.888 119.538C100.774 122.653 99.9064 127.355 97.8037 132.071C95.5785 137.062 91.9901 142.02 86.5016 145.15C81.0221 142.022 77.5573 137.07 75.4543 132.082C73.4668 127.368 72.7127 122.662 72.6143 119.538C73.4037 119.584 74.3103 119.442 75.2469 119.198C76.5261 118.866 77.9519 118.32 79.3801 117.68C82.0824 116.469 84.849 114.895 86.7518 113.706Z" fill="white"/>
<path d="M87.1426 127.696C87.6494 127.455 88 126.938 88 126.34C88 125.511 87.3286 124.84 86.5 124.84C85.6714 124.84 85 125.511 85 126.34C85 126.938 85.3506 127.455 85.8574 127.696L85 132.84H88L87.1426 127.696Z" fill="white"/>
<path d="M106.8 130.34C106.8 129.622 106.218 129.04 105.5 129.04C104.782 129.04 104.2 129.622 104.2 130.34C104.2 131.058 104.782 131.64 105.5 131.64V132.84L105.371 132.837C104.093 132.772 103.068 131.747 103.004 130.468L103 130.34C103 128.959 104.119 127.84 105.5 127.84L105.629 127.843C106.949 127.91 108 129.002 108 130.34L107.997 130.468C107.93 131.789 106.838 132.84 105.5 132.84V131.64C106.218 131.64 106.8 131.058 106.8 130.34Z" fill="white"/>
<path d="M105.8 140.34C105.8 139.622 105.218 139.04 104.5 139.04C103.782 139.04 103.2 139.622 103.2 140.34C103.2 141.058 103.782 141.64 104.5 141.64V142.84L104.371 142.837C103.093 142.772 102.068 141.747 102.004 140.468L102 140.34C102 138.959 103.119 137.84 104.5 137.84L104.629 137.843C105.949 137.91 107 139.002 107 140.34L106.997 140.468C106.93 141.789 105.838 142.84 104.5 142.84V141.64C105.218 141.64 105.8 141.058 105.8 140.34Z" fill="white"/>
<path d="M102.8 150.34C102.8 149.622 102.218 149.04 101.5 149.04C100.782 149.04 100.2 149.622 100.2 150.34C100.2 151.058 100.782 151.64 101.5 151.64V152.84L101.371 152.837C100.093 152.772 99.0683 151.747 99.0035 150.468L99 150.34C99 148.959 100.119 147.84 101.5 147.84L101.629 147.843C102.949 147.91 104 149.002 104 150.34L103.997 150.468C103.93 151.789 102.838 152.84 101.5 152.84V151.64C102.218 151.64 102.8 151.058 102.8 150.34Z" fill="white"/>
<path d="M104.927 132.264L99.4266 137.765L98.5781 136.916L104.078 131.416L104.927 132.264Z" fill="white"/>
<path d="M102.5 140.24V141.44H96.5V140.24H102.5Z" fill="white"/>
<path d="M97.8211 143.739L100.999 148.506L100.001 149.172L97.1789 144.939H93V143.739H97.8211Z" fill="white"/>
<path d="M66.2002 130.34C66.2002 129.622 66.7819 129.04 67.4998 129.04C68.2178 129.04 68.8 129.622 68.8 130.34C68.7999 131.058 68.2177 131.64 67.4998 131.64V132.84L67.6287 132.837C68.907 132.772 69.9317 131.747 69.9965 130.468L70 130.34C70 128.959 68.8805 127.84 67.4998 127.84L67.3715 127.843C66.0505 127.91 65.0002 129.002 65.0002 130.34L65.0031 130.468C65.07 131.789 66.1623 132.84 67.4998 132.84V131.64C66.782 131.64 66.2003 131.058 66.2002 130.34Z" fill="white"/>
<path d="M67.2002 140.34C67.2002 139.622 67.7819 139.04 68.4998 139.04C69.2178 139.04 69.8 139.622 69.8 140.34C69.7999 141.058 69.2177 141.64 68.4998 141.64V142.84L68.6287 142.837C69.907 142.772 70.9317 141.747 70.9965 140.468L71 140.34C71 138.959 69.8805 137.84 68.4998 137.84L68.3715 137.843C67.0505 137.91 66.0002 139.002 66.0002 140.34L66.0031 140.468C66.07 141.789 67.1623 142.84 68.4998 142.84V141.64C67.782 141.64 67.2003 141.058 67.2002 140.34Z" fill="white"/>
<path d="M70.2002 150.34C70.2002 149.622 70.7819 149.04 71.4998 149.04C72.2178 149.04 72.8 149.622 72.8 150.34C72.7999 151.058 72.2177 151.64 71.4998 151.64V152.84L71.6287 152.837C72.907 152.772 73.9317 151.747 73.9965 150.468L74 150.34C74 148.959 72.8805 147.84 71.4998 147.84L71.3715 147.843C70.0505 147.91 69.0002 149.002 69.0002 150.34L69.0031 150.468C69.07 151.789 70.1623 152.84 71.4998 152.84V151.64C70.782 151.64 70.2003 151.058 70.2002 150.34Z" fill="white"/>
<path d="M68.0732 132.264L73.5734 137.765L74.4219 136.916L68.9217 131.416L68.0732 132.264Z" fill="white"/>
<path d="M70.5 140.24V141.44H76.5V140.24H70.5Z" fill="white"/>
<path d="M75.1789 143.739L72.0008 148.506L72.9992 149.172L75.8211 144.939H80V143.739H75.1789Z" fill="white"/>
<path d="M282.165 95L285.685 87.3H286.488L290.008 95H289.15L285.916 87.773H286.246L283.012 95H282.165ZM283.551 92.943L283.793 92.283H288.27L288.512 92.943H283.551ZM291.297 95V89.225H293.849C294.501 89.225 295.015 89.3497 295.389 89.599C295.77 89.8483 295.961 90.215 295.961 90.699C295.961 91.1683 295.781 91.5313 295.422 91.788C295.062 92.0373 294.589 92.162 294.003 92.162L294.157 91.931C294.846 91.931 295.352 92.0593 295.675 92.316C295.997 92.5727 296.159 92.943 296.159 93.427C296.159 93.9257 295.975 94.3143 295.609 94.593C295.249 94.8643 294.688 95 293.926 95H291.297ZM292.056 94.384H293.893C294.384 94.384 294.754 94.307 295.004 94.153C295.26 93.9917 295.389 93.735 295.389 93.383C295.389 93.031 295.275 92.7743 295.048 92.613C294.82 92.4517 294.461 92.371 293.97 92.371H292.056V94.384ZM292.056 91.788H293.794C294.241 91.788 294.582 91.7037 294.817 91.535C295.059 91.3663 295.18 91.1207 295.18 90.798C295.18 90.4753 295.059 90.2333 294.817 90.072C294.582 89.9107 294.241 89.83 293.794 89.83H292.056V91.788ZM297.989 95V89.225H298.77V93.812L302.631 89.225H303.324V95H302.543V90.402L298.693 95H297.989ZM309.148 95V93.724L309.115 93.515V91.381C309.115 90.8897 308.976 90.512 308.697 90.248C308.426 89.984 308.019 89.852 307.476 89.852C307.102 89.852 306.747 89.9143 306.409 90.039C306.072 90.1637 305.786 90.3287 305.551 90.534L305.199 89.951C305.493 89.7017 305.845 89.511 306.255 89.379C306.666 89.2397 307.099 89.17 307.553 89.17C308.301 89.17 308.877 89.357 309.28 89.731C309.691 90.0977 309.896 90.6587 309.896 91.414V95H309.148ZM307.157 95.055C306.725 95.055 306.347 94.9853 306.024 94.846C305.709 94.6993 305.467 94.5013 305.298 94.252C305.13 93.9953 305.045 93.702 305.045 93.372C305.045 93.0713 305.115 92.8 305.254 92.558C305.401 92.3087 305.636 92.1107 305.958 91.964C306.288 91.81 306.728 91.733 307.278 91.733H309.269V92.316H307.3C306.743 92.316 306.354 92.415 306.134 92.613C305.922 92.811 305.815 93.0567 305.815 93.35C305.815 93.68 305.944 93.944 306.2 94.142C306.457 94.34 306.816 94.439 307.278 94.439C307.718 94.439 308.096 94.34 308.411 94.142C308.734 93.9367 308.969 93.6433 309.115 93.262L309.291 93.801C309.145 94.1823 308.888 94.4867 308.521 94.714C308.162 94.9413 307.707 95.055 307.157 95.055ZM311.975 95V89.225H312.756V94.318H316.287V89.225H317.068V95H311.975ZM317.266 96.397V94.934L317.464 95H316.287V94.318H318.003V96.397H317.266ZM319.495 95V89.225H320.276V93.812L324.137 89.225H324.83V95H324.049V90.402L320.199 95H319.495ZM330.797 95V92.921L330.94 93.086H328.982C328.241 93.086 327.662 92.9247 327.244 92.602C326.826 92.2793 326.617 91.81 326.617 91.194C326.617 90.534 326.841 90.0427 327.288 89.72C327.735 89.39 328.333 89.225 329.081 89.225H331.512V95H330.797ZM326.573 95L328.157 92.778H328.971L327.42 95H326.573ZM330.797 92.69V89.676L330.94 89.907H329.103C328.568 89.907 328.15 90.0097 327.849 90.215C327.556 90.4203 327.409 90.754 327.409 91.216C327.409 92.074 327.955 92.503 329.048 92.503H330.94L330.797 92.69Z" fill="black"/>
<path d="M48.827 10V2.784L49.047 3.004H46.121V2.3H52.336V3.004H49.421L49.63 2.784V10H48.827ZM55.4512 10.055C54.8499 10.055 54.3219 9.93033 53.8672 9.681C53.4126 9.42433 53.0569 9.076 52.8002 8.636C52.5436 8.18867 52.4152 7.679 52.4152 7.107C52.4152 6.535 52.5362 6.029 52.7782 5.589C53.0276 5.149 53.3649 4.80433 53.7902 4.555C54.2229 4.29833 54.7069 4.17 55.2422 4.17C55.7849 4.17 56.2652 4.29467 56.6832 4.544C57.1086 4.786 57.4422 5.13067 57.6842 5.578C57.9262 6.018 58.0472 6.52767 58.0472 7.107C58.0472 7.14367 58.0436 7.184 58.0362 7.228C58.0362 7.26467 58.0362 7.305 58.0362 7.349H53.0092V6.766H57.6182L57.3102 6.997C57.3102 6.579 57.2186 6.20867 57.0352 5.886C56.8592 5.556 56.6172 5.29933 56.3092 5.116C56.0012 4.93267 55.6456 4.841 55.2422 4.841C54.8462 4.841 54.4906 4.93267 54.1752 5.116C53.8599 5.29933 53.6142 5.556 53.4382 5.886C53.2622 6.216 53.1742 6.59367 53.1742 7.019V7.14C53.1742 7.58 53.2696 7.96867 53.4602 8.306C53.6582 8.636 53.9296 8.89633 54.2742 9.087C54.6262 9.27033 55.0259 9.362 55.4732 9.362C55.8252 9.362 56.1516 9.29967 56.4522 9.175C56.7602 9.05033 57.0242 8.85967 57.2442 8.603L57.6842 9.109C57.4276 9.417 57.1049 9.65167 56.7162 9.813C56.3349 9.97433 55.9132 10.055 55.4512 10.055ZM58.6019 9.989L58.6569 9.318C58.7082 9.32533 58.7559 9.33633 58.7999 9.351C58.8512 9.35833 58.8952 9.362 58.9319 9.362C59.1665 9.362 59.3535 9.274 59.4929 9.098C59.6395 8.922 59.7495 8.68733 59.8229 8.394C59.8962 8.10067 59.9475 7.77067 59.9769 7.404C60.0062 7.03 60.0319 6.656 60.0539 6.282L60.1529 4.225H64.3879V10H63.6069V4.676L63.8049 4.907H60.6589L60.8459 4.665L60.7579 6.337C60.7359 6.83567 60.6955 7.31233 60.6369 7.767C60.5855 8.22167 60.5012 8.62133 60.3839 8.966C60.2739 9.31067 60.1199 9.582 59.9219 9.78C59.7239 9.97067 59.4709 10.066 59.1629 10.066C59.0749 10.066 58.9832 10.0587 58.8879 10.044C58.7999 10.0293 58.7045 10.011 58.6019 9.989ZM69.0831 10.055C68.4817 10.055 67.9537 9.93033 67.4991 9.681C67.0444 9.42433 66.6887 9.076 66.4321 8.636C66.1754 8.18867 66.0471 7.679 66.0471 7.107C66.0471 6.535 66.1681 6.029 66.4101 5.589C66.6594 5.149 66.9967 4.80433 67.4221 4.555C67.8547 4.29833 68.3387 4.17 68.8741 4.17C69.4167 4.17 69.8971 4.29467 70.3151 4.544C70.7404 4.786 71.0741 5.13067 71.3161 5.578C71.5581 6.018 71.6791 6.52767 71.6791 7.107C71.6791 7.14367 71.6754 7.184 71.6681 7.228C71.6681 7.26467 71.6681 7.305 71.6681 7.349H66.6411V6.766H71.2501L70.9421 6.997C70.9421 6.579 70.8504 6.20867 70.6671 5.886C70.4911 5.556 70.2491 5.29933 69.9411 5.116C69.6331 4.93267 69.2774 4.841 68.8741 4.841C68.4781 4.841 68.1224 4.93267 67.8071 5.116C67.4917 5.29933 67.2461 5.556 67.0701 5.886C66.8941 6.216 66.8061 6.59367 66.8061 7.019V7.14C66.8061 7.58 66.9014 7.96867 67.0921 8.306C67.2901 8.636 67.5614 8.89633 67.9061 9.087C68.2581 9.27033 68.6577 9.362 69.1051 9.362C69.4571 9.362 69.7834 9.29967 70.0841 9.175C70.3921 9.05033 70.6561 8.85967 70.8761 8.603L71.3161 9.109C71.0594 9.417 70.7367 9.65167 70.3481 9.813C69.9667 9.97433 69.5451 10.055 69.0831 10.055ZM77.6429 10L75.2669 7.14L75.9159 6.755L78.5669 10H77.6429ZM73.4079 10V4.225H74.1889V10H73.4079ZM73.9469 7.426V6.755H75.8059V7.426H73.9469ZM75.9819 7.195L75.2559 7.085L77.5549 4.225H78.4019L75.9819 7.195ZM81.9714 10.055C81.414 10.055 80.9117 9.93033 80.4644 9.681C80.0244 9.42433 79.676 9.076 79.4194 8.636C79.1627 8.18867 79.0344 7.679 79.0344 7.107C79.0344 6.52767 79.1627 6.018 79.4194 5.578C79.676 5.138 80.0244 4.79333 80.4644 4.544C80.9044 4.29467 81.4067 4.17 81.9714 4.17C82.5434 4.17 83.0494 4.29467 83.4894 4.544C83.9367 4.79333 84.285 5.138 84.5344 5.578C84.791 6.018 84.9194 6.52767 84.9194 7.107C84.9194 7.679 84.791 8.18867 84.5344 8.636C84.285 9.076 83.9367 9.42433 83.4894 9.681C83.042 9.93033 82.536 10.055 81.9714 10.055ZM81.9714 9.362C82.3894 9.362 82.7597 9.27033 83.0824 9.087C83.405 8.89633 83.658 8.63233 83.8414 8.295C84.032 7.95033 84.1274 7.55433 84.1274 7.107C84.1274 6.65233 84.032 6.25633 83.8414 5.919C83.658 5.58167 83.405 5.32133 83.0824 5.138C82.7597 4.94733 82.393 4.852 81.9824 4.852C81.5717 4.852 81.205 4.94733 80.8824 5.138C80.5597 5.32133 80.303 5.58167 80.1124 5.919C79.9217 6.25633 79.8264 6.65233 79.8264 7.107C79.8264 7.55433 79.9217 7.95033 80.1124 8.295C80.303 8.63233 80.5597 8.89633 80.8824 9.087C81.205 9.27033 81.568 9.362 81.9714 9.362ZM86.5885 10V4.225H87.3805L89.9985 8.658H89.6685L92.3305 4.225H93.0565V10H92.3415V5.116L92.4845 5.182L89.9985 9.296H89.6465L87.1385 5.138L87.3035 5.105V10H86.5885ZM95.279 10V4.225H96.071L98.689 8.658H98.359L101.021 4.225H101.747V10H101.032V5.116L101.175 5.182L98.689 9.296H98.337L95.829 5.138L95.994 5.105V10H95.279ZM104.068 12.189C103.797 12.189 103.537 12.145 103.287 12.057C103.045 11.969 102.836 11.837 102.66 11.661L103.023 11.078C103.17 11.2173 103.328 11.3237 103.496 11.397C103.672 11.4777 103.867 11.518 104.079 11.518C104.336 11.518 104.556 11.4447 104.739 11.298C104.93 11.1587 105.11 10.9093 105.278 10.55L105.652 9.703L105.74 9.582L108.116 4.225H108.886L105.993 10.693C105.832 11.067 105.652 11.364 105.454 11.584C105.264 11.804 105.055 11.958 104.827 12.046C104.6 12.1413 104.347 12.189 104.068 12.189ZM105.608 10.165L102.946 4.225H103.76L106.114 9.527L105.608 10.165ZM110.103 10V4.225H110.884V6.777H114.525V4.225H115.306V10H114.525V7.448H110.884V10H110.103ZM117.526 10V4.225H118.307V8.812L122.168 4.225H122.861V10H122.08V5.402L118.23 10H117.526ZM129.334 10L126.958 7.14L127.607 6.755L130.258 10H129.334ZM125.099 10V4.225H125.88V10H125.099ZM125.638 7.426V6.755H127.497V7.426H125.638ZM127.673 7.195L126.947 7.085L129.246 4.225H130.093L127.673 7.195ZM134.969 10V8.724L134.936 8.515V6.381C134.936 5.88967 134.797 5.512 134.518 5.248C134.247 4.984 133.84 4.852 133.297 4.852C132.923 4.852 132.568 4.91433 132.23 5.039C131.893 5.16367 131.607 5.32867 131.372 5.534L131.02 4.951C131.314 4.70167 131.666 4.511 132.076 4.379C132.487 4.23967 132.92 4.17 133.374 4.17C134.122 4.17 134.698 4.357 135.101 4.731C135.512 5.09767 135.717 5.65867 135.717 6.414V10H134.969ZM132.978 10.055C132.546 10.055 132.168 9.98533 131.845 9.846C131.53 9.69933 131.288 9.50133 131.119 9.252C130.951 8.99533 130.866 8.702 130.866 8.372C130.866 8.07133 130.936 7.8 131.075 7.558C131.222 7.30867 131.457 7.11067 131.779 6.964C132.109 6.81 132.549 6.733 133.099 6.733H135.09V7.316H133.121C132.564 7.316 132.175 7.415 131.955 7.613C131.743 7.811 131.636 8.05667 131.636 8.35C131.636 8.68 131.765 8.944 132.021 9.142C132.278 9.34 132.637 9.439 133.099 9.439C133.539 9.439 133.917 9.34 134.232 9.142C134.555 8.93667 134.79 8.64333 134.936 8.262L135.112 8.801C134.966 9.18233 134.709 9.48667 134.342 9.714C133.983 9.94133 133.528 10.055 132.978 10.055ZM137.797 10V4.225H138.578V9.318H142.109V4.225H142.89V10H137.797ZM143.088 11.397V9.934L143.286 10H142.109V9.318H143.825V11.397H143.088ZM145.316 10V4.225H146.097V8.812L149.958 4.225H150.651V10H149.87V5.402L146.02 10H145.316ZM152.889 10V4.225H153.67V8.812L157.531 4.225H158.224V10H157.443V5.402L153.593 10H152.889Z" fill="black"/>
<path d="M1.298 95V87.3H6.93V87.993H2.101V90.512H4.62C5.52933 90.512 6.21867 90.699 6.688 91.073C7.16467 91.4397 7.403 91.9823 7.403 92.701C7.403 93.4417 7.14633 94.01 6.633 94.406C6.127 94.802 5.39733 95 4.444 95H1.298ZM2.101 94.351H4.433C5.14433 94.351 5.67967 94.2153 6.039 93.944C6.40567 93.6653 6.589 93.262 6.589 92.734C6.589 91.6853 5.87033 91.161 4.433 91.161H2.101V94.351ZM11.5674 95.055C10.9661 95.055 10.4381 94.9303 9.98345 94.681C9.52878 94.4243 9.17311 94.076 8.91645 93.636C8.65978 93.1887 8.53145 92.679 8.53145 92.107C8.53145 91.535 8.65245 91.029 8.89445 90.589C9.14378 90.149 9.48111 89.8043 9.90645 89.555C10.3391 89.2983 10.8231 89.17 11.3584 89.17C11.9011 89.17 12.3814 89.2947 12.7994 89.544C13.2248 89.786 13.5584 90.1307 13.8004 90.578C14.0424 91.018 14.1634 91.5277 14.1634 92.107C14.1634 92.1437 14.1598 92.184 14.1524 92.228C14.1524 92.2647 14.1524 92.305 14.1524 92.349H9.12545V91.766H13.7344L13.4264 91.997C13.4264 91.579 13.3348 91.2087 13.1514 90.886C12.9754 90.556 12.7334 90.2993 12.4254 90.116C12.1174 89.9327 11.7618 89.841 11.3584 89.841C10.9624 89.841 10.6068 89.9327 10.2914 90.116C9.97611 90.2993 9.73045 90.556 9.55445 90.886C9.37845 91.216 9.29045 91.5937 9.29045 92.019V92.14C9.29045 92.58 9.38578 92.9687 9.57645 93.306C9.77445 93.636 10.0458 93.8963 10.3904 94.087C10.7424 94.2703 11.1421 94.362 11.5894 94.362C11.9414 94.362 12.2678 94.2997 12.5684 94.175C12.8764 94.0503 13.1404 93.8597 13.3604 93.603L13.8004 94.109C13.5438 94.417 13.2211 94.6517 12.8324 94.813C12.4511 94.9743 12.0294 95.055 11.5674 95.055ZM17.2821 95.066C16.8641 95.066 16.4498 95.0073 16.0391 94.89C15.6285 94.7727 15.2655 94.593 14.9501 94.351L15.2031 93.768C15.4818 93.9733 15.8045 94.131 16.1711 94.241C16.5378 94.3437 16.9008 94.395 17.2601 94.395C17.6195 94.3877 17.9311 94.3363 18.1951 94.241C18.4591 94.1457 18.6645 94.0137 18.8111 93.845C18.9578 93.6763 19.0311 93.4857 19.0311 93.273C19.0311 92.965 18.8918 92.7267 18.6131 92.558C18.3345 92.382 17.9531 92.294 17.4691 92.294H16.4791V91.722H17.4141C17.7001 91.722 17.9531 91.6853 18.1731 91.612C18.3931 91.5387 18.5618 91.4323 18.6791 91.293C18.8038 91.1537 18.8661 90.9887 18.8661 90.798C18.8661 90.5927 18.7928 90.4167 18.6461 90.27C18.5068 90.1233 18.3125 90.0133 18.0631 89.94C17.8138 89.8667 17.5315 89.83 17.2161 89.83C16.9301 89.8373 16.6331 89.8813 16.3251 89.962C16.0171 90.0353 15.7128 90.149 15.4121 90.303L15.1921 89.698C15.5295 89.522 15.8631 89.39 16.1931 89.302C16.5305 89.2067 16.8678 89.159 17.2051 89.159C17.6671 89.1443 18.0815 89.1993 18.4481 89.324C18.8221 89.4487 19.1191 89.6283 19.3391 89.863C19.5591 90.0903 19.6691 90.3653 19.6691 90.688C19.6691 90.974 19.5811 91.2233 19.4051 91.436C19.2291 91.6487 18.9945 91.8137 18.7011 91.931C18.4078 92.0483 18.0741 92.107 17.7001 92.107L17.7331 91.898C18.3931 91.898 18.9065 92.0263 19.2731 92.283C19.6471 92.5397 19.8341 92.888 19.8341 93.328C19.8341 93.6727 19.7205 93.977 19.4931 94.241C19.2658 94.4977 18.9578 94.6993 18.5691 94.846C18.1878 94.9927 17.7588 95.066 17.2821 95.066ZM23.9831 95.055C23.4258 95.055 22.9234 94.9303 22.4761 94.681C22.0361 94.4243 21.6878 94.076 21.4311 93.636C21.1744 93.1887 21.0461 92.679 21.0461 92.107C21.0461 91.5277 21.1744 91.018 21.4311 90.578C21.6878 90.138 22.0361 89.7933 22.4761 89.544C22.9161 89.2947 23.4184 89.17 23.9831 89.17C24.5551 89.17 25.0611 89.2947 25.5011 89.544C25.9484 89.7933 26.2968 90.138 26.5461 90.578C26.8028 91.018 26.9311 91.5277 26.9311 92.107C26.9311 92.679 26.8028 93.1887 26.5461 93.636C26.2968 94.076 25.9484 94.4243 25.5011 94.681C25.0538 94.9303 24.5478 95.055 23.9831 95.055ZM23.9831 94.362C24.4011 94.362 24.7714 94.2703 25.0941 94.087C25.4168 93.8963 25.6698 93.6323 25.8531 93.295C26.0438 92.9503 26.1391 92.5543 26.1391 92.107C26.1391 91.6523 26.0438 91.2563 25.8531 90.919C25.6698 90.5817 25.4168 90.3213 25.0941 90.138C24.7714 89.9473 24.4048 89.852 23.9941 89.852C23.5834 89.852 23.2168 89.9473 22.8941 90.138C22.5714 90.3213 22.3148 90.5817 22.1241 90.919C21.9334 91.2563 21.8381 91.6523 21.8381 92.107C21.8381 92.5543 21.9334 92.9503 22.1241 93.295C22.3148 93.6323 22.5714 93.8963 22.8941 94.087C23.2168 94.2703 23.5798 94.362 23.9831 94.362ZM28.6003 95V89.225H33.7923V95H33.0113V89.698L33.2093 89.907H29.1833L29.3813 89.698V95H28.6003ZM39.5984 95V93.724L39.5654 93.515V91.381C39.5654 90.8897 39.426 90.512 39.1474 90.248C38.876 89.984 38.469 89.852 37.9264 89.852C37.5524 89.852 37.1967 89.9143 36.8594 90.039C36.522 90.1637 36.236 90.3287 36.0014 90.534L35.6494 89.951C35.9427 89.7017 36.2947 89.511 36.7054 89.379C37.116 89.2397 37.5487 89.17 38.0034 89.17C38.7514 89.17 39.327 89.357 39.7304 89.731C40.141 90.0977 40.3464 90.6587 40.3464 91.414V95H39.5984ZM37.6074 95.055C37.1747 95.055 36.797 94.9853 36.4744 94.846C36.159 94.6993 35.917 94.5013 35.7484 94.252C35.5797 93.9953 35.4954 93.702 35.4954 93.372C35.4954 93.0713 35.565 92.8 35.7044 92.558C35.851 92.3087 36.0857 92.1107 36.4084 91.964C36.7384 91.81 37.1784 91.733 37.7284 91.733H39.7194V92.316H37.7504C37.193 92.316 36.8044 92.415 36.5844 92.613C36.3717 92.811 36.2654 93.0567 36.2654 93.35C36.2654 93.68 36.3937 93.944 36.6504 94.142C36.907 94.34 37.2664 94.439 37.7284 94.439C38.1684 94.439 38.546 94.34 38.8614 94.142C39.184 93.9367 39.4187 93.6433 39.5654 93.262L39.7414 93.801C39.5947 94.1823 39.338 94.4867 38.9714 94.714C38.612 94.9413 38.1574 95.055 37.6074 95.055ZM44.8455 95.055C44.2735 95.055 43.7601 94.9303 43.3055 94.681C42.8581 94.4243 42.5061 94.076 42.2495 93.636C41.9928 93.1887 41.8645 92.679 41.8645 92.107C41.8645 91.5277 41.9928 91.018 42.2495 90.578C42.5061 90.138 42.8581 89.7933 43.3055 89.544C43.7601 89.2947 44.2735 89.17 44.8455 89.17C45.3368 89.17 45.7805 89.2653 46.1765 89.456C46.5725 89.6467 46.8841 89.9327 47.1115 90.314L46.5285 90.71C46.3305 90.4167 46.0848 90.2003 45.7915 90.061C45.4981 89.9217 45.1791 89.852 44.8345 89.852C44.4238 89.852 44.0535 89.9473 43.7235 90.138C43.3935 90.3213 43.1331 90.5817 42.9425 90.919C42.7518 91.2563 42.6565 91.6523 42.6565 92.107C42.6565 92.5617 42.7518 92.9577 42.9425 93.295C43.1331 93.6323 43.3935 93.8963 43.7235 94.087C44.0535 94.2703 44.4238 94.362 44.8345 94.362C45.1791 94.362 45.4981 94.2923 45.7915 94.153C46.0848 94.0137 46.3305 93.801 46.5285 93.515L47.1115 93.911C46.8841 94.285 46.5725 94.571 46.1765 94.769C45.7805 94.9597 45.3368 95.055 44.8455 95.055ZM48.6237 95V89.225H49.4047V91.777H53.0457V89.225H53.8267V95H53.0457V92.448H49.4047V95H48.6237ZM58.4225 95.055C57.8652 95.055 57.3629 94.9303 56.9155 94.681C56.4755 94.4243 56.1272 94.076 55.8705 93.636C55.6139 93.1887 55.4855 92.679 55.4855 92.107C55.4855 91.5277 55.6139 91.018 55.8705 90.578C56.1272 90.138 56.4755 89.7933 56.9155 89.544C57.3555 89.2947 57.8579 89.17 58.4225 89.17C58.9945 89.17 59.5005 89.2947 59.9405 89.544C60.3879 89.7933 60.7362 90.138 60.9855 90.578C61.2422 91.018 61.3705 91.5277 61.3705 92.107C61.3705 92.679 61.2422 93.1887 60.9855 93.636C60.7362 94.076 60.3879 94.4243 59.9405 94.681C59.4932 94.9303 58.9872 95.055 58.4225 95.055ZM58.4225 94.362C58.8405 94.362 59.2109 94.2703 59.5335 94.087C59.8562 93.8963 60.1092 93.6323 60.2925 93.295C60.4832 92.9503 60.5785 92.5543 60.5785 92.107C60.5785 91.6523 60.4832 91.2563 60.2925 90.919C60.1092 90.5817 59.8562 90.3213 59.5335 90.138C59.2109 89.9473 58.8442 89.852 58.4335 89.852C58.0229 89.852 57.6562 89.9473 57.3335 90.138C57.0109 90.3213 56.7542 90.5817 56.5635 90.919C56.3729 91.2563 56.2775 91.6523 56.2775 92.107C56.2775 92.5543 56.3729 92.9503 56.5635 93.295C56.7542 93.6323 57.0109 93.8963 57.3335 94.087C57.6562 94.2703 58.0192 94.362 58.4225 94.362ZM65.4597 95.055C64.8877 95.055 64.3744 94.9303 63.9197 94.681C63.4724 94.4243 63.1204 94.076 62.8637 93.636C62.607 93.1887 62.4787 92.679 62.4787 92.107C62.4787 91.5277 62.607 91.018 62.8637 90.578C63.1204 90.138 63.4724 89.7933 63.9197 89.544C64.3744 89.2947 64.8877 89.17 65.4597 89.17C65.951 89.17 66.3947 89.2653 66.7907 89.456C67.1867 89.6467 67.4984 89.9327 67.7257 90.314L67.1427 90.71C66.9447 90.4167 66.699 90.2003 66.4057 90.061C66.1124 89.9217 65.7934 89.852 65.4487 89.852C65.038 89.852 64.6677 89.9473 64.3377 90.138C64.0077 90.3213 63.7474 90.5817 63.5567 90.919C63.366 91.2563 63.2707 91.6523 63.2707 92.107C63.2707 92.5617 63.366 92.9577 63.5567 93.295C63.7474 93.6323 64.0077 93.8963 64.3377 94.087C64.6677 94.2703 65.038 94.362 65.4487 94.362C65.7934 94.362 66.1124 94.2923 66.4057 94.153C66.699 94.0137 66.9447 93.801 67.1427 93.515L67.7257 93.911C67.4984 94.285 67.1867 94.571 66.7907 94.769C66.3947 94.9597 65.951 95.055 65.4597 95.055ZM70.2305 95V89.698L70.4285 89.907H68.0415V89.225H73.2005V89.907H70.8135L71.0115 89.698V95H70.2305ZM76.8158 91.26C77.5418 91.2673 78.0918 91.4287 78.4658 91.744C78.8471 92.0593 79.0378 92.514 79.0378 93.108C79.0378 93.724 78.8324 94.197 78.4218 94.527C78.0184 94.857 77.4318 95.0183 76.6618 95.011L74.3298 95V89.225H75.1108V91.238L76.8158 91.26ZM76.6178 94.417C77.1531 94.4243 77.5564 94.318 77.8278 94.098C78.1064 93.8707 78.2458 93.5407 78.2458 93.108C78.2458 92.6753 78.1101 92.36 77.8388 92.162C77.5674 91.9567 77.1604 91.8503 76.6178 91.843L75.1108 91.821V94.395L76.6178 94.417Z" fill="black"/>
<path d="M50.298 262V254.3H56.777V262H55.974V254.784L56.183 255.004H50.892L51.101 254.784V262H50.298ZM62.1691 262.055C61.6705 262.055 61.2195 261.941 60.8161 261.714C60.4128 261.479 60.0901 261.146 59.8481 260.713C59.6135 260.273 59.4961 259.738 59.4961 259.107C59.4961 258.476 59.6135 257.945 59.8481 257.512C60.0828 257.072 60.4018 256.738 60.8051 256.511C61.2085 256.284 61.6631 256.17 62.1691 256.17C62.7191 256.17 63.2105 256.295 63.6431 256.544C64.0831 256.786 64.4278 257.131 64.6771 257.578C64.9265 258.018 65.0511 258.528 65.0511 259.107C65.0511 259.694 64.9265 260.207 64.6771 260.647C64.4278 261.087 64.0831 261.432 63.6431 261.681C63.2105 261.93 62.7191 262.055 62.1691 262.055ZM59.1881 264.134V256.225H59.9361V257.963L59.8591 259.118L59.9691 260.284V264.134H59.1881ZM62.1141 261.362C62.5248 261.362 62.8915 261.27 63.2141 261.087C63.5368 260.896 63.7935 260.632 63.9841 260.295C64.1748 259.95 64.2701 259.554 64.2701 259.107C64.2701 258.66 64.1748 258.267 63.9841 257.93C63.7935 257.593 63.5368 257.329 63.2141 257.138C62.8915 256.947 62.5248 256.852 62.1141 256.852C61.7035 256.852 61.3331 256.947 61.0031 257.138C60.6805 257.329 60.4238 257.593 60.2331 257.93C60.0498 258.267 59.9581 258.66 59.9581 259.107C59.9581 259.554 60.0498 259.95 60.2331 260.295C60.4238 260.632 60.6805 260.896 61.0031 261.087C61.3331 261.27 61.7035 261.362 62.1141 261.362ZM66.7292 262V256.225H67.5102V260.812L71.3712 256.225H72.0642V262H71.2832V257.402L67.4332 262H66.7292ZM76.8984 262.066C76.4291 262.066 76.0111 261.989 75.6444 261.835C75.2851 261.681 74.9771 261.446 74.7204 261.131C74.4637 260.816 74.2694 260.427 74.1374 259.965C74.0054 259.496 73.9394 258.953 73.9394 258.337C73.9394 257.787 73.9907 257.307 74.0934 256.896C74.1961 256.478 74.3391 256.119 74.5224 255.818C74.7057 255.517 74.9184 255.264 75.1604 255.059C75.4097 254.846 75.6774 254.678 75.9634 254.553C76.2567 254.421 76.5574 254.322 76.8654 254.256L79.4614 253.651L79.5934 254.377L77.1514 254.927C76.9974 254.964 76.8104 255.015 76.5904 255.081C76.3777 255.147 76.1577 255.246 75.9304 255.378C75.7104 255.51 75.5051 255.693 75.3144 255.928C75.1237 256.163 74.9697 256.467 74.8524 256.841C74.7424 257.208 74.6874 257.666 74.6874 258.216C74.6874 258.333 74.6911 258.429 74.6984 258.502C74.7057 258.568 74.7131 258.641 74.7204 258.722C74.7351 258.795 74.7461 258.905 74.7534 259.052L74.4124 258.766C74.4931 258.319 74.6581 257.93 74.9074 257.6C75.1567 257.263 75.4684 257.002 75.8424 256.819C76.2237 256.628 76.6454 256.533 77.1074 256.533C77.6427 256.533 78.1194 256.65 78.5374 256.885C78.9554 257.112 79.2817 257.431 79.5164 257.842C79.7584 258.253 79.8794 258.729 79.8794 259.272C79.8794 259.807 79.7547 260.288 79.5054 260.713C79.2634 261.138 78.9187 261.472 78.4714 261.714C78.0241 261.949 77.4997 262.066 76.8984 262.066ZM76.9864 261.417C77.3971 261.417 77.7601 261.325 78.0754 261.142C78.3907 260.951 78.6364 260.695 78.8124 260.372C78.9957 260.049 79.0874 259.686 79.0874 259.283C79.0874 258.887 78.9957 258.535 78.8124 258.227C78.6364 257.919 78.3907 257.677 78.0754 257.501C77.7601 257.318 77.3934 257.226 76.9754 257.226C76.5647 257.226 76.2017 257.314 75.8864 257.49C75.5711 257.659 75.3217 257.897 75.1384 258.205C74.9624 258.513 74.8744 258.869 74.8744 259.272C74.8744 259.675 74.9624 260.038 75.1384 260.361C75.3217 260.684 75.5711 260.94 75.8864 261.131C76.2091 261.322 76.5757 261.417 76.9864 261.417ZM83.9294 262.055C83.372 262.055 82.8697 261.93 82.4224 261.681C81.9824 261.424 81.634 261.076 81.3774 260.636C81.1207 260.189 80.9924 259.679 80.9924 259.107C80.9924 258.528 81.1207 258.018 81.3774 257.578C81.634 257.138 81.9824 256.793 82.4224 256.544C82.8624 256.295 83.3647 256.17 83.9294 256.17C84.5014 256.17 85.0074 256.295 85.4474 256.544C85.8947 256.793 86.243 257.138 86.4924 257.578C86.749 258.018 86.8774 258.528 86.8774 259.107C86.8774 259.679 86.749 260.189 86.4924 260.636C86.243 261.076 85.8947 261.424 85.4474 261.681C85 261.93 84.494 262.055 83.9294 262.055ZM83.9294 261.362C84.3474 261.362 84.7177 261.27 85.0404 261.087C85.363 260.896 85.616 260.632 85.7994 260.295C85.99 259.95 86.0854 259.554 86.0854 259.107C86.0854 258.652 85.99 258.256 85.7994 257.919C85.616 257.582 85.363 257.321 85.0404 257.138C84.7177 256.947 84.351 256.852 83.9404 256.852C83.5297 256.852 83.163 256.947 82.8404 257.138C82.5177 257.321 82.261 257.582 82.0704 257.919C81.8797 258.256 81.7844 258.652 81.7844 259.107C81.7844 259.554 81.8797 259.95 82.0704 260.295C82.261 260.632 82.5177 260.896 82.8404 261.087C83.163 261.27 83.526 261.362 83.9294 261.362ZM91.5275 262.055C91.0289 262.055 90.5779 261.941 90.1745 261.714C89.7712 261.479 89.4485 261.146 89.2065 260.713C88.9719 260.273 88.8545 259.738 88.8545 259.107C88.8545 258.476 88.9719 257.945 89.2065 257.512C89.4412 257.072 89.7602 256.738 90.1635 256.511C90.5669 256.284 91.0215 256.17 91.5275 256.17C92.0775 256.17 92.5689 256.295 93.0015 256.544C93.4415 256.786 93.7862 257.131 94.0355 257.578C94.2849 258.018 94.4095 258.528 94.4095 259.107C94.4095 259.694 94.2849 260.207 94.0355 260.647C93.7862 261.087 93.4415 261.432 93.0015 261.681C92.5689 261.93 92.0775 262.055 91.5275 262.055ZM88.5465 264.134V256.225H89.2945V257.963L89.2175 259.118L89.3275 260.284V264.134H88.5465ZM91.4725 261.362C91.8832 261.362 92.2499 261.27 92.5725 261.087C92.8952 260.896 93.1519 260.632 93.3425 260.295C93.5332 259.95 93.6285 259.554 93.6285 259.107C93.6285 258.66 93.5332 258.267 93.3425 257.93C93.1519 257.593 92.8952 257.329 92.5725 257.138C92.2499 256.947 91.8832 256.852 91.4725 256.852C91.0619 256.852 90.6915 256.947 90.3615 257.138C90.0389 257.329 89.7822 257.593 89.5915 257.93C89.4082 258.267 89.3165 258.66 89.3165 259.107C89.3165 259.554 89.4082 259.95 89.5915 260.295C89.7822 260.632 90.0389 260.896 90.3615 261.087C90.6915 261.27 91.0619 261.362 91.4725 261.362ZM98.4636 262.055C97.9062 262.055 97.4039 261.93 96.9566 261.681C96.5166 261.424 96.1682 261.076 95.9116 260.636C95.6549 260.189 95.5266 259.679 95.5266 259.107C95.5266 258.528 95.6549 258.018 95.9116 257.578C96.1682 257.138 96.5166 256.793 96.9566 256.544C97.3966 256.295 97.8989 256.17 98.4636 256.17C99.0356 256.17 99.5416 256.295 99.9816 256.544C100.429 256.793 100.777 257.138 101.027 257.578C101.283 258.018 101.412 258.528 101.412 259.107C101.412 259.679 101.283 260.189 101.027 260.636C100.777 261.076 100.429 261.424 99.9816 261.681C99.5342 261.93 99.0282 262.055 98.4636 262.055ZM98.4636 261.362C98.8816 261.362 99.2519 261.27 99.5746 261.087C99.8972 260.896 100.15 260.632 100.334 260.295C100.524 259.95 100.62 259.554 100.62 259.107C100.62 258.652 100.524 258.256 100.334 257.919C100.15 257.582 99.8972 257.321 99.5746 257.138C99.2519 256.947 98.8852 256.852 98.4746 256.852C98.0639 256.852 97.6972 256.947 97.3746 257.138C97.0519 257.321 96.7952 257.582 96.6046 257.919C96.4139 258.256 96.3186 258.652 96.3186 259.107C96.3186 259.554 96.4139 259.95 96.6046 260.295C96.7952 260.632 97.0519 260.896 97.3746 261.087C97.6972 261.27 98.0602 261.362 98.4636 261.362ZM105.501 262.055C104.929 262.055 104.415 261.93 103.961 261.681C103.513 261.424 103.161 261.076 102.905 260.636C102.648 260.189 102.52 259.679 102.52 259.107C102.52 258.528 102.648 258.018 102.905 257.578C103.161 257.138 103.513 256.793 103.961 256.544C104.415 256.295 104.929 256.17 105.501 256.17C105.992 256.17 106.436 256.265 106.832 256.456C107.228 256.647 107.539 256.933 107.767 257.314L107.184 257.71C106.986 257.417 106.74 257.2 106.447 257.061C106.153 256.922 105.834 256.852 105.49 256.852C105.079 256.852 104.709 256.947 104.379 257.138C104.049 257.321 103.788 257.582 103.598 257.919C103.407 258.256 103.312 258.652 103.312 259.107C103.312 259.562 103.407 259.958 103.598 260.295C103.788 260.632 104.049 260.896 104.379 261.087C104.709 261.27 105.079 261.362 105.49 261.362C105.834 261.362 106.153 261.292 106.447 261.153C106.74 261.014 106.986 260.801 107.184 260.515L107.767 260.911C107.539 261.285 107.228 261.571 106.832 261.769C106.436 261.96 105.992 262.055 105.501 262.055ZM110.272 262V256.698L110.47 256.907H108.083V256.225H113.242V256.907H110.855L111.053 256.698V262H110.272ZM117.352 262.055C116.853 262.055 116.402 261.941 115.999 261.714C115.595 261.479 115.273 261.146 115.031 260.713C114.796 260.273 114.679 259.738 114.679 259.107C114.679 258.476 114.796 257.945 115.031 257.512C115.265 257.072 115.584 256.738 115.988 256.511C116.391 256.284 116.846 256.17 117.352 256.17C117.902 256.17 118.393 256.295 118.826 256.544C119.266 256.786 119.61 257.131 119.86 257.578C120.109 258.018 120.234 258.528 120.234 259.107C120.234 259.694 120.109 260.207 119.86 260.647C119.61 261.087 119.266 261.432 118.826 261.681C118.393 261.93 117.902 262.055 117.352 262.055ZM114.371 264.134V256.225H115.119V257.963L115.042 259.118L115.152 260.284V264.134H114.371ZM117.297 261.362C117.707 261.362 118.074 261.27 118.397 261.087C118.719 260.896 118.976 260.632 119.167 260.295C119.357 259.95 119.453 259.554 119.453 259.107C119.453 258.66 119.357 258.267 119.167 257.93C118.976 257.593 118.719 257.329 118.397 257.138C118.074 256.947 117.707 256.852 117.297 256.852C116.886 256.852 116.516 256.947 116.186 257.138C115.863 257.329 115.606 257.593 115.416 257.93C115.232 258.267 115.141 258.66 115.141 259.107C115.141 259.554 115.232 259.95 115.416 260.295C115.606 260.632 115.863 260.896 116.186 261.087C116.516 261.27 116.886 261.362 117.297 261.362ZM124.288 262.055C123.73 262.055 123.228 261.93 122.781 261.681C122.341 261.424 121.992 261.076 121.736 260.636C121.479 260.189 121.351 259.679 121.351 259.107C121.351 258.528 121.479 258.018 121.736 257.578C121.992 257.138 122.341 256.793 122.781 256.544C123.221 256.295 123.723 256.17 124.288 256.17C124.86 256.17 125.366 256.295 125.806 256.544C126.253 256.793 126.601 257.138 126.851 257.578C127.107 258.018 127.236 258.528 127.236 259.107C127.236 259.679 127.107 260.189 126.851 260.636C126.601 261.076 126.253 261.424 125.806 261.681C125.358 261.93 124.852 262.055 124.288 262.055ZM124.288 261.362C124.706 261.362 125.076 261.27 125.399 261.087C125.721 260.896 125.974 260.632 126.158 260.295C126.348 259.95 126.444 259.554 126.444 259.107C126.444 258.652 126.348 258.256 126.158 257.919C125.974 257.582 125.721 257.321 125.399 257.138C125.076 256.947 124.709 256.852 124.299 256.852C123.888 256.852 123.521 256.947 123.199 257.138C122.876 257.321 122.619 257.582 122.429 257.919C122.238 258.256 122.143 258.652 122.143 259.107C122.143 259.554 122.238 259.95 122.429 260.295C122.619 260.632 122.876 260.896 123.199 261.087C123.521 261.27 123.884 261.362 124.288 261.362ZM131.38 262.055C130.779 262.055 130.251 261.93 129.796 261.681C129.341 261.424 128.986 261.076 128.729 260.636C128.472 260.189 128.344 259.679 128.344 259.107C128.344 258.535 128.465 258.029 128.707 257.589C128.956 257.149 129.294 256.804 129.719 256.555C130.152 256.298 130.636 256.17 131.171 256.17C131.714 256.17 132.194 256.295 132.612 256.544C133.037 256.786 133.371 257.131 133.613 257.578C133.855 258.018 133.976 258.528 133.976 259.107C133.976 259.144 133.972 259.184 133.965 259.228C133.965 259.265 133.965 259.305 133.965 259.349H128.938V258.766H133.547L133.239 258.997C133.239 258.579 133.147 258.209 132.964 257.886C132.788 257.556 132.546 257.299 132.238 257.116C131.93 256.933 131.574 256.841 131.171 256.841C130.775 256.841 130.419 256.933 130.104 257.116C129.789 257.299 129.543 257.556 129.367 257.886C129.191 258.216 129.103 258.594 129.103 259.019V259.14C129.103 259.58 129.198 259.969 129.389 260.306C129.587 260.636 129.858 260.896 130.203 261.087C130.555 261.27 130.955 261.362 131.402 261.362C131.754 261.362 132.08 261.3 132.381 261.175C132.689 261.05 132.953 260.86 133.173 260.603L133.613 261.109C133.356 261.417 133.034 261.652 132.645 261.813C132.264 261.974 131.842 262.055 131.38 262.055ZM135.705 262V256.225H136.486V258.777H140.127V256.225H140.908V262H140.127V259.448H136.486V262H135.705ZM143.128 262V256.225H143.909V260.812L147.77 256.225H148.463V262H147.682V257.402L143.832 262H143.128ZM153.176 262.055C152.575 262.055 152.047 261.93 151.592 261.681C151.137 261.424 150.782 261.076 150.525 260.636C150.268 260.189 150.14 259.679 150.14 259.107C150.14 258.535 150.261 258.029 150.503 257.589C150.752 257.149 151.09 256.804 151.515 256.555C151.948 256.298 152.432 256.17 152.967 256.17C153.51 256.17 153.99 256.295 154.408 256.544C154.833 256.786 155.167 257.131 155.409 257.578C155.651 258.018 155.772 258.528 155.772 259.107C155.772 259.144 155.768 259.184 155.761 259.228C155.761 259.265 155.761 259.305 155.761 259.349H150.734V258.766H155.343L155.035 258.997C155.035 258.579 154.943 258.209 154.76 257.886C154.584 257.556 154.342 257.299 154.034 257.116C153.726 256.933 153.37 256.841 152.967 256.841C152.571 256.841 152.215 256.933 151.9 257.116C151.585 257.299 151.339 257.556 151.163 257.886C150.987 258.216 150.899 258.594 150.899 259.019V259.14C150.899 259.58 150.994 259.969 151.185 260.306C151.383 260.636 151.654 260.896 151.999 261.087C152.351 261.27 152.751 261.362 153.198 261.362C153.55 261.362 153.876 261.3 154.177 261.175C154.485 261.05 154.749 260.86 154.969 260.603L155.409 261.109C155.152 261.417 154.83 261.652 154.441 261.813C154.06 261.974 153.638 262.055 153.176 262.055Z" fill="black"/>
<path d="M220.385 261.076L220.682 260.493C221.019 260.786 221.397 261.006 221.815 261.153C222.24 261.292 222.666 261.366 223.091 261.373C223.516 261.373 223.905 261.311 224.257 261.186C224.616 261.061 224.906 260.878 225.126 260.636C225.346 260.387 225.456 260.086 225.456 259.734C225.456 259.287 225.276 258.942 224.917 258.7C224.565 258.458 224.074 258.337 223.443 258.337H221.793V257.677H223.399C223.942 257.677 224.363 257.563 224.664 257.336C224.972 257.101 225.126 256.779 225.126 256.368C225.126 256.075 225.038 255.825 224.862 255.62C224.693 255.407 224.459 255.246 224.158 255.136C223.865 255.019 223.535 254.956 223.168 254.949C222.801 254.934 222.42 254.982 222.024 255.092C221.635 255.195 221.258 255.36 220.891 255.587L220.627 254.916C221.082 254.645 221.555 254.458 222.046 254.355C222.537 254.245 223.014 254.208 223.476 254.245C223.938 254.282 224.352 254.388 224.719 254.564C225.093 254.74 225.39 254.971 225.61 255.257C225.83 255.543 225.94 255.884 225.94 256.28C225.94 256.647 225.845 256.969 225.654 257.248C225.471 257.527 225.21 257.743 224.873 257.897C224.543 258.044 224.151 258.117 223.696 258.117L223.74 257.875C224.253 257.875 224.697 257.956 225.071 258.117C225.452 258.278 225.746 258.509 225.951 258.81C226.164 259.103 226.27 259.448 226.27 259.844C226.27 260.218 226.175 260.552 225.984 260.845C225.801 261.131 225.544 261.373 225.214 261.571C224.891 261.762 224.528 261.901 224.125 261.989C223.722 262.07 223.3 262.092 222.86 262.055C222.42 262.018 221.987 261.923 221.562 261.769C221.137 261.608 220.744 261.377 220.385 261.076ZM232.064 261.626V256.907H229.281L229.215 258.194C229.2 258.583 229.175 258.964 229.138 259.338C229.109 259.712 229.054 260.057 228.973 260.372C228.9 260.68 228.793 260.933 228.654 261.131C228.515 261.322 228.335 261.432 228.115 261.461L227.334 261.318C227.561 261.325 227.748 261.245 227.895 261.076C228.042 260.9 228.155 260.662 228.236 260.361C228.317 260.06 228.375 259.719 228.412 259.338C228.449 258.949 228.478 258.553 228.5 258.15L228.577 256.225H232.845V261.626H232.064ZM227.092 263.397V261.318H233.747V263.397H233.01V262H227.829V263.397H227.092ZM238.25 262.055C237.752 262.055 237.301 261.941 236.897 261.714C236.494 261.479 236.171 261.146 235.929 260.713C235.695 260.273 235.577 259.738 235.577 259.107C235.577 258.476 235.695 257.945 235.929 257.512C236.164 257.072 236.483 256.738 236.886 256.511C237.29 256.284 237.744 256.17 238.25 256.17C238.8 256.17 239.292 256.295 239.724 256.544C240.164 256.786 240.509 257.131 240.758 257.578C241.008 258.018 241.132 258.528 241.132 259.107C241.132 259.694 241.008 260.207 240.758 260.647C240.509 261.087 240.164 261.432 239.724 261.681C239.292 261.93 238.8 262.055 238.25 262.055ZM235.269 264.134V256.225H236.017V257.963L235.94 259.118L236.05 260.284V264.134H235.269ZM238.195 261.362C238.606 261.362 238.973 261.27 239.295 261.087C239.618 260.896 239.875 260.632 240.065 260.295C240.256 259.95 240.351 259.554 240.351 259.107C240.351 258.66 240.256 258.267 240.065 257.93C239.875 257.593 239.618 257.329 239.295 257.138C238.973 256.947 238.606 256.852 238.195 256.852C237.785 256.852 237.414 256.947 237.084 257.138C236.762 257.329 236.505 257.593 236.314 257.93C236.131 258.267 236.039 258.66 236.039 259.107C236.039 259.554 236.131 259.95 236.314 260.295C236.505 260.632 236.762 260.896 237.084 261.087C237.414 261.27 237.785 261.362 238.195 261.362ZM246.364 262V260.724L246.331 260.515V258.381C246.331 257.89 246.192 257.512 245.913 257.248C245.642 256.984 245.235 256.852 244.692 256.852C244.318 256.852 243.962 256.914 243.625 257.039C243.288 257.164 243.002 257.329 242.767 257.534L242.415 256.951C242.708 256.702 243.06 256.511 243.471 256.379C243.882 256.24 244.314 256.17 244.769 256.17C245.517 256.17 246.093 256.357 246.496 256.731C246.907 257.098 247.112 257.659 247.112 258.414V262H246.364ZM244.373 262.055C243.94 262.055 243.563 261.985 243.24 261.846C242.925 261.699 242.683 261.501 242.514 261.252C242.345 260.995 242.261 260.702 242.261 260.372C242.261 260.071 242.331 259.8 242.47 259.558C242.617 259.309 242.851 259.111 243.174 258.964C243.504 258.81 243.944 258.733 244.494 258.733H246.485V259.316H244.516C243.959 259.316 243.57 259.415 243.35 259.613C243.137 259.811 243.031 260.057 243.031 260.35C243.031 260.68 243.159 260.944 243.416 261.142C243.673 261.34 244.032 261.439 244.494 261.439C244.934 261.439 245.312 261.34 245.627 261.142C245.95 260.937 246.184 260.643 246.331 260.262L246.507 260.801C246.36 261.182 246.104 261.487 245.737 261.714C245.378 261.941 244.923 262.055 244.373 262.055ZM249.191 262V256.225H251.743C252.396 256.225 252.909 256.35 253.283 256.599C253.664 256.848 253.855 257.215 253.855 257.699C253.855 258.168 253.675 258.531 253.316 258.788C252.957 259.037 252.484 259.162 251.897 259.162L252.051 258.931C252.74 258.931 253.246 259.059 253.569 259.316C253.892 259.573 254.053 259.943 254.053 260.427C254.053 260.926 253.87 261.314 253.503 261.593C253.144 261.864 252.583 262 251.82 262H249.191ZM249.95 261.384H251.787C252.278 261.384 252.649 261.307 252.898 261.153C253.155 260.992 253.283 260.735 253.283 260.383C253.283 260.031 253.169 259.774 252.942 259.613C252.715 259.452 252.355 259.371 251.864 259.371H249.95V261.384ZM249.95 258.788H251.688C252.135 258.788 252.476 258.704 252.711 258.535C252.953 258.366 253.074 258.121 253.074 257.798C253.074 257.475 252.953 257.233 252.711 257.072C252.476 256.911 252.135 256.83 251.688 256.83H249.95V258.788ZM258.259 262.055C257.702 262.055 257.2 261.93 256.752 261.681C256.312 261.424 255.964 261.076 255.707 260.636C255.451 260.189 255.322 259.679 255.322 259.107C255.322 258.528 255.451 258.018 255.707 257.578C255.964 257.138 256.312 256.793 256.752 256.544C257.192 256.295 257.695 256.17 258.259 256.17C258.831 256.17 259.337 256.295 259.777 256.544C260.225 256.793 260.573 257.138 260.822 257.578C261.079 258.018 261.207 258.528 261.207 259.107C261.207 259.679 261.079 260.189 260.822 260.636C260.573 261.076 260.225 261.424 259.777 261.681C259.33 261.93 258.824 262.055 258.259 262.055ZM258.259 261.362C258.677 261.362 259.048 261.27 259.37 261.087C259.693 260.896 259.946 260.632 260.129 260.295C260.32 259.95 260.415 259.554 260.415 259.107C260.415 258.652 260.32 258.256 260.129 257.919C259.946 257.582 259.693 257.321 259.37 257.138C259.048 256.947 258.681 256.852 258.27 256.852C257.86 256.852 257.493 256.947 257.17 257.138C256.848 257.321 256.591 257.582 256.4 257.919C256.21 258.256 256.114 258.652 256.114 259.107C256.114 259.554 256.21 259.95 256.4 260.295C256.591 260.632 256.848 260.896 257.17 261.087C257.493 261.27 257.856 261.362 258.259 261.362ZM265.253 262.055C264.695 262.055 264.193 261.93 263.746 261.681C263.306 261.424 262.957 261.076 262.701 260.636C262.444 260.189 262.316 259.679 262.316 259.107C262.316 258.528 262.444 258.018 262.701 257.578C262.957 257.138 263.306 256.793 263.746 256.544C264.186 256.295 264.688 256.17 265.253 256.17C265.825 256.17 266.331 256.295 266.771 256.544C267.218 256.793 267.566 257.138 267.816 257.578C268.072 258.018 268.201 258.528 268.201 259.107C268.201 259.679 268.072 260.189 267.816 260.636C267.566 261.076 267.218 261.424 266.771 261.681C266.323 261.93 265.817 262.055 265.253 262.055ZM265.253 261.362C265.671 261.362 266.041 261.27 266.364 261.087C266.686 260.896 266.939 260.632 267.123 260.295C267.313 259.95 267.409 259.554 267.409 259.107C267.409 258.652 267.313 258.256 267.123 257.919C266.939 257.582 266.686 257.321 266.364 257.138C266.041 256.947 265.674 256.852 265.264 256.852C264.853 256.852 264.486 256.947 264.164 257.138C263.841 257.321 263.584 257.582 263.394 257.919C263.203 258.256 263.108 258.652 263.108 259.107C263.108 259.554 263.203 259.95 263.394 260.295C263.584 260.632 263.841 260.896 264.164 261.087C264.486 261.27 264.849 261.362 265.253 261.362ZM268.72 262L271.162 258.832L271.151 259.217L268.83 256.225H269.71L271.613 258.7L271.283 258.689L273.186 256.225H274.044L271.701 259.25L271.712 258.832L274.176 262H273.285L271.272 259.36L271.58 259.404L269.6 262H268.72ZM278.437 262.055C277.938 262.055 277.487 261.941 277.084 261.714C276.68 261.479 276.358 261.146 276.116 260.713C275.881 260.273 275.764 259.738 275.764 259.107C275.764 258.476 275.881 257.945 276.116 257.512C276.35 257.072 276.669 256.738 277.073 256.511C277.476 256.284 277.931 256.17 278.437 256.17C278.987 256.17 279.478 256.295 279.911 256.544C280.351 256.786 280.695 257.131 280.945 257.578C281.194 258.018 281.319 258.528 281.319 259.107C281.319 259.694 281.194 260.207 280.945 260.647C280.695 261.087 280.351 261.432 279.911 261.681C279.478 261.93 278.987 262.055 278.437 262.055ZM275.456 264.134V256.225H276.204V257.963L276.127 259.118L276.237 260.284V264.134H275.456ZM278.382 261.362C278.792 261.362 279.159 261.27 279.482 261.087C279.804 260.896 280.061 260.632 280.252 260.295C280.442 259.95 280.538 259.554 280.538 259.107C280.538 258.66 280.442 258.267 280.252 257.93C280.061 257.593 279.804 257.329 279.482 257.138C279.159 256.947 278.792 256.852 278.382 256.852C277.971 256.852 277.601 256.947 277.271 257.138C276.948 257.329 276.691 257.593 276.501 257.93C276.317 258.267 276.226 258.66 276.226 259.107C276.226 259.554 276.317 259.95 276.501 260.295C276.691 260.632 276.948 260.896 277.271 261.087C277.601 261.27 277.971 261.362 278.382 261.362ZM286.551 262V260.724L286.518 260.515V258.381C286.518 257.89 286.378 257.512 286.1 257.248C285.828 256.984 285.421 256.852 284.879 256.852C284.505 256.852 284.149 256.914 283.812 257.039C283.474 257.164 283.188 257.329 282.954 257.534L282.602 256.951C282.895 256.702 283.247 256.511 283.658 256.379C284.068 256.24 284.501 256.17 284.956 256.17C285.704 256.17 286.279 256.357 286.683 256.731C287.093 257.098 287.299 257.659 287.299 258.414V262H286.551ZM284.56 262.055C284.127 262.055 283.749 261.985 283.427 261.846C283.111 261.699 282.869 261.501 282.701 261.252C282.532 260.995 282.448 260.702 282.448 260.372C282.448 260.071 282.517 259.8 282.657 259.558C282.803 259.309 283.038 259.111 283.361 258.964C283.691 258.81 284.131 258.733 284.681 258.733H286.672V259.316H284.703C284.145 259.316 283.757 259.415 283.537 259.613C283.324 259.811 283.218 260.057 283.218 260.35C283.218 260.68 283.346 260.944 283.603 261.142C283.859 261.34 284.219 261.439 284.681 261.439C285.121 261.439 285.498 261.34 285.814 261.142C286.136 260.937 286.371 260.643 286.518 260.262L286.694 260.801C286.547 261.182 286.29 261.487 285.924 261.714C285.564 261.941 285.11 262.055 284.56 262.055ZM289.378 262V256.225H290.159V258.777H293.8V256.225H294.581V262H293.8V259.448H290.159V262H289.378ZM299.275 262.055C298.674 262.055 298.146 261.93 297.691 261.681C297.237 261.424 296.881 261.076 296.624 260.636C296.368 260.189 296.239 259.679 296.239 259.107C296.239 258.535 296.36 258.029 296.602 257.589C296.852 257.149 297.189 256.804 297.614 256.555C298.047 256.298 298.531 256.17 299.066 256.17C299.609 256.17 300.089 256.295 300.507 256.544C300.933 256.786 301.266 257.131 301.508 257.578C301.75 258.018 301.871 258.528 301.871 259.107C301.871 259.144 301.868 259.184 301.86 259.228C301.86 259.265 301.86 259.305 301.86 259.349H296.833V258.766H301.442L301.134 258.997C301.134 258.579 301.043 258.209 300.859 257.886C300.683 257.556 300.441 257.299 300.133 257.116C299.825 256.933 299.47 256.841 299.066 256.841C298.67 256.841 298.315 256.933 297.999 257.116C297.684 257.299 297.438 257.556 297.262 257.886C297.086 258.216 296.998 258.594 296.998 259.019V259.14C296.998 259.58 297.094 259.969 297.284 260.306C297.482 260.636 297.754 260.896 298.098 261.087C298.45 261.27 298.85 261.362 299.297 261.362C299.649 261.362 299.976 261.3 300.276 261.175C300.584 261.05 300.848 260.86 301.068 260.603L301.508 261.109C301.252 261.417 300.929 261.652 300.54 261.813C300.159 261.974 299.737 262.055 299.275 262.055ZM303.6 262V256.225H304.381V258.777H308.022V256.225H308.803V262H308.022V259.448H304.381V262H303.6ZM311.023 262V256.225H311.804V260.812L315.665 256.225H316.358V262H315.577V257.402L311.727 262H311.023ZM321.071 262.055C320.47 262.055 319.942 261.93 319.487 261.681C319.033 261.424 318.677 261.076 318.42 260.636C318.164 260.189 318.035 259.679 318.035 259.107C318.035 258.535 318.156 258.029 318.398 257.589C318.648 257.149 318.985 256.804 319.41 256.555C319.843 256.298 320.327 256.17 320.862 256.17C321.405 256.17 321.885 256.295 322.303 256.544C322.729 256.786 323.062 257.131 323.304 257.578C323.546 258.018 323.667 258.528 323.667 259.107C323.667 259.144 323.664 259.184 323.656 259.228C323.656 259.265 323.656 259.305 323.656 259.349H318.629V258.766H323.238L322.93 258.997C322.93 258.579 322.839 258.209 322.655 257.886C322.479 257.556 322.237 257.299 321.929 257.116C321.621 256.933 321.266 256.841 320.862 256.841C320.466 256.841 320.111 256.933 319.795 257.116C319.48 257.299 319.234 257.556 319.058 257.886C318.882 258.216 318.794 258.594 318.794 259.019V259.14C318.794 259.58 318.89 259.969 319.08 260.306C319.278 260.636 319.55 260.896 319.894 261.087C320.246 261.27 320.646 261.362 321.093 261.362C321.445 261.362 321.772 261.3 322.072 261.175C322.38 261.05 322.644 260.86 322.864 260.603L323.304 261.109C323.048 261.417 322.725 261.652 322.336 261.813C321.955 261.974 321.533 262.055 321.071 262.055Z" fill="black"/>
<path d="M221.298 10V2.3H221.969L225.489 8.306H225.137L228.624 2.3H229.295V10H228.514V3.521H228.701L225.489 9.021H225.104L221.87 3.521H222.079V10H221.298ZM235.289 10V8.724L235.256 8.515V6.381C235.256 5.88967 235.116 5.512 234.838 5.248C234.566 4.984 234.159 4.852 233.617 4.852C233.243 4.852 232.887 4.91433 232.55 5.039C232.212 5.16367 231.926 5.32867 231.692 5.534L231.34 4.951C231.633 4.70167 231.985 4.511 232.396 4.379C232.806 4.23967 233.239 4.17 233.694 4.17C234.442 4.17 235.017 4.357 235.421 4.731C235.831 5.09767 236.037 5.65867 236.037 6.414V10H235.289ZM233.298 10.055C232.865 10.055 232.487 9.98533 232.165 9.846C231.849 9.69933 231.607 9.50133 231.439 9.252C231.27 8.99533 231.186 8.702 231.186 8.372C231.186 8.07133 231.255 7.8 231.395 7.558C231.541 7.30867 231.776 7.11067 232.099 6.964C232.429 6.81 232.869 6.733 233.419 6.733H235.41V7.316H233.441C232.883 7.316 232.495 7.415 232.275 7.613C232.062 7.811 231.956 8.05667 231.956 8.35C231.956 8.68 232.084 8.944 232.341 9.142C232.597 9.34 232.957 9.439 233.419 9.439C233.859 9.439 234.236 9.34 234.552 9.142C234.874 8.93667 235.109 8.64333 235.256 8.262L235.432 8.801C235.285 9.18233 235.028 9.48667 234.662 9.714C234.302 9.94133 233.848 10.055 233.298 10.055ZM241.911 9.318L241.735 9.527V4.225H242.516V9.527L242.307 9.318H245.53L245.321 9.527V4.225H246.102V10H238.116V4.225H238.897V9.527L238.699 9.318H241.911ZM248.321 10V4.225H249.102V8.812L252.963 4.225H253.656V10H252.875V5.402L249.025 10H248.321ZM255.894 10V4.225H256.675V6.777H260.316V4.225H261.097V10H260.316V7.448H256.675V10H255.894ZM265.693 10.055C265.136 10.055 264.633 9.93033 264.186 9.681C263.746 9.42433 263.398 9.076 263.141 8.636C262.884 8.18867 262.756 7.679 262.756 7.107C262.756 6.52767 262.884 6.018 263.141 5.578C263.398 5.138 263.746 4.79333 264.186 4.544C264.626 4.29467 265.128 4.17 265.693 4.17C266.265 4.17 266.771 4.29467 267.211 4.544C267.658 4.79333 268.007 5.138 268.256 5.578C268.513 6.018 268.641 6.52767 268.641 7.107C268.641 7.679 268.513 8.18867 268.256 8.636C268.007 9.076 267.658 9.42433 267.211 9.681C266.764 9.93033 266.258 10.055 265.693 10.055ZM265.693 9.362C266.111 9.362 266.481 9.27033 266.804 9.087C267.127 8.89633 267.38 8.63233 267.563 8.295C267.754 7.95033 267.849 7.55433 267.849 7.107C267.849 6.65233 267.754 6.25633 267.563 5.919C267.38 5.58167 267.127 5.32133 266.804 5.138C266.481 4.94733 266.115 4.852 265.704 4.852C265.293 4.852 264.927 4.94733 264.604 5.138C264.281 5.32133 264.025 5.58167 263.834 5.919C263.643 6.25633 263.548 6.65233 263.548 7.107C263.548 7.55433 263.643 7.95033 263.834 8.295C264.025 8.63233 264.281 8.89633 264.604 9.087C264.927 9.27033 265.29 9.362 265.693 9.362ZM272.73 10.055C272.158 10.055 271.645 9.93033 271.19 9.681C270.743 9.42433 270.391 9.076 270.134 8.636C269.878 8.18867 269.749 7.679 269.749 7.107C269.749 6.52767 269.878 6.018 270.134 5.578C270.391 5.138 270.743 4.79333 271.19 4.544C271.645 4.29467 272.158 4.17 272.73 4.17C273.222 4.17 273.665 4.26533 274.061 4.456C274.457 4.64667 274.769 4.93267 274.996 5.314L274.413 5.71C274.215 5.41667 273.97 5.20033 273.676 5.061C273.383 4.92167 273.064 4.852 272.719 4.852C272.309 4.852 271.938 4.94733 271.608 5.138C271.278 5.32133 271.018 5.58167 270.827 5.919C270.637 6.25633 270.541 6.65233 270.541 7.107C270.541 7.56167 270.637 7.95767 270.827 8.295C271.018 8.63233 271.278 8.89633 271.608 9.087C271.938 9.27033 272.309 9.362 272.719 9.362C273.064 9.362 273.383 9.29233 273.676 9.153C273.97 9.01367 274.215 8.801 274.413 8.515L274.996 8.911C274.769 9.285 274.457 9.571 274.061 9.769C273.665 9.95967 273.222 10.055 272.73 10.055ZM277.501 10V4.698L277.699 4.907H275.312V4.225H280.471V4.907H278.084L278.282 4.698V10H277.501ZM284.581 10.055C284.083 10.055 283.632 9.94133 283.228 9.714C282.825 9.47933 282.502 9.14567 282.26 8.713C282.026 8.273 281.908 7.73767 281.908 7.107C281.908 6.47633 282.026 5.94467 282.26 5.512C282.495 5.072 282.814 4.73833 283.217 4.511C283.621 4.28367 284.075 4.17 284.581 4.17C285.131 4.17 285.623 4.29467 286.055 4.544C286.495 4.786 286.84 5.13067 287.089 5.578C287.339 6.018 287.463 6.52767 287.463 7.107C287.463 7.69367 287.339 8.207 287.089 8.647C286.84 9.087 286.495 9.43167 286.055 9.681C285.623 9.93033 285.131 10.055 284.581 10.055ZM281.6 12.134V4.225H282.348V5.963L282.271 7.118L282.381 8.284V12.134H281.6ZM284.526 9.362C284.937 9.362 285.304 9.27033 285.626 9.087C285.949 8.89633 286.206 8.63233 286.396 8.295C286.587 7.95033 286.682 7.55433 286.682 7.107C286.682 6.65967 286.587 6.26733 286.396 5.93C286.206 5.59267 285.949 5.32867 285.626 5.138C285.304 4.94733 284.937 4.852 284.526 4.852C284.116 4.852 283.745 4.94733 283.415 5.138C283.093 5.32867 282.836 5.59267 282.645 5.93C282.462 6.26733 282.37 6.65967 282.37 7.107C282.37 7.55433 282.462 7.95033 282.645 8.295C282.836 8.63233 283.093 8.89633 283.415 9.087C283.745 9.27033 284.116 9.362 284.526 9.362ZM291.517 10.055C290.96 10.055 290.458 9.93033 290.01 9.681C289.57 9.42433 289.222 9.076 288.965 8.636C288.709 8.18867 288.58 7.679 288.58 7.107C288.58 6.52767 288.709 6.018 288.965 5.578C289.222 5.138 289.57 4.79333 290.01 4.544C290.45 4.29467 290.953 4.17 291.517 4.17C292.089 4.17 292.595 4.29467 293.035 4.544C293.483 4.79333 293.831 5.138 294.08 5.578C294.337 6.018 294.465 6.52767 294.465 7.107C294.465 7.679 294.337 8.18867 294.08 8.636C293.831 9.076 293.483 9.42433 293.035 9.681C292.588 9.93033 292.082 10.055 291.517 10.055ZM291.517 9.362C291.935 9.362 292.306 9.27033 292.628 9.087C292.951 8.89633 293.204 8.63233 293.387 8.295C293.578 7.95033 293.673 7.55433 293.673 7.107C293.673 6.65233 293.578 6.25633 293.387 5.919C293.204 5.58167 292.951 5.32133 292.628 5.138C292.306 4.94733 291.939 4.852 291.528 4.852C291.118 4.852 290.751 4.94733 290.428 5.138C290.106 5.32133 289.849 5.58167 289.658 5.919C289.468 6.25633 289.372 6.65233 289.372 7.107C289.372 7.55433 289.468 7.95033 289.658 8.295C289.849 8.63233 290.106 8.89633 290.428 9.087C290.751 9.27033 291.114 9.362 291.517 9.362ZM298.609 10.055C298.008 10.055 297.48 9.93033 297.025 9.681C296.571 9.42433 296.215 9.076 295.958 8.636C295.702 8.18867 295.573 7.679 295.573 7.107C295.573 6.535 295.694 6.029 295.936 5.589C296.186 5.149 296.523 4.80433 296.948 4.555C297.381 4.29833 297.865 4.17 298.4 4.17C298.943 4.17 299.423 4.29467 299.841 4.544C300.267 4.786 300.6 5.13067 300.842 5.578C301.084 6.018 301.205 6.52767 301.205 7.107C301.205 7.14367 301.202 7.184 301.194 7.228C301.194 7.26467 301.194 7.305 301.194 7.349H296.167V6.766H300.776L300.468 6.997C300.468 6.579 300.377 6.20867 300.193 5.886C300.017 5.556 299.775 5.29933 299.467 5.116C299.159 4.93267 298.804 4.841 298.4 4.841C298.004 4.841 297.649 4.93267 297.333 5.116C297.018 5.29933 296.772 5.556 296.596 5.886C296.42 6.216 296.332 6.59367 296.332 7.019V7.14C296.332 7.58 296.428 7.96867 296.618 8.306C296.816 8.636 297.088 8.89633 297.432 9.087C297.784 9.27033 298.184 9.362 298.631 9.362C298.983 9.362 299.31 9.29967 299.61 9.175C299.918 9.05033 300.182 8.85967 300.402 8.603L300.842 9.109C300.586 9.417 300.263 9.65167 299.874 9.813C299.493 9.97433 299.071 10.055 298.609 10.055ZM302.934 10V4.225H303.715V6.777H307.356V4.225H308.137V10H307.356V7.448H303.715V10H302.934ZM310.357 10V4.225H311.138V8.812L314.999 4.225H315.692V10H314.911V5.402L311.061 10H310.357ZM320.405 10.055C319.804 10.055 319.276 9.93033 318.821 9.681C318.367 9.42433 318.011 9.076 317.754 8.636C317.498 8.18867 317.369 7.679 317.369 7.107C317.369 6.535 317.49 6.029 317.732 5.589C317.982 5.149 318.319 4.80433 318.744 4.555C319.177 4.29833 319.661 4.17 320.196 4.17C320.739 4.17 321.219 4.29467 321.637 4.544C322.063 4.786 322.396 5.13067 322.638 5.578C322.88 6.018 323.001 6.52767 323.001 7.107C323.001 7.14367 322.998 7.184 322.99 7.228C322.99 7.26467 322.99 7.305 322.99 7.349H317.963V6.766H322.572L322.264 6.997C322.264 6.579 322.173 6.20867 321.989 5.886C321.813 5.556 321.571 5.29933 321.263 5.116C320.955 4.93267 320.6 4.841 320.196 4.841C319.8 4.841 319.445 4.93267 319.129 5.116C318.814 5.29933 318.568 5.556 318.392 5.886C318.216 6.216 318.128 6.59367 318.128 7.019V7.14C318.128 7.58 318.224 7.96867 318.414 8.306C318.612 8.636 318.884 8.89633 319.228 9.087C319.58 9.27033 319.98 9.362 320.427 9.362C320.779 9.362 321.106 9.29967 321.406 9.175C321.714 9.05033 321.978 8.85967 322.198 8.603L322.638 9.109C322.382 9.417 322.059 9.65167 321.67 9.813C321.289 9.97433 320.867 10.055 320.405 10.055Z" fill="black"/>
</svg>
