<svg width="405" height="460" viewBox="0 0 405 460" fill="none" xmlns="http://www.w3.org/2000/svg">
<g clip-path="url(#clip0_590_1077)">
<g clip-path="url(#clip1_590_1077)">
<path d="M108.049 392.061C108.049 392.061 108.049 392.051 108.049 392.041C108.049 392.041 108.049 392.051 108.049 392.061ZM-637.461 323.601C-637.461 323.601 -637.461 323.601 -637.461 323.551C-637.471 323.571 -637.471 323.591 -637.461 323.601ZM-742.431 295.081C-742.431 295.081 -742.411 295.081 -742.411 295.071C-742.411 295.071 -742.431 295.071 -742.431 295.081ZM69.7792 -170.249C68.1892 -168.789 67.0691 -167.279 64.1891 -165.409C61.5291 -163.679 60.3492 -163.299 60.1492 -160.139C60.0792 -159.029 61.3192 -157.559 61.2692 -156.829C61.1392 -155.059 60.0792 -154.279 59.8292 -153.389C59.8092 -153.319 59.5492 -153.449 59.2092 -153.559C58.5092 -153.789 57.4791 -153.939 57.5391 -152.119C57.6591 -148.779 61.2191 -148.849 63.1591 -148.779C63.8191 -148.759 69.1592 -150.129 68.1492 -150.719C74.1492 -147.209 58.4691 -140.989 55.2191 -145.519C55.7991 -142.649 55.1591 -142.009 53.3091 -143.589C52.4391 -144.079 51.5591 -144.179 50.6591 -143.889C50.5891 -143.789 45.7491 -139.469 50.1191 -139.819C50.3591 -139.399 48.8992 -139.439 47.5292 -139.489C46.5392 -139.529 45.6091 -139.589 45.4191 -139.489C44.4291 -138.999 41.2992 -135.019 40.3792 -134.009C40.4492 -134.089 40.1692 -133.309 39.8992 -132.539C39.6292 -131.759 39.3492 -130.979 39.4492 -131.069C39.1592 -130.779 38.5492 -130.859 37.9592 -130.949C37.4092 -131.039 36.8691 -131.129 36.6591 -130.909C35.3691 -129.599 35.4691 -128.669 34.1091 -127.519C33.4891 -126.989 32.3691 -127.069 31.6191 -126.389C29.3491 -124.359 28.5792 -122.019 26.6492 -120.289C24.6892 -118.539 22.1691 -117.999 20.2991 -115.219C17.9391 -111.709 13.5692 -108.279 10.8992 -103.679C7.58917 -97.9792 9.02913 -90.1492 5.60913 -85.3092C4.09913 -83.1592 0.579145 -79.7792 1.49915 -77.5892C1.37915 -77.8792 3.03912 -76.9492 4.59912 -75.9992C6.03912 -75.1292 7.38913 -74.2392 7.22913 -74.2592C7.73913 -74.2092 8.46913 -74.7892 9.35913 -75.3992C10.3591 -76.0892 11.5592 -76.8292 12.8892 -76.7792C15.8392 -76.6792 20.1192 -74.4292 20.0892 -71.3292C20.0592 -67.2292 6.93915 -61.1992 2.99915 -64.3192C4.28915 -66.1492 8.19912 -66.2692 6.96912 -69.3892C5.65912 -72.7292 0.88917 -69.6892 0.14917 -67.6692C-0.92083 -64.7492 2.24914 -64.2492 3.11914 -61.6692C4.34914 -58.0292 3.48915 -54.4892 1.62915 -51.2892C0.11915 -48.6992 -2.84084 -47.7292 -4.05084 -45.6592C-4.74084 -44.4892 -3.83087 -43.4992 -4.33087 -42.2992C-6.29087 -37.4892 -5.03085 -29.3492 -12.1808 -28.1092C-15.4808 -27.5392 -17.2809 -30.6692 -20.0909 -31.5392C-24.4009 -32.8592 -26.7009 -31.5792 -30.3309 -29.1392C-35.7809 -25.4692 -40.7409 -20.7192 -42.7509 -14.2192C-43.7909 -10.8492 -42.9409 -5.64919 -46.6509 -3.64919C-48.2909 -2.75919 -49.9009 -3.1492 -51.5309 -3.5192C-52.9109 -3.8392 -54.3108 -4.14919 -55.7908 -3.68919C-57.5008 -3.15919 -61.7109 2.99081 -63.6509 1.94081C-67.0909 0.0808111 -63.5509 -2.51919 -64.3409 -4.90919C-69.0909 -6.45919 -73.9408 -0.0491912 -77.3708 2.25081C-80.1908 4.14081 -84.2509 5.20081 -87.3109 7.52081C-89.1309 8.90081 -90.6208 10.5808 -92.3508 12.0808C-93.6708 13.2208 -99.3909 15.9108 -100.211 16.9908C-103.421 21.1808 -97.8409 17.8208 -98.6309 23.6608C-99.8009 23.7408 -101.771 20.7008 -102.361 23.4208C-102.661 24.8008 -101.661 30.3208 -99.7809 30.4808C-99.6909 29.1408 -99.2308 28.0108 -98.4108 27.0808C-97.5708 26.9108 -95.5509 32.6508 -95.3309 32.8708C-93.5609 34.7108 -90.5409 34.1208 -88.6509 35.7908C-90.3509 36.8508 -100.751 38.0808 -99.7408 41.6608C-99.3508 43.0308 -93.1208 44.4008 -95.5508 45.8008C-96.6808 46.4508 -98.0708 45.9808 -99.6008 45.5308C-101.431 45.0008 -103.451 44.5108 -105.411 46.0708C-108.921 48.8808 -105.771 53.1808 -107.901 55.3308C-110.621 58.0708 -114.671 54.1408 -116.801 54.1308C-119.721 54.1108 -119.271 52.2408 -119.501 56.6208C-119.671 59.8908 -112.511 68.6508 -114.431 71.1008C-114.581 71.1908 -115.151 71.0208 -115.801 70.8708C-117.001 70.5908 -118.451 70.3608 -117.761 71.9608C-122.861 72.7508 -128.551 67.6208 -131.681 64.6408C-131.881 64.4508 -132.191 64.5308 -132.551 64.6308C-133.201 64.8008 -134.001 65.0008 -134.581 63.6908C-135.201 62.2708 -133.311 61.1808 -133.531 60.4308C-134.571 56.8108 -135.941 56.4208 -138.181 54.0008C-141.291 50.6408 -142.041 47.0408 -147.521 46.1308C-148.991 45.8908 -151.511 45.8808 -152.891 46.6608C-154.361 47.4908 -154.141 48.9508 -154.791 49.3808C-155.861 50.0908 -163.881 53.0808 -165.341 48.8008C-165.831 49.0508 -168.221 54.9808 -168.201 55.4108C-168.091 58.6308 -164.301 58.3308 -163.631 61.3308C-162.471 66.5008 -165.171 63.4508 -166.741 63.2808C-168.141 63.1308 -167.051 65.5908 -168.051 65.8608C-169.351 66.2208 -171.241 66.5608 -172.821 66.7708C-175.011 67.0508 -177.711 67.6008 -179.851 67.0208C-181.361 66.6108 -182.041 64.2208 -183.461 63.9208C-187.631 63.0308 -192.001 65.1608 -196.231 67.2608C-199.541 68.9008 -202.761 70.5208 -205.721 70.6508C-207.161 70.7108 -207.691 68.9208 -209.281 69.1108C-210.041 69.2008 -209.691 70.8908 -209.521 70.8608C-209.551 70.8608 -209.891 72.3008 -211.271 72.4108C-213.351 72.5808 -213.951 70.6708 -215.091 70.4708C-216.771 70.1808 -223.791 70.7008 -221.291 75.9908C-220.861 76.9208 -219.871 76.0208 -218.791 75.0908C-217.661 74.1208 -216.431 73.1408 -215.631 74.1908C-220.251 79.8308 -224.751 87.3308 -232.741 87.7908C-231.971 85.2008 -231.211 82.6008 -230.441 80.0108C-229.701 79.8308 -228.951 79.7408 -228.181 79.7508C-226.401 76.9408 -224.371 73.2208 -223.331 70.0208C-222.671 67.9908 -223.551 66.2808 -222.241 64.2908C-221.471 63.1208 -220.811 63.1408 -220.141 63.1608C-219.631 63.1708 -219.111 63.1808 -218.541 62.6608C-215.721 60.0508 -215.451 58.4608 -214.441 54.9908C-214.261 54.3508 -212.541 48.6808 -212.661 48.4108C-213.541 46.3008 -217.391 46.5308 -217.571 44.0908C-214.781 42.4408 -213.451 44.2508 -216.141 39.6108C-215.981 39.8808 -216.911 38.8708 -217.971 37.8808C-219.291 36.6508 -220.831 35.4808 -220.731 36.9008C-223.911 32.6708 -226.871 30.4108 -231.701 31.7008C-233.361 32.1408 -237.981 34.2008 -239.721 34.9708C-241.871 35.9208 -237.961 39.4308 -243.861 38.0208C-244.531 34.0608 -241.141 33.8708 -245.081 32.1908C-246.151 31.7408 -251.781 33.8008 -252.571 32.3708C-254.171 29.4708 -245.331 27.6908 -252.861 25.0708C-257.151 23.5808 -257.311 24.8308 -259.751 27.9108C-262.841 31.8008 -263.961 34.3908 -264.031 39.0208C-264.061 40.7708 -261.551 40.8708 -263.691 43.7008C-264.941 45.3508 -266.201 45.0508 -267.521 44.7608C-268.521 44.5408 -269.541 44.3308 -270.611 44.9708C-270.061 47.2008 -267.471 47.9508 -266.551 49.9508C-266.621 49.8908 -275.751 47.0408 -274.101 52.7308C-275.671 51.9608 -276.281 52.3908 -277.111 52.8708C-277.731 53.2308 -278.471 53.6208 -279.831 53.5508C-279.851 51.5308 -276.171 49.4708 -276.811 47.6608C-277.581 45.4808 -284.071 52.3708 -284.401 52.5608C-284.931 52.8608 -285.661 52.8808 -286.461 52.9208C-287.351 52.9708 -288.311 53.0308 -289.151 53.5108C-290.071 54.0408 -289.171 55.7408 -289.421 55.9708C-290.871 57.2408 -294.321 58.7608 -295.971 59.4008C-298.741 60.4608 -301.641 60.5608 -304.131 62.3108C-304.301 62.4308 -304.581 62.2608 -304.881 62.0908C-305.211 61.9108 -305.581 61.7308 -305.861 61.9608C-306.871 62.7908 -306.611 64.9408 -307.651 65.7108C-308.201 66.1208 -309.361 66.3208 -310.511 66.5108C-311.911 66.7508 -313.301 66.9908 -313.581 67.6108C-313.441 68.2808 -313.091 68.6908 -312.521 68.8308C-313.791 68.7508 -313.821 69.3908 -312.601 70.7608C-314.981 69.7108 -315.721 70.2508 -314.841 72.3608C-316.081 71.4808 -322.731 70.4108 -317.801 73.9908C-318.991 74.1408 -320.021 74.6308 -320.891 75.4708C-321.291 77.7608 -318.781 76.5908 -317.111 75.6108C-316.321 75.1508 -315.721 74.7308 -315.701 74.7408C-315.111 75.5308 -314.721 76.4308 -314.541 77.4408C-315.761 77.0208 -316.921 77.1408 -318.021 77.8008C-318.141 79.3908 -312.351 82.1308 -312.561 83.2508C-312.841 84.7408 -316.581 85.4008 -319.171 85.7808C-320.151 85.9208 -320.961 86.0308 -321.351 86.1308C-326.851 87.4908 -333.561 86.5708 -339.231 87.4908C-345.121 88.4508 -344.121 93.5108 -343.431 98.9708C-343.041 102.051 -342.771 104.141 -341.161 106.781C-340.211 108.351 -336.571 108.761 -337.561 111.491C-340.171 118.731 -347.471 106.691 -349.141 105.781C-349.951 105.151 -350.751 104.531 -351.561 103.901C-352.651 104.741 -353.871 105.101 -355.241 104.971C-355.991 104.351 -355.871 103.151 -355.561 103.451C-355.291 103.701 -354.581 101.171 -355.691 100.251C-357.171 99.0208 -360.571 102.741 -361.491 103.451C-360.811 104.421 -358.301 103.471 -357.891 104.441C-357.211 106.071 -359.371 106.101 -359.041 107.261C-359.011 107.361 -353.261 109.511 -357.231 110.391C-360.041 111.011 -362.121 106.041 -364.741 107.271C-372.091 110.721 -357.681 119.611 -358.691 123.901C-358.531 123.231 -369.811 118.131 -370.561 116.611C-371.441 114.801 -370.381 111.511 -369.271 109.271C-366.961 104.611 -365.281 103.731 -366.001 98.2208C-366.241 96.4008 -367.091 90.3808 -369.241 89.6308C-371.271 88.9108 -369.191 95.2808 -369.191 95.5308C-369.221 99.7408 -370.031 101.711 -372.951 104.561C-378.971 110.451 -381.021 110.391 -380.241 120.081C-379.781 125.771 -380.901 127.781 -383.211 133.151C-384.431 135.991 -387.491 143.071 -386.351 145.761C-384.901 149.181 -383.511 148.671 -381.511 148.011C-380.541 147.691 -379.441 147.341 -378.111 147.381C-373.431 147.531 -369.511 152.491 -368.071 156.611C-367.551 158.091 -367.461 163.381 -368.041 164.851C-368.301 165.511 -368.881 165.631 -369.471 165.761C-370.071 165.891 -370.681 166.011 -370.951 166.721C-374.451 175.641 -364.751 170.161 -364.751 176.731C-366.391 177.211 -372.571 173.971 -373.331 172.851C-376.141 168.681 -371.161 163.201 -371.751 158.751C-372.511 152.991 -375.361 152.991 -379.581 153.011C-385.391 153.041 -385.261 153.601 -385.921 159.391C-386.931 168.281 -392.981 176.211 -399.771 180.201C-402.751 181.951 -406.261 186.371 -409.681 185.991C-414.021 185.501 -419.081 180.401 -421.011 176.781C-419.731 176.611 -419.271 179.871 -417.921 178.961C-416.001 177.671 -418.531 174.651 -414.701 177.421C-415.131 180.131 -416.701 179.001 -413.031 179.471C-413.621 179.391 -408.601 178.011 -408.061 177.741C-407.311 177.371 -404.961 174.171 -404.261 173.411C-402.391 171.371 -399.351 168.971 -397.661 166.651C-395.951 164.291 -391.891 158.181 -391.261 155.521C-390.271 151.391 -394.001 149.541 -393.641 145.311C-393.351 141.871 -389.961 137.911 -389.171 135.141C-388.491 132.771 -389.041 129.781 -388.001 127.401C-386.161 123.191 -384.591 122.941 -385.001 117.961C-385.161 116.031 -386.851 111.711 -386.411 109.871C-385.621 106.561 -380.451 102.421 -379.171 98.3808C-377.721 93.7908 -377.381 90.4008 -383.081 87.5408C-390.291 83.9108 -393.931 88.5208 -397.481 94.5808C-400.721 100.121 -404.901 100.841 -409.181 105.091C-410.161 106.071 -414.351 111.611 -413.341 112.671C-406.781 110.981 -420.591 128.111 -418.901 130.661C-418.341 131.511 -414.521 130.541 -413.541 133.171C-413.111 134.321 -415.411 135.241 -415.071 136.481C-414.571 138.371 -412.141 142.641 -412.311 144.401C-412.391 145.251 -416.171 150.821 -417.071 150.451C-420.021 149.221 -420.561 142.801 -421.791 140.521C-423.931 136.541 -426.941 132.371 -429.481 128.731C-433.901 122.411 -437.861 116.521 -445.031 112.391C-445.041 113.771 -446.611 114.121 -448.141 114.461C-449.191 114.691 -450.231 114.921 -450.731 115.491C-451.411 116.251 -451.311 120.271 -452.051 121.641C-452.611 122.681 -452.741 123.131 -452.721 123.301C-453.051 123.431 -453.851 123.901 -455.621 125.251C-455.801 125.381 -460.021 128.761 -460.001 128.751C-460.841 128.951 -459.151 122.261 -460.821 120.681C-462.831 118.781 -465.991 119.591 -468.271 119.721C-468.881 119.761 -469.161 120.101 -469.441 120.451C-469.791 120.881 -470.121 121.311 -471.071 121.131C-471.921 120.971 -474.591 117.391 -475.851 116.861C-479.991 115.101 -481.031 116.791 -482.231 118.511C-482.961 119.561 -483.761 120.631 -485.351 120.931C-486.051 119.651 -486.271 118.301 -486.001 116.861C-487.711 116.761 -488.881 115.901 -489.511 114.251C-489.351 114.101 -488.741 114.271 -488.131 114.441C-487.521 114.611 -486.921 114.791 -486.841 114.651C-486.241 113.581 -486.441 111.841 -485.511 111.051C-484.871 110.511 -480.711 107.351 -480.371 107.711C-481.171 106.851 -487.161 106.231 -487.721 106.321C-488.401 106.441 -489.431 107.061 -490.291 107.651C-491.101 108.211 -491.751 108.721 -491.761 108.721C-494.131 108.971 -493.891 107.461 -496.921 105.981C-499.181 104.881 -502.651 105.741 -504.871 105.821C-508.481 105.961 -512.461 105.101 -515.311 105.291C-515.561 105.311 -515.531 106.021 -515.621 106.751C-515.721 107.551 -515.961 108.371 -516.831 108.401C-517.811 108.431 -518.511 105.861 -519.711 105.971C-521.551 106.151 -522.861 107.501 -524.181 108.841C-525.501 110.181 -526.831 111.521 -528.711 111.731C-530.371 111.911 -534.821 108.221 -535.511 106.761C-535.681 106.411 -536.011 99.6308 -535.921 99.3908C-534.081 94.8708 -531.101 95.7208 -528.231 96.6008C-525.701 97.3708 -523.251 98.1608 -521.721 95.3308C-521.141 94.2608 -520.581 87.3508 -520.991 85.9408C-521.831 83.0608 -524.931 81.0808 -526.801 79.2608C-528.721 77.4008 -527.201 74.1308 -529.241 78.5408C-529.901 79.9708 -529.051 82.3408 -529.851 84.0908C-530.671 85.8608 -533.371 87.5308 -534.681 88.6908C-536.351 90.1608 -538.941 91.4308 -540.051 93.3708C-540.861 94.7908 -540.381 96.8408 -540.801 97.7408C-542.041 100.341 -550.801 106.931 -550.551 108.781C-553.321 107.261 -552.141 99.7208 -554.961 97.9808C-556.341 97.1308 -556.481 97.2708 -556.811 97.4708C-557.111 97.6408 -557.571 97.8508 -559.221 97.4208C-560.201 97.1608 -565.411 96.5208 -566.541 96.5108C-569.881 96.4708 -575.041 96.0208 -577.621 98.9308C-579.451 101.001 -578.631 106.001 -581.001 107.731C-581.861 108.361 -582.071 108.311 -582.271 108.251C-582.481 108.191 -582.671 108.141 -583.581 108.851C-584.821 107.011 -585.071 107.411 -585.371 107.831C-585.631 108.191 -585.921 108.551 -586.871 107.551C-587.311 107.091 -589.551 99.8108 -589.811 98.8808C-589.641 99.4708 -589.631 90.9408 -590.091 90.5408C-591.331 89.4808 -591.581 89.7808 -591.941 90.1108C-592.161 90.3108 -592.431 90.5208 -593.001 90.4408C-594.961 90.1508 -595.841 88.6308 -597.711 90.6308C-597.221 92.5308 -597.331 94.3908 -598.041 96.2008C-598.841 97.7908 -598.421 98.9408 -596.771 99.6508C-597.031 101.511 -597.951 106.741 -600.671 107.321C-604.611 108.161 -605.171 99.2208 -605.401 96.8508C-604.671 95.5908 -604.311 94.2108 -604.321 92.7008C-604.851 91.1108 -605.631 89.6708 -606.671 88.3708C-605.971 85.3708 -603.331 84.7308 -601.831 82.3608C-600.761 80.6708 -600.541 77.0308 -599.311 75.7408C-597.051 73.3608 -593.881 74.4808 -591.491 71.4208C-588.881 68.0908 -590.181 64.4108 -589.441 60.6508C-588.581 56.2108 -586.041 52.0508 -584.961 47.6008C-583.891 48.5308 -583.351 62.2908 -584.091 62.8208C-580.201 62.6208 -582.981 66.2508 -582.581 67.3608C-581.691 69.8508 -580.951 71.5508 -579.701 73.9508C-576.941 79.2408 -577.781 82.0908 -573.161 86.0008C-564.031 93.7208 -551.911 90.0308 -548.541 78.0508C-547.021 72.6208 -549.501 66.6008 -549.391 61.1108C-549.271 54.8808 -547.661 50.1808 -549.361 43.8208C-549.961 41.5908 -550.721 38.2608 -551.901 36.3008C-552.161 35.8608 -555.471 31.6808 -555.671 31.9108C-555.591 31.1508 -554.901 23.3308 -555.251 22.6708C-554.541 23.1008 -550.481 29.5108 -552.421 22.2308C-552.981 20.1508 -552.241 20.9208 -553.541 19.2908C-554.951 19.8808 -556.091 19.5508 -556.941 18.3008C-557.191 17.4308 -557.491 16.5908 -557.851 15.7608C-558.141 16.4908 -558.611 17.0108 -559.261 17.3308C-560.181 17.1108 -559.891 14.3008 -560.471 14.1208C-561.151 13.9108 -561.501 14.2008 -561.821 14.4808C-562.151 14.7708 -562.461 15.0508 -563.081 14.8008C-564.961 14.0508 -570.551 11.8208 -572.471 12.2408C-573.971 12.5708 -579.361 15.8508 -580.431 16.9808C-583.151 19.8608 -582.441 24.8508 -584.531 28.3808C-583.731 30.9208 -584.361 32.0508 -586.431 31.7708C-588.051 32.0708 -589.691 32.1108 -591.341 31.8908C-593.761 32.2408 -594.401 32.0608 -596.611 33.6208C-601.021 36.7408 -602.091 42.9708 -605.581 46.8308C-608.011 49.5208 -610.251 50.0308 -612.571 51.2508C-615.101 52.5708 -615.961 52.6508 -617.871 54.8608C-618.161 55.2008 -620.281 55.6308 -621.011 56.4308C-621.371 56.8308 -621.961 60.0508 -622.161 60.4508C-622.771 61.6308 -625.321 67.4508 -626.791 68.4308C-628.031 69.2608 -629.151 69.2108 -630.171 69.1508C-631.331 69.0808 -632.371 68.9808 -633.351 70.0908C-634.151 71.0008 -633.281 75.6808 -633.661 76.9308C-634.151 78.5508 -635.571 80.7308 -636.551 82.0008C-641.211 88.1008 -652.821 89.4108 -660.561 89.0308C-665.431 88.7908 -670.221 85.8608 -675.131 86.2808C-685.151 87.1508 -675.451 87.4108 -675.911 91.0608C-684.471 92.5108 -674.671 102.481 -677.951 106.361C-679.441 108.121 -680.361 101.541 -681.151 100.461C-681.921 99.4208 -687.521 98.0908 -687.791 97.5708C-687.501 96.7408 -687.371 95.8908 -687.391 95.0008C-689.561 95.6308 -689.741 97.7508 -691.541 98.8608C-692.551 99.4808 -693.661 99.7408 -694.781 100.001C-695.951 100.271 -697.121 100.551 -698.191 101.231C-699.511 102.071 -700.411 103.821 -701.741 104.591C-702.641 105.121 -706.471 106.431 -706.771 106.851C-708.381 109.051 -706.271 114.491 -710.191 114.341C-712.591 114.251 -712.761 108.811 -717.061 110.161C-716.931 110.121 -718.051 118.131 -718.741 119.031C-718.931 119.271 -719.491 119.241 -720.141 119.221C-720.981 119.201 -721.971 119.221 -722.491 119.911C-724.071 122.001 -723.061 122.651 -724.151 124.561C-725.531 126.981 -729.461 129.201 -730.211 131.881C-731.411 136.101 -727.001 137.511 -726.591 140.331C-726.481 141.121 -727.951 144.161 -728.081 143.861C-728.291 144.291 -728.501 144.721 -728.711 145.151C-728.061 145.971 -727.231 146.311 -726.221 146.181C-725.461 147.861 -722.941 150.961 -723.541 154.361C-724.461 159.521 -728.541 161.921 -732.711 163.081C-731.881 162.851 -734.401 171.651 -734.601 172.361C-735.141 174.291 -736.221 177.791 -736.441 179.671C-736.541 180.521 -737.661 182.141 -737.821 183.011C-737.901 183.431 -736.231 184.011 -736.251 184.641C-736.251 185.061 -736.891 190.671 -736.891 190.671C-741.861 196.191 -745.391 188.651 -747.521 184.911C-749.921 186.031 -750.441 189.621 -751.861 191.801C-753.301 194.011 -755.831 195.321 -756.191 198.011C-756.361 199.281 -756.181 202.551 -754.811 203.411C-752.091 205.111 -753.211 202.741 -751.471 201.351C-751.351 201.261 -744.311 210.101 -744.001 211.671C-743.611 213.631 -744.061 214.531 -744.431 216.761C-744.561 217.521 -744.641 221.001 -745.061 221.661C-745.691 222.641 -746.441 222.321 -747.041 221.971C-747.481 221.711 -747.851 221.441 -748.031 221.641C-753.221 227.441 -749.521 227.711 -747.951 232.491C-746.691 236.351 -749.291 238.631 -750.821 242.251C-752.371 245.921 -750.701 250.611 -747.701 254.041C-746.001 255.981 -741.361 255.961 -740.261 258.341C-739.531 259.921 -741.681 263.311 -741.471 265.231C-740.911 270.171 -739.971 266.601 -738.611 268.501C-737.531 270.011 -737.101 272.491 -736.581 273.701C-735.111 277.111 -733.081 280.851 -733.761 283.231C-734.041 284.221 -729.631 285.991 -729.031 286.721C-728.641 287.201 -732.221 287.881 -732.431 287.891C-730.171 290.261 -732.741 290.541 -734.471 290.611C-735.121 290.641 -735.651 290.641 -735.761 290.711C-735.861 290.771 -736.151 290.711 -736.511 290.671C-737.041 290.611 -737.731 290.581 -738.121 291.031C-739.011 292.061 -736.691 293.801 -737.051 295.071C-737.061 295.121 -738.071 295.011 -739.211 294.941C-740.481 294.861 -741.931 294.811 -742.401 295.081C-741.921 294.811 -741.951 295.961 -742.081 297.141C-742.211 298.261 -742.431 299.401 -742.431 299.371C-742.441 299.421 -745.791 304.021 -745.231 303.711C-748.791 305.691 -752.701 300.841 -755.961 299.901C-757.611 299.421 -763.671 298.171 -764.691 302.641C-765.841 307.691 -757.651 305.711 -757.151 308.271C-756.361 312.361 -759.661 311.501 -762.761 310.591C-765.431 309.811 -767.951 308.991 -767.621 311.251C-767.961 308.931 -773.001 305.511 -774.591 308.481C-775.731 310.621 -771.401 316.401 -772.801 318.351C-773.291 319.031 -773.851 318.131 -774.331 317.201C-774.731 316.421 -775.071 315.631 -775.231 315.751C-775.441 316.411 -775.841 316.631 -776.431 316.411C-776.591 315.821 -776.701 315.211 -776.751 314.601C-776.721 314.631 -784.981 318.151 -784.851 318.121C-786.751 318.601 -786.661 320.631 -789.261 318.901C-788.881 319.151 -789.411 317.491 -790.151 315.891C-791.021 314.021 -792.181 312.231 -792.571 313.591C-792.741 314.611 -792.781 315.641 -792.711 316.671C-793.101 315.971 -793.691 315.561 -794.481 315.441C-796.611 316.781 -791.181 329.901 -790.381 332.091C-788.881 336.171 -787.051 343.131 -786.481 347.361C-786.201 349.431 -786.651 362.371 -785.161 362.841C-782.661 363.631 -779.761 363.721 -778.131 366.481C-775.551 370.851 -775.041 374.431 -771.421 378.681C-767.081 383.781 -762.321 388.561 -760.731 395.391C-760.271 397.361 -760.971 400.321 -759.611 401.881C-758.381 403.291 -756.911 402.411 -755.631 403.031C-753.031 404.301 -753.371 404.401 -751.321 406.321C-749.381 408.131 -747.761 409.351 -746.771 412.861C-745.271 418.161 -748.221 417.051 -747.171 421.361C-746.551 423.891 -742.771 427.101 -741.581 429.421C-739.931 432.641 -740.121 435.101 -739.651 438.131C-739.271 440.651 -739.411 442.751 -737.271 444.511C-732.481 448.441 -734.341 444.091 -731.511 443.201C-730.921 443.011 -730.221 443.261 -729.451 443.481C-728.201 443.851 -726.751 444.181 -725.251 442.501C-723.771 440.851 -724.261 436.241 -724.411 432.871C-724.621 428.311 -725.411 423.241 -724.631 418.701C-724.041 415.251 -721.651 413.781 -720.011 411.951C-719.061 410.901 -716.901 409.981 -716.691 408.521C-716.361 406.291 -718.711 408.031 -719.161 406.441C-719.651 404.711 -720.331 398.261 -719.731 396.571C-718.591 393.351 -716.331 393.651 -713.131 391.661C-709.491 389.401 -707.921 387.551 -704.821 384.501C-704.911 384.591 -705.181 388.221 -704.931 388.291C-702.941 388.781 -699.651 386.881 -697.761 386.321C-699.831 386.931 -697.761 389.031 -696.301 389.221C-696.891 389.141 -693.751 388.201 -694.261 388.291C-693.311 388.111 -692.151 387.231 -691.391 387.021C-690.061 386.661 -690.021 388.181 -688.571 387.911C-686.271 387.491 -688.191 382.001 -689.131 379.251C-688.031 380.201 -685.191 377.511 -684.721 376.271C-683.821 373.841 -685.731 370.581 -685.801 368.131C-685.871 365.651 -684.261 364.691 -685.091 361.731C-685.621 359.831 -687.881 357.561 -689.041 356.041C-689.461 355.501 -691.981 355.401 -691.991 355.351C-693.081 351.971 -689.471 349.551 -689.951 346.031C-690.461 342.251 -694.381 342.481 -690.241 338.481C-689.351 337.621 -688.181 337.381 -687.051 337.151C-685.871 336.911 -684.721 336.681 -683.941 335.751C-682.701 334.261 -683.871 333.771 -683.131 332.181C-681.921 329.591 -681.721 327.411 -678.971 325.701C-677.611 324.851 -675.141 324.661 -673.521 323.671C-672.571 323.091 -670.891 319.761 -669.221 319.971C-670.031 319.871 -669.111 328.941 -669.101 329.171C-669.041 330.811 -669.871 331.661 -669.941 332.951C-670.151 336.771 -663.541 334.091 -662.601 333.191C-660.651 331.341 -661.521 326.001 -659.841 324.581C-660.561 325.191 -652.181 326.881 -652.511 327.171C-649.791 324.801 -654.001 324.681 -649.731 323.591C-649.621 323.561 -645.881 324.591 -645.131 324.621C-641.521 324.731 -640.091 323.901 -638.271 321.361C-637.951 320.901 -637.721 321.621 -637.581 322.361C-637.491 322.861 -637.441 323.361 -637.441 323.531C-637.261 323.171 -634.701 322.071 -633.821 322.921C-632.711 323.991 -633.341 325.371 -633.221 325.531C-632.471 326.541 -631.121 329.461 -629.831 329.991C-629.501 330.131 -629.001 329.721 -628.371 329.291C-627.391 328.611 -626.101 327.861 -624.751 329.031C-624.401 329.331 -624.331 333.081 -623.651 333.971C-622.241 335.851 -619.421 334.971 -618.011 336.971C-616.551 339.051 -618.571 339.931 -617.991 341.141C-617.021 343.151 -613.881 343.821 -613.281 344.811C-612.091 346.791 -615.051 346.831 -612.991 349.471C-611.861 350.911 -616.021 353.471 -615.601 354.571C-614.431 357.641 -613.131 355.311 -612.171 353.051C-611.561 351.621 -611.081 350.221 -610.861 350.251C-610.041 350.391 -609.061 352.061 -608.091 352.421C-608.901 352.131 -606.351 359.641 -605.411 360.261C-602.981 361.871 -601.341 360.661 -599.591 359.431C-598.511 358.671 -597.381 357.891 -596.001 357.771C-594.141 357.611 -590.741 361.351 -589.771 362.021C-587.831 363.341 -587.551 366.401 -584.971 362.371C-584.921 362.281 -578.891 365.991 -578.651 366.121C-579.961 365.431 -577.341 372.941 -576.721 374.531C-576.651 374.351 -575.531 375.211 -574.551 376.101C-573.591 376.981 -572.781 377.891 -573.251 377.881C-572.371 378.101 -570.841 378.191 -570.031 378.461C-569.751 377.551 -569.181 376.881 -568.311 376.471C-567.151 376.621 -566.391 377.301 -566.041 378.521C-563.801 379.331 -564.171 381.501 -560.921 381.991C-556.281 382.681 -555.031 379.191 -551.741 377.371C-549.691 376.241 -559.851 366.641 -560.431 365.671C-560.291 365.891 -560.571 364.391 -560.961 362.911C-561.371 361.341 -561.901 359.811 -562.191 360.381C-561.421 358.891 -559.041 359.661 -556.891 359.431C-550.161 358.741 -553.331 357.301 -551.871 352.361C-549.591 344.631 -543.621 352.531 -539.291 353.021C-537.901 353.181 -539.041 351.291 -540.461 349.471C-541.811 347.741 -543.401 346.061 -543.311 346.261C-544.951 342.681 -544.311 342.501 -540.211 342.711C-541.711 341.481 -543.211 340.261 -544.711 339.021C-540.571 339.621 -542.611 337.231 -542.541 335.291C-542.501 334.351 -539.531 335.141 -536.911 336.021C-534.781 336.731 -532.881 337.501 -532.981 337.431C-531.791 338.241 -531.361 340.531 -530.251 341.001C-530.471 340.901 -528.361 339.681 -527.171 339.711C-525.191 339.761 -523.761 340.501 -522.931 340.721C-522.341 340.871 -521.921 340.651 -521.511 340.421C-521.161 340.231 -520.811 340.031 -520.351 340.081C-519.271 340.201 -519.341 341.641 -518.281 341.721C-516.211 341.871 -514.941 340.861 -512.281 341.511C-510.131 342.031 -508.911 342.791 -507.191 343.571C-506.251 344.001 -506.321 340.841 -506.211 340.601C-505.791 339.641 -491.161 342.581 -489.031 342.541C-487.431 342.501 -487.001 342.791 -485.931 342.831C-485.491 342.851 -481.811 343.001 -481.601 342.941C-479.161 342.231 -476.141 338.691 -473.451 338.721C-470.481 338.751 -468.391 341.601 -466.231 343.101C-465.261 343.771 -465.741 344.771 -464.221 345.311C-463.901 345.421 -463.381 345.261 -462.931 345.121C-462.581 345.011 -462.271 344.901 -462.141 344.951C-461.951 345.021 -461.481 344.791 -460.941 344.551C-460.131 344.191 -459.131 343.781 -458.551 344.221C-455.201 346.801 -460.321 362.961 -460.991 362.761C-459.741 363.141 -458.241 363.621 -457.121 363.931C-455.961 364.251 -455.871 363.731 -455.671 363.171C-455.531 362.771 -455.321 362.351 -454.601 362.241C-453.831 362.121 -452.951 366.021 -452.101 364.611C-452.101 364.611 -451.561 360.811 -451.491 360.911C-449.311 364.091 -451.271 371.901 -448.111 365.441C-448.781 366.801 -440.701 370.151 -441.271 369.421C-438.871 372.491 -441.721 370.321 -443.441 373.921C-446.281 379.851 -438.201 373.361 -435.351 379.101C-433.331 375.271 -423.791 372.441 -419.751 371.111C-418.441 370.681 -414.211 367.871 -412.561 369.041C-408.991 371.551 -414.251 372.341 -416.011 372.991C-417.511 373.541 -406.671 385.631 -406.351 386.131C-402.141 392.751 -400.081 403.131 -397.121 410.651C-395.561 414.611 -394.731 418.471 -393.511 422.441C-392.081 427.071 -391.921 429.081 -387.751 426.391C-386.591 425.641 -387.891 423.351 -385.871 422.641C-382.591 421.471 -383.141 423.781 -381.261 425.871C-380.171 427.081 -379.301 426.801 -378.371 427.701C-377.441 428.601 -378.471 429.921 -377.461 430.671C-376.871 431.111 -370.241 432.491 -369.961 432.481C-366.401 432.361 -367.051 430.411 -364.381 429.391C-358.961 427.321 -355.081 434.021 -352.541 437.711C-351.021 439.921 -351.961 439.761 -350.001 441.551C-349.501 442.001 -347.661 442.901 -346.881 443.671C-345.181 445.371 -346.041 447.281 -344.581 449.351C-343.331 451.121 -339.171 453.071 -336.461 452.851C-334.821 452.721 -333.721 451.701 -332.591 450.671C-331.531 449.701 -330.441 448.731 -328.861 448.491C-332.011 448.971 -325.921 458.121 -324.541 458.821C-321.911 460.161 -318.291 459.681 -316.111 457.941C-314.771 456.871 -316.301 455.521 -314.421 454.241C-313.981 453.941 -313.201 454.241 -312.331 454.521C-311.571 454.761 -310.751 454.991 -310.041 454.791C-308.081 454.251 -304.641 452.731 -303.191 451.421C-300.141 448.661 -298.851 445.761 -295.061 443.071C-292.981 441.591 -290.161 441.391 -288.201 439.761C-285.451 437.471 -283.691 436.781 -280.411 434.911C-276.301 432.571 -278.551 433.151 -273.981 434.291C-270.571 435.141 -267.531 435.071 -263.551 435.281C-257.751 435.581 -258.071 439.681 -254.711 442.011C-252.351 443.651 -248.861 444.321 -246.101 444.341C-244.991 444.341 -244.781 443.821 -244.581 443.301C-244.381 442.771 -244.191 442.241 -243.071 442.271C-240.781 442.341 -239.091 444.181 -236.941 444.471C-231.991 445.141 -221.911 443.791 -221.051 437.001C-220.521 432.811 -231.671 421.631 -223.951 418.361C-224.051 416.291 -222.411 414.221 -221.151 412.021C-218.621 407.591 -221.151 408.831 -216.251 409.161C-213.241 409.361 -210.801 411.661 -207.831 412.201C-205.751 412.581 -203.621 411.831 -201.301 412.331C-199.451 412.741 -196.801 414.281 -195.551 414.451C-192.741 414.821 -189.991 412.471 -187.391 415.561C-186.921 416.121 -187.811 418.541 -187.531 419.201C-186.761 420.991 -184.891 422.641 -183.621 424.101C-178.231 430.261 -170.771 430.611 -164.251 426.921C-161.481 425.361 -157.051 421.341 -154.161 420.721C-151.081 420.061 -143.431 420.601 -140.161 421.111C-138.261 421.411 -134.091 422.281 -132.511 423.081C-129.691 424.501 -127.331 429.251 -123.641 430.021C-120.961 430.581 -114.891 428.761 -111.911 428.451C-108.261 428.071 -105.831 428.701 -102.281 426.861C-100.581 425.981 -98.9809 423.641 -97.1309 422.571C-95.9109 421.861 -94.4908 421.931 -93.2308 421.171C-91.6008 420.191 -90.7308 418.751 -89.4108 417.661C-88.7108 417.081 -88.7109 415.781 -88.0309 415.201C-87.7009 414.921 -87.1409 414.931 -86.5809 414.931C-86.0009 414.931 -85.4308 414.931 -85.1108 414.641C-81.0908 410.891 -79.8209 403.761 -75.6409 399.591C-75.9909 400.121 -74.2109 399.411 -73.0609 398.851C-72.3109 398.481 -71.8308 398.181 -72.4308 398.331C-71.2608 398.021 -69.5409 396.651 -67.5609 397.151C-66.1009 397.521 -65.6209 399.891 -63.7009 400.171C-61.7209 400.461 -60.1309 398.311 -58.5909 397.631C-55.9909 396.481 -52.9208 396.831 -49.8608 397.171C-46.2408 397.581 -42.6309 397.991 -39.8209 395.951C-37.5009 394.261 -37.6008 390.631 -35.9308 388.441C-35.1808 387.461 -32.9108 386.181 -32.4908 385.271C-31.2408 382.611 -32.2308 378.271 -32.7908 374.671C-33.4908 370.231 -33.9308 366.541 -33.4708 361.861C-33.0208 357.251 -30.0009 352.511 -32.5209 347.901C-34.8109 343.701 -35.2708 346.121 -38.4708 345.171C-39.1908 344.961 -39.5509 345.211 -39.8209 345.441C-40.2509 345.821 -40.4108 346.131 -41.3608 344.161C-41.8608 343.141 -39.3909 337.981 -39.0609 336.981C-36.7309 329.941 -30.5809 327.761 -24.7009 323.141C-18.9809 318.661 -20.6009 318.411 -13.2709 318.941C-11.9209 319.041 -10.7108 319.521 -9.30084 319.261C-6.71084 318.781 -6.21084 316.831 -4.24084 316.241C-0.770845 315.201 2.98913 316.511 5.54913 318.001C7.69913 319.251 12.4091 322.431 13.9691 323.841C18.3791 327.821 22.7292 332.771 28.0292 336.931C31.3892 339.561 35.2091 342.841 37.9391 345.631C40.1891 347.921 39.7391 350.491 43.7191 350.621C45.7191 350.681 46.6892 349.821 47.6992 348.951C48.4592 348.291 49.2492 347.631 50.5192 347.361C52.2992 346.991 52.9991 348.571 54.5991 348.181C56.8691 347.621 58.2891 345.051 60.4091 344.941C60.0091 344.961 62.4492 345.281 65.2092 345.531C68.2892 345.811 71.7492 346.001 72.0792 345.571C72.3892 347.611 77.4791 352.041 79.1191 353.611C80.1991 354.641 80.4392 354.991 80.3992 355.081C80.6192 355.181 80.9792 355.361 81.5692 355.691C84.0092 357.031 84.4691 357.001 86.1091 356.831C87.2191 356.711 94.5092 353.451 95.6392 351.551C97.4992 348.441 95.6391 344.101 97.3491 340.681C100.879 333.601 105.599 326.591 111.309 333.521C112.379 334.821 114.669 336.111 115.089 338.361C115.549 340.841 113.959 344.061 114.449 347.091C115.149 351.411 117.789 354.201 119.089 357.331C120.389 360.491 120.879 366.441 121.149 370.301C121.279 372.161 120.889 373.411 121.059 375.151C121.209 376.711 124.849 376.251 122.059 380.201C120.849 381.921 118.949 381.941 117.079 381.951C115.799 381.951 114.529 381.961 113.499 382.511C111.299 383.681 111.299 384.681 110.329 386.321C110.689 385.711 110.159 387.431 109.519 389.191C108.829 391.081 108.019 393.011 108.079 392.041C107.739 397.341 113.729 399.841 116.749 404.791C118.719 408.021 121.409 411.021 122.699 414.181C122.549 413.831 122.579 415.421 122.679 416.991C122.779 418.621 122.969 420.231 123.149 419.641C122.839 420.711 121.369 421.991 121.239 422.661C120.679 425.431 117.819 423.661 120.469 427.291C120.559 427.421 123.719 429.721 124.439 429.551C126.619 429.041 124.229 426.391 123.049 425.151C126.689 428.211 126.379 410.581 125.799 409.571C126.809 409.001 132.649 407.951 132.999 408.041C133.269 408.111 135.079 410.451 136.099 411.111C135.719 410.631 140.139 410.371 140.869 410.461C141.169 410.071 142.929 408.471 142.789 408.571C143.629 407.961 143.699 408.221 144.909 407.061C146.369 405.661 147.019 402.331 147.919 400.551C152.369 391.761 154.149 384.711 152.979 375.671C152.829 374.511 151.579 373.551 151.489 372.031C151.449 371.291 152.859 368.641 153.009 367.541C153.429 364.651 152.139 362.361 152.079 359.611C152.019 357.101 152.959 355.051 153.349 352.581C154.519 345.111 153.909 339.841 152.599 332.511C152.019 329.281 152.319 326.171 151.499 323.141C150.879 320.851 149.519 318.741 149.329 315.561C149.179 312.951 148.269 310.801 147.989 308.351C147.739 306.121 148.439 304.141 148.329 302.101C148.209 299.731 147.869 294.371 147.279 292.351C142.759 277.041 128.239 267.981 123.959 252.651C122.029 245.761 118.409 242.851 113.859 237.641C112.719 236.341 110.939 236.011 110.139 234.781C108.909 232.901 110.579 231.681 108.939 230.061C106.289 227.461 102.539 229.711 99.4191 227.471C99.0491 228.291 92.3491 227.811 90.4891 228.101C88.2891 228.441 88.0592 227.811 85.1992 229.201C83.9392 229.811 81.9992 231.121 80.8792 231.721C80.8792 231.721 90.1991 250.291 84.4391 243.841C82.2291 241.361 83.8192 235.681 81.9492 242.261C80.9092 245.891 82.1291 247.641 78.8491 250.431C78.7491 250.521 79.1091 243.471 78.9791 242.951C78.8591 242.491 78.1491 242.861 77.3491 243.251C76.5291 243.651 75.6091 244.081 75.1691 243.641C73.7591 242.251 75.7692 242.301 75.1492 240.431C73.6192 235.831 72.5291 244.141 72.4391 244.801C72.4091 245.061 75.8091 251.321 71.9291 250.221C68.2291 249.171 70.1192 241.491 64.8292 241.191C62.9692 241.091 61.1992 244.931 59.1992 245.811C54.2992 247.981 52.7891 245.771 53.4791 240.581C53.8791 237.531 53.7291 234.061 54.3491 231.181C55.7891 224.551 57.3991 219.611 56.0491 212.491C55.5491 209.871 54.7991 208.281 54.5391 205.751C54.0791 201.271 55.8691 197.141 55.6691 192.661C55.4291 187.501 53.0292 182.091 52.6392 176.761C52.4492 174.241 53.5291 172.001 53.4891 169.661C53.4391 166.301 52.1091 163.061 52.4091 159.671C52.9891 153.061 58.2392 148.781 62.0892 144.301C63.8592 142.241 64.4491 138.751 66.1791 137.141C66.6791 136.671 67.5491 136.651 68.4791 136.611C69.5391 136.561 70.6891 136.501 71.4991 135.731C72.2291 135.041 69.9791 133.431 70.9791 132.101C71.8091 130.991 72.7091 130.921 73.4791 130.881C73.9791 130.861 74.4292 130.841 74.7692 130.561C75.6392 130.721 76.2991 130.471 76.7491 129.801C77.7991 128.971 78.0292 127.751 77.4492 126.151C77.2892 125.011 77.6391 124.081 78.4991 123.361C79.8991 123.361 81.2292 123.091 82.5192 122.551C82.2692 122.311 80.3192 113.981 80.3892 113.691C81.2492 110.051 86.8092 109.351 89.0092 107.021C92.3392 103.491 90.2192 103.321 95.1992 102.931C95.9492 102.871 96.5792 102.461 97.0792 102.071C98.1992 101.211 98.6692 100.501 98.3292 104.271C98.1392 106.461 92.5291 109.201 97.5591 109.811C100.799 110.201 102.219 104.651 103.009 102.001C103.939 98.9108 104.619 95.5808 105.929 92.7008C106.929 90.5008 110.679 86.6508 109.839 83.5508C108.659 79.2408 106.609 84.6408 105.199 85.1508C100.879 86.7208 100.659 84.4808 98.4091 80.9308C94.0491 74.0508 94.7491 66.1708 90.9691 59.0408C89.3891 56.0608 87.3992 53.8108 86.7092 51.0508C86.1092 48.6608 87.3992 47.1208 87.8792 45.1408C88.5992 42.1608 89.6992 38.6208 91.5292 36.3908C92.6092 35.0808 93.5191 35.0008 94.1591 34.9808C95.2491 34.9508 95.5591 35.1108 94.5591 29.6008C97.8691 29.4408 102.709 41.5108 106.199 39.4808C105.229 38.0808 105.239 36.8908 106.249 35.9208C107.099 35.9208 109.019 39.2408 109.579 38.9608C112.409 37.5508 110.649 35.5608 109.899 32.9808C108.249 27.2208 106.349 20.1608 105.059 15.0608C104.879 14.3308 106.909 14.4508 106.019 13.0708C105.129 11.6908 99.8291 10.4408 98.0991 9.10081C95.3391 6.96081 93.3691 2.88082 94.9991 -0.789185C96.2491 -3.61918 98.9592 -5.51919 100.279 -3.10919C100.689 -2.34919 99.0391 -0.589194 99.5391 0.810806C99.9891 2.07081 105.549 6.57081 106.569 7.38081C110.329 10.3708 114.069 10.8408 116.039 15.4708C117.869 19.7708 117.599 25.5708 120.149 30.4108C120.669 31.4008 122.659 31.7908 122.929 32.5008C123.779 34.7008 124.689 38.3408 125.209 40.5508C126.299 45.1608 127.319 47.9408 129.629 52.1708C132.249 56.9808 134.049 62.0308 135.819 67.6408C136.709 70.4808 137.029 72.0808 137.119 74.9908C137.119 75.3408 135.539 75.4208 135.539 76.0808C135.539 76.0808 136.209 78.3408 136.259 78.1208C136.299 77.9408 136.119 79.3808 135.899 80.8408C135.669 82.3708 135.399 83.9008 135.319 83.5708C135.849 85.6308 136.459 84.6908 137.689 85.9808C139.029 87.3908 141.259 87.1508 142.579 88.9908C143.189 89.8308 143.519 93.6108 143.959 94.8908C146.649 102.641 156.689 113.411 163.819 118.021C168.259 120.891 173.539 121.561 177.969 124.051C182.279 126.481 186.559 129.471 190.779 131.751C195.459 134.281 201.239 135.811 206.069 138.591C209.079 140.321 210.569 142.471 213.789 143.881C214.239 144.081 220.529 146.471 220.599 146.441C219.419 142.841 221.089 140.601 220.619 137.201C220.589 136.981 220.549 136.771 220.499 136.571L220.449 136.371C219.849 133.951 218.259 132.031 217.639 129.601C216.939 126.881 213.679 120.941 211.869 118.801C210.299 116.941 203.779 116.501 203.499 115.601C203.559 114.621 204.069 114.011 205.029 113.771C204.939 111.731 204.749 109.701 204.459 107.681C204.649 107.551 206.749 102.381 206.639 103.421C206.709 102.751 206.819 102.421 206.929 102.251C206.629 102.181 206.049 101.851 205.019 100.841C203.949 99.8008 202.409 98.7908 201.189 97.9208C195.899 94.1608 191.709 90.8308 193.899 83.0708C194.869 79.6608 199.699 76.3908 195.039 72.4108C193.339 70.9608 191.019 71.8008 189.149 71.1008C184.939 69.5208 182.019 66.9908 179.589 63.0408C178.309 60.9608 178.129 59.7408 177.139 57.7908C176.549 56.6208 173.079 57.8408 174.169 55.0708C175.269 52.2808 176.309 53.8208 177.419 55.3408C178.439 56.7308 179.519 58.1108 180.769 56.1208C183.689 51.4708 174.559 48.3508 172.309 48.5308C171.679 48.5808 171.489 48.9208 171.259 49.2708C170.959 49.7208 170.599 50.1908 169.129 50.0508C170.009 50.1308 168.739 49.3808 167.329 48.6608C165.989 47.9808 164.529 47.3308 164.649 47.4508C162.219 45.0108 158.649 36.5308 154.809 43.9708C154.199 45.1508 158.599 49.4208 153.339 48.6308C149.149 48.0108 144.739 38.0508 142.669 35.1108C138.889 29.7608 128.419 23.2908 132.079 16.1908C133.799 16.6808 134.909 16.2808 135.429 14.9908C135.989 14.3708 136.019 13.6508 135.499 12.8408C135.359 13.6408 134.599 11.8608 133.929 10.0608C133.349 8.51081 132.839 6.95081 132.849 7.00081C130.709 -1.30919 132.939 1.3008 138.599 6.2608C141.569 6.6908 135.989 -1.41919 135.779 -2.13919C134.829 -5.34919 134.839 -8.19919 135.789 -11.6592C136.219 -13.2092 137.569 -18.7792 138.309 -19.5392C139.229 -20.4792 141.009 -20.6292 142.769 -20.7692C144.919 -20.9392 147.049 -21.1092 147.559 -22.7192C148.309 -25.0692 143.809 -26.6792 142.409 -29.0592C140.049 -33.0692 139.859 -38.4292 137.269 -42.4092C134.599 -46.5192 132.159 -49.6192 130.529 -54.0392C128.319 -60.0592 127.479 -66.9392 125.239 -73.2992C124.209 -76.2192 120.669 -80.3392 120.719 -83.0592C120.739 -84.1092 124.329 -89.1092 124.979 -90.1092C126.119 -91.8592 128.349 -93.4492 127.869 -95.2992C127.819 -95.5092 122.039 -99.7292 121.599 -99.7892C118.449 -100.219 119.279 -97.9292 116.959 -97.2792C117.329 -97.3792 112.069 -102.629 113.849 -96.8692C113.419 -96.9992 107.219 -98.0392 108.789 -95.0992C107.969 -95.3192 100.899 -100.769 101.219 -96.1792C98.4791 -100.469 97.2491 -94.1692 96.4791 -93.7592C96.0391 -93.5292 95.0392 -93.4792 94.1392 -93.4592C93.3192 -93.4392 92.5892 -93.4392 92.4592 -93.3392C91.4192 -92.5992 90.3891 -91.7592 89.7491 -91.1692C90.1091 -91.4992 89.9791 -90.2492 89.6191 -88.9392C89.0391 -86.8092 87.8692 -84.5392 87.2092 -88.7692C86.6792 -92.1592 92.8192 -95.0592 93.0892 -98.6992C93.4292 -103.429 85.5392 -113.019 81.3792 -114.309C77.1992 -115.609 74.5691 -113.279 70.6791 -117.039C70.0991 -117.599 68.9391 -117.119 68.5491 -117.859C67.6791 -119.509 70.6292 -120.179 68.4592 -122.199C70.2992 -123.179 71.9792 -119.769 73.7592 -119.539C75.2792 -119.349 77.6391 -120.179 78.6591 -120.569C79.2391 -120.789 79.5492 -120.609 79.7792 -120.409C80.2092 -120.039 80.3692 -119.609 81.5292 -121.559C83.3392 -124.589 79.3191 -126.319 79.5591 -128.289C79.9591 -131.619 84.2492 -134.139 86.9592 -135.169C87.7292 -135.459 88.4992 -135.429 89.2692 -135.409C90.5092 -135.369 91.7591 -135.329 93.0491 -136.619C94.6291 -138.209 93.5291 -140.239 94.6691 -142.009C96.4491 -144.799 101.019 -145.989 102.039 -149.139C103.099 -152.409 99.6791 -154.919 97.3591 -155.309C96.7091 -155.419 96.0991 -155.219 95.4391 -154.999C94.5191 -154.699 93.4891 -154.379 92.1091 -154.849C91.8691 -156.549 90.9592 -157.679 89.3792 -158.239C88.6892 -158.069 87.9891 -157.909 87.2991 -157.739C85.9191 -158.179 84.6392 -157.379 83.2592 -156.549C81.9692 -155.769 80.5991 -154.979 78.9791 -155.179C78.6291 -157.139 82.0291 -159.169 82.5491 -160.919C82.8791 -162.019 82.5492 -163.579 82.8792 -165.109C81.5592 -166.349 78.8692 -165.239 78.7792 -163.429C77.0492 -163.619 82.4591 -173.609 75.5391 -168.719C72.9591 -171.999 72.6592 -173.299 72.3292 -173.219C72.0392 -173.149 71.7191 -172.019 69.7891 -170.249" fill="url(#paint0_linear_590_1077)"/>
<mask id="mask0_590_1077" style="mask-type:luminance" maskUnits="userSpaceOnUse" x="-795" y="-174" width="1016" height="634">
<path d="M108.049 392.061C108.049 392.061 108.049 392.051 108.049 392.041C108.049 392.041 108.049 392.051 108.049 392.061ZM-637.461 323.601C-637.461 323.601 -637.461 323.601 -637.461 323.551C-637.471 323.571 -637.471 323.591 -637.461 323.601ZM-742.431 295.081C-742.431 295.081 -742.411 295.081 -742.411 295.071C-742.411 295.071 -742.431 295.071 -742.431 295.081ZM69.7792 -170.249C68.1892 -168.789 67.0691 -167.279 64.1891 -165.409C61.5291 -163.679 60.3492 -163.299 60.1492 -160.139C60.0792 -159.029 61.3192 -157.559 61.2692 -156.829C61.1392 -155.059 60.0792 -154.279 59.8292 -153.389C59.8092 -153.319 59.5492 -153.449 59.2092 -153.559C58.5092 -153.789 57.4791 -153.939 57.5391 -152.119C57.6591 -148.779 61.2191 -148.849 63.1591 -148.779C63.8191 -148.759 69.1592 -150.129 68.1492 -150.719C74.1492 -147.209 58.4691 -140.989 55.2191 -145.519C55.7991 -142.649 55.1591 -142.009 53.3091 -143.589C52.4391 -144.079 51.5591 -144.179 50.6591 -143.889C50.5891 -143.789 45.7491 -139.469 50.1191 -139.819C50.3591 -139.399 48.8992 -139.439 47.5292 -139.489C46.5392 -139.529 45.6091 -139.589 45.4191 -139.489C44.4291 -138.999 41.2992 -135.019 40.3792 -134.009C40.4492 -134.089 40.1692 -133.309 39.8992 -132.539C39.6292 -131.759 39.3492 -130.979 39.4492 -131.069C39.1592 -130.779 38.5492 -130.859 37.9592 -130.949C37.4092 -131.039 36.8691 -131.129 36.6591 -130.909C35.3691 -129.599 35.4691 -128.669 34.1091 -127.519C33.4891 -126.989 32.3691 -127.069 31.6191 -126.389C29.3491 -124.359 28.5792 -122.019 26.6492 -120.289C24.6892 -118.539 22.1691 -117.999 20.2991 -115.219C17.9391 -111.709 13.5692 -108.279 10.8992 -103.679C7.58917 -97.9792 9.02913 -90.1492 5.60913 -85.3092C4.09913 -83.1592 0.579145 -79.7792 1.49915 -77.5892C1.37915 -77.8792 3.03912 -76.9492 4.59912 -75.9992C6.03912 -75.1292 7.38913 -74.2392 7.22913 -74.2592C7.73913 -74.2092 8.46913 -74.7892 9.35913 -75.3992C10.3591 -76.0892 11.5592 -76.8292 12.8892 -76.7792C15.8392 -76.6792 20.1192 -74.4292 20.0892 -71.3292C20.0592 -67.2292 6.93915 -61.1992 2.99915 -64.3192C4.28915 -66.1492 8.19912 -66.2692 6.96912 -69.3892C5.65912 -72.7292 0.88917 -69.6892 0.14917 -67.6692C-0.92083 -64.7492 2.24914 -64.2492 3.11914 -61.6692C4.34914 -58.0292 3.48915 -54.4892 1.62915 -51.2892C0.11915 -48.6992 -2.84084 -47.7292 -4.05084 -45.6592C-4.74084 -44.4892 -3.83087 -43.4992 -4.33087 -42.2992C-6.29087 -37.4892 -5.03085 -29.3492 -12.1808 -28.1092C-15.4808 -27.5392 -17.2809 -30.6692 -20.0909 -31.5392C-24.4009 -32.8592 -26.7009 -31.5792 -30.3309 -29.1392C-35.7809 -25.4692 -40.7409 -20.7192 -42.7509 -14.2192C-43.7909 -10.8492 -42.9409 -5.64919 -46.6509 -3.64919C-48.2909 -2.75919 -49.9009 -3.1492 -51.5309 -3.5192C-52.9109 -3.8392 -54.3108 -4.14919 -55.7908 -3.68919C-57.5008 -3.15919 -61.7109 2.99081 -63.6509 1.94081C-67.0909 0.0808111 -63.5509 -2.51919 -64.3409 -4.90919C-69.0909 -6.45919 -73.9408 -0.0491912 -77.3708 2.25081C-80.1908 4.14081 -84.2509 5.20081 -87.3109 7.52081C-89.1309 8.90081 -90.6208 10.5808 -92.3508 12.0808C-93.6708 13.2208 -99.3909 15.9108 -100.211 16.9908C-103.421 21.1808 -97.8409 17.8208 -98.6309 23.6608C-99.8009 23.7408 -101.771 20.7008 -102.361 23.4208C-102.661 24.8008 -101.661 30.3208 -99.7809 30.4808C-99.6909 29.1408 -99.2308 28.0108 -98.4108 27.0808C-97.5708 26.9108 -95.5509 32.6508 -95.3309 32.8708C-93.5609 34.7108 -90.5409 34.1208 -88.6509 35.7908C-90.3509 36.8508 -100.751 38.0808 -99.7408 41.6608C-99.3508 43.0308 -93.1208 44.4008 -95.5508 45.8008C-96.6808 46.4508 -98.0708 45.9808 -99.6008 45.5308C-101.431 45.0008 -103.451 44.5108 -105.411 46.0708C-108.921 48.8808 -105.771 53.1808 -107.901 55.3308C-110.621 58.0708 -114.671 54.1408 -116.801 54.1308C-119.721 54.1108 -119.271 52.2408 -119.501 56.6208C-119.671 59.8908 -112.511 68.6508 -114.431 71.1008C-114.581 71.1908 -115.151 71.0208 -115.801 70.8708C-117.001 70.5908 -118.451 70.3608 -117.761 71.9608C-122.861 72.7508 -128.551 67.6208 -131.681 64.6408C-131.881 64.4508 -132.191 64.5308 -132.551 64.6308C-133.201 64.8008 -134.001 65.0008 -134.581 63.6908C-135.201 62.2708 -133.311 61.1808 -133.531 60.4308C-134.571 56.8108 -135.941 56.4208 -138.181 54.0008C-141.291 50.6408 -142.041 47.0408 -147.521 46.1308C-148.991 45.8908 -151.511 45.8808 -152.891 46.6608C-154.361 47.4908 -154.141 48.9508 -154.791 49.3808C-155.861 50.0908 -163.881 53.0808 -165.341 48.8008C-165.831 49.0508 -168.221 54.9808 -168.201 55.4108C-168.091 58.6308 -164.301 58.3308 -163.631 61.3308C-162.471 66.5008 -165.171 63.4508 -166.741 63.2808C-168.141 63.1308 -167.051 65.5908 -168.051 65.8608C-169.351 66.2208 -171.241 66.5608 -172.821 66.7708C-175.011 67.0508 -177.711 67.6008 -179.851 67.0208C-181.361 66.6108 -182.041 64.2208 -183.461 63.9208C-187.631 63.0308 -192.001 65.1608 -196.231 67.2608C-199.541 68.9008 -202.761 70.5208 -205.721 70.6508C-207.161 70.7108 -207.691 68.9208 -209.281 69.1108C-210.041 69.2008 -209.691 70.8908 -209.521 70.8608C-209.551 70.8608 -209.891 72.3008 -211.271 72.4108C-213.351 72.5808 -213.951 70.6708 -215.091 70.4708C-216.771 70.1808 -223.791 70.7008 -221.291 75.9908C-220.861 76.9208 -219.871 76.0208 -218.791 75.0908C-217.661 74.1208 -216.431 73.1408 -215.631 74.1908C-220.251 79.8308 -224.751 87.3308 -232.741 87.7908C-231.971 85.2008 -231.211 82.6008 -230.441 80.0108C-229.701 79.8308 -228.951 79.7408 -228.181 79.7508C-226.401 76.9408 -224.371 73.2208 -223.331 70.0208C-222.671 67.9908 -223.551 66.2808 -222.241 64.2908C-221.471 63.1208 -220.811 63.1408 -220.141 63.1608C-219.631 63.1708 -219.111 63.1808 -218.541 62.6608C-215.721 60.0508 -215.451 58.4608 -214.441 54.9908C-214.261 54.3508 -212.541 48.6808 -212.661 48.4108C-213.541 46.3008 -217.391 46.5308 -217.571 44.0908C-214.781 42.4408 -213.451 44.2508 -216.141 39.6108C-215.981 39.8808 -216.911 38.8708 -217.971 37.8808C-219.291 36.6508 -220.831 35.4808 -220.731 36.9008C-223.911 32.6708 -226.871 30.4108 -231.701 31.7008C-233.361 32.1408 -237.981 34.2008 -239.721 34.9708C-241.871 35.9208 -237.961 39.4308 -243.861 38.0208C-244.531 34.0608 -241.141 33.8708 -245.081 32.1908C-246.151 31.7408 -251.781 33.8008 -252.571 32.3708C-254.171 29.4708 -245.331 27.6908 -252.861 25.0708C-257.151 23.5808 -257.311 24.8308 -259.751 27.9108C-262.841 31.8008 -263.961 34.3908 -264.031 39.0208C-264.061 40.7708 -261.551 40.8708 -263.691 43.7008C-264.941 45.3508 -266.201 45.0508 -267.521 44.7608C-268.521 44.5408 -269.541 44.3308 -270.611 44.9708C-270.061 47.2008 -267.471 47.9508 -266.551 49.9508C-266.621 49.8908 -275.751 47.0408 -274.101 52.7308C-275.671 51.9608 -276.281 52.3908 -277.111 52.8708C-277.731 53.2308 -278.471 53.6208 -279.831 53.5508C-279.851 51.5308 -276.171 49.4708 -276.811 47.6608C-277.581 45.4808 -284.071 52.3708 -284.401 52.5608C-284.931 52.8608 -285.661 52.8808 -286.461 52.9208C-287.351 52.9708 -288.311 53.0308 -289.151 53.5108C-290.071 54.0408 -289.171 55.7408 -289.421 55.9708C-290.871 57.2408 -294.321 58.7608 -295.971 59.4008C-298.741 60.4608 -301.641 60.5608 -304.131 62.3108C-304.301 62.4308 -304.581 62.2608 -304.881 62.0908C-305.211 61.9108 -305.581 61.7308 -305.861 61.9608C-306.871 62.7908 -306.611 64.9408 -307.651 65.7108C-308.201 66.1208 -309.361 66.3208 -310.511 66.5108C-311.911 66.7508 -313.301 66.9908 -313.581 67.6108C-313.441 68.2808 -313.091 68.6908 -312.521 68.8308C-313.791 68.7508 -313.821 69.3908 -312.601 70.7608C-314.981 69.7108 -315.721 70.2508 -314.841 72.3608C-316.081 71.4808 -322.731 70.4108 -317.801 73.9908C-318.991 74.1408 -320.021 74.6308 -320.891 75.4708C-321.291 77.7608 -318.781 76.5908 -317.111 75.6108C-316.321 75.1508 -315.721 74.7308 -315.701 74.7408C-315.111 75.5308 -314.721 76.4308 -314.541 77.4408C-315.761 77.0208 -316.921 77.1408 -318.021 77.8008C-318.141 79.3908 -312.351 82.1308 -312.561 83.2508C-312.841 84.7408 -316.581 85.4008 -319.171 85.7808C-320.151 85.9208 -320.961 86.0308 -321.351 86.1308C-326.851 87.4908 -333.561 86.5708 -339.231 87.4908C-345.121 88.4508 -344.121 93.5108 -343.431 98.9708C-343.041 102.051 -342.771 104.141 -341.161 106.781C-340.211 108.351 -336.571 108.761 -337.561 111.491C-340.171 118.731 -347.471 106.691 -349.141 105.781C-349.951 105.151 -350.751 104.531 -351.561 103.901C-352.651 104.741 -353.871 105.101 -355.241 104.971C-355.991 104.351 -355.871 103.151 -355.561 103.451C-355.291 103.701 -354.581 101.171 -355.691 100.251C-357.171 99.0208 -360.571 102.741 -361.491 103.451C-360.811 104.421 -358.301 103.471 -357.891 104.441C-357.211 106.071 -359.371 106.101 -359.041 107.261C-359.011 107.361 -353.261 109.511 -357.231 110.391C-360.041 111.011 -362.121 106.041 -364.741 107.271C-372.091 110.721 -357.681 119.611 -358.691 123.901C-358.531 123.231 -369.811 118.131 -370.561 116.611C-371.441 114.801 -370.381 111.511 -369.271 109.271C-366.961 104.611 -365.281 103.731 -366.001 98.2208C-366.241 96.4008 -367.091 90.3808 -369.241 89.6308C-371.271 88.9108 -369.191 95.2808 -369.191 95.5308C-369.221 99.7408 -370.031 101.711 -372.951 104.561C-378.971 110.451 -381.021 110.391 -380.241 120.081C-379.781 125.771 -380.901 127.781 -383.211 133.151C-384.431 135.991 -387.491 143.071 -386.351 145.761C-384.901 149.181 -383.511 148.671 -381.511 148.011C-380.541 147.691 -379.441 147.341 -378.111 147.381C-373.431 147.531 -369.511 152.491 -368.071 156.611C-367.551 158.091 -367.461 163.381 -368.041 164.851C-368.301 165.511 -368.881 165.631 -369.471 165.761C-370.071 165.891 -370.681 166.011 -370.951 166.721C-374.451 175.641 -364.751 170.161 -364.751 176.731C-366.391 177.211 -372.571 173.971 -373.331 172.851C-376.141 168.681 -371.161 163.201 -371.751 158.751C-372.511 152.991 -375.361 152.991 -379.581 153.011C-385.391 153.041 -385.261 153.601 -385.921 159.391C-386.931 168.281 -392.981 176.211 -399.771 180.201C-402.751 181.951 -406.261 186.371 -409.681 185.991C-414.021 185.501 -419.081 180.401 -421.011 176.781C-419.731 176.611 -419.271 179.871 -417.921 178.961C-416.001 177.671 -418.531 174.651 -414.701 177.421C-415.131 180.131 -416.701 179.001 -413.031 179.471C-413.621 179.391 -408.601 178.011 -408.061 177.741C-407.311 177.371 -404.961 174.171 -404.261 173.411C-402.391 171.371 -399.351 168.971 -397.661 166.651C-395.951 164.291 -391.891 158.181 -391.261 155.521C-390.271 151.391 -394.001 149.541 -393.641 145.311C-393.351 141.871 -389.961 137.911 -389.171 135.141C-388.491 132.771 -389.041 129.781 -388.001 127.401C-386.161 123.191 -384.591 122.941 -385.001 117.961C-385.161 116.031 -386.851 111.711 -386.411 109.871C-385.621 106.561 -380.451 102.421 -379.171 98.3808C-377.721 93.7908 -377.381 90.4008 -383.081 87.5408C-390.291 83.9108 -393.931 88.5208 -397.481 94.5808C-400.721 100.121 -404.901 100.841 -409.181 105.091C-410.161 106.071 -414.351 111.611 -413.341 112.671C-406.781 110.981 -420.591 128.111 -418.901 130.661C-418.341 131.511 -414.521 130.541 -413.541 133.171C-413.111 134.321 -415.411 135.241 -415.071 136.481C-414.571 138.371 -412.141 142.641 -412.311 144.401C-412.391 145.251 -416.171 150.821 -417.071 150.451C-420.021 149.221 -420.561 142.801 -421.791 140.521C-423.931 136.541 -426.941 132.371 -429.481 128.731C-433.901 122.411 -437.861 116.521 -445.031 112.391C-445.041 113.771 -446.611 114.121 -448.141 114.461C-449.191 114.691 -450.231 114.921 -450.731 115.491C-451.411 116.251 -451.311 120.271 -452.051 121.641C-452.611 122.681 -452.741 123.131 -452.721 123.301C-453.051 123.431 -453.851 123.901 -455.621 125.251C-455.801 125.381 -460.021 128.761 -460.001 128.751C-460.841 128.951 -459.151 122.261 -460.821 120.681C-462.831 118.781 -465.991 119.591 -468.271 119.721C-468.881 119.761 -469.161 120.101 -469.441 120.451C-469.791 120.881 -470.121 121.311 -471.071 121.131C-471.921 120.971 -474.591 117.391 -475.851 116.861C-479.991 115.101 -481.031 116.791 -482.231 118.511C-482.961 119.561 -483.761 120.631 -485.351 120.931C-486.051 119.651 -486.271 118.301 -486.001 116.861C-487.711 116.761 -488.881 115.901 -489.511 114.251C-489.351 114.101 -488.741 114.271 -488.131 114.441C-487.521 114.611 -486.921 114.791 -486.841 114.651C-486.241 113.581 -486.441 111.841 -485.511 111.051C-484.871 110.511 -480.711 107.351 -480.371 107.711C-481.171 106.851 -487.161 106.231 -487.721 106.321C-488.401 106.441 -489.431 107.061 -490.291 107.651C-491.101 108.211 -491.751 108.721 -491.761 108.721C-494.131 108.971 -493.891 107.461 -496.921 105.981C-499.181 104.881 -502.651 105.741 -504.871 105.821C-508.481 105.961 -512.461 105.101 -515.311 105.291C-515.561 105.311 -515.531 106.021 -515.621 106.751C-515.721 107.551 -515.961 108.371 -516.831 108.401C-517.811 108.431 -518.511 105.861 -519.711 105.971C-521.551 106.151 -522.861 107.501 -524.181 108.841C-525.501 110.181 -526.831 111.521 -528.711 111.731C-530.371 111.911 -534.821 108.221 -535.511 106.761C-535.681 106.411 -536.011 99.6308 -535.921 99.3908C-534.081 94.8708 -531.101 95.7208 -528.231 96.6008C-525.701 97.3708 -523.251 98.1608 -521.721 95.3308C-521.141 94.2608 -520.581 87.3508 -520.991 85.9408C-521.831 83.0608 -524.931 81.0808 -526.801 79.2608C-528.721 77.4008 -527.201 74.1308 -529.241 78.5408C-529.901 79.9708 -529.051 82.3408 -529.851 84.0908C-530.671 85.8608 -533.371 87.5308 -534.681 88.6908C-536.351 90.1608 -538.941 91.4308 -540.051 93.3708C-540.861 94.7908 -540.381 96.8408 -540.801 97.7408C-542.041 100.341 -550.801 106.931 -550.551 108.781C-553.321 107.261 -552.141 99.7208 -554.961 97.9808C-556.341 97.1308 -556.481 97.2708 -556.811 97.4708C-557.111 97.6408 -557.571 97.8508 -559.221 97.4208C-560.201 97.1608 -565.411 96.5208 -566.541 96.5108C-569.881 96.4708 -575.041 96.0208 -577.621 98.9308C-579.451 101.001 -578.631 106.001 -581.001 107.731C-581.861 108.361 -582.071 108.311 -582.271 108.251C-582.481 108.191 -582.671 108.141 -583.581 108.851C-584.821 107.011 -585.071 107.411 -585.371 107.831C-585.631 108.191 -585.921 108.551 -586.871 107.551C-587.311 107.091 -589.551 99.8108 -589.811 98.8808C-589.641 99.4708 -589.631 90.9408 -590.091 90.5408C-591.331 89.4808 -591.581 89.7808 -591.941 90.1108C-592.161 90.3108 -592.431 90.5208 -593.001 90.4408C-594.961 90.1508 -595.841 88.6308 -597.711 90.6308C-597.221 92.5308 -597.331 94.3908 -598.041 96.2008C-598.841 97.7908 -598.421 98.9408 -596.771 99.6508C-597.031 101.511 -597.951 106.741 -600.671 107.321C-604.611 108.161 -605.171 99.2208 -605.401 96.8508C-604.671 95.5908 -604.311 94.2108 -604.321 92.7008C-604.851 91.1108 -605.631 89.6708 -606.671 88.3708C-605.971 85.3708 -603.331 84.7308 -601.831 82.3608C-600.761 80.6708 -600.541 77.0308 -599.311 75.7408C-597.051 73.3608 -593.881 74.4808 -591.491 71.4208C-588.881 68.0908 -590.181 64.4108 -589.441 60.6508C-588.581 56.2108 -586.041 52.0508 -584.961 47.6008C-583.891 48.5308 -583.351 62.2908 -584.091 62.8208C-580.201 62.6208 -582.981 66.2508 -582.581 67.3608C-581.691 69.8508 -580.951 71.5508 -579.701 73.9508C-576.941 79.2408 -577.781 82.0908 -573.161 86.0008C-564.031 93.7208 -551.911 90.0308 -548.541 78.0508C-547.021 72.6208 -549.501 66.6008 -549.391 61.1108C-549.271 54.8808 -547.661 50.1808 -549.361 43.8208C-549.961 41.5908 -550.721 38.2608 -551.901 36.3008C-552.161 35.8608 -555.471 31.6808 -555.671 31.9108C-555.591 31.1508 -554.901 23.3308 -555.251 22.6708C-554.541 23.1008 -550.481 29.5108 -552.421 22.2308C-552.981 20.1508 -552.241 20.9208 -553.541 19.2908C-554.951 19.8808 -556.091 19.5508 -556.941 18.3008C-557.191 17.4308 -557.491 16.5908 -557.851 15.7608C-558.141 16.4908 -558.611 17.0108 -559.261 17.3308C-560.181 17.1108 -559.891 14.3008 -560.471 14.1208C-561.151 13.9108 -561.501 14.2008 -561.821 14.4808C-562.151 14.7708 -562.461 15.0508 -563.081 14.8008C-564.961 14.0508 -570.551 11.8208 -572.471 12.2408C-573.971 12.5708 -579.361 15.8508 -580.431 16.9808C-583.151 19.8608 -582.441 24.8508 -584.531 28.3808C-583.731 30.9208 -584.361 32.0508 -586.431 31.7708C-588.051 32.0708 -589.691 32.1108 -591.341 31.8908C-593.761 32.2408 -594.401 32.0608 -596.611 33.6208C-601.021 36.7408 -602.091 42.9708 -605.581 46.8308C-608.011 49.5208 -610.251 50.0308 -612.571 51.2508C-615.101 52.5708 -615.961 52.6508 -617.871 54.8608C-618.161 55.2008 -620.281 55.6308 -621.011 56.4308C-621.371 56.8308 -621.961 60.0508 -622.161 60.4508C-622.771 61.6308 -625.321 67.4508 -626.791 68.4308C-628.031 69.2608 -629.151 69.2108 -630.171 69.1508C-631.331 69.0808 -632.371 68.9808 -633.351 70.0908C-634.151 71.0008 -633.281 75.6808 -633.661 76.9308C-634.151 78.5508 -635.571 80.7308 -636.551 82.0008C-641.211 88.1008 -652.821 89.4108 -660.561 89.0308C-665.431 88.7908 -670.221 85.8608 -675.131 86.2808C-685.151 87.1508 -675.451 87.4108 -675.911 91.0608C-684.471 92.5108 -674.671 102.481 -677.951 106.361C-679.441 108.121 -680.361 101.541 -681.151 100.461C-681.921 99.4208 -687.521 98.0908 -687.791 97.5708C-687.501 96.7408 -687.371 95.8908 -687.391 95.0008C-689.561 95.6308 -689.741 97.7508 -691.541 98.8608C-692.551 99.4808 -693.661 99.7408 -694.781 100.001C-695.951 100.271 -697.121 100.551 -698.191 101.231C-699.511 102.071 -700.411 103.821 -701.741 104.591C-702.641 105.121 -706.471 106.431 -706.771 106.851C-708.381 109.051 -706.271 114.491 -710.191 114.341C-712.591 114.251 -712.761 108.811 -717.061 110.161C-716.931 110.121 -718.051 118.131 -718.741 119.031C-718.931 119.271 -719.491 119.241 -720.141 119.221C-720.981 119.201 -721.971 119.221 -722.491 119.911C-724.071 122.001 -723.061 122.651 -724.151 124.561C-725.531 126.981 -729.461 129.201 -730.211 131.881C-731.411 136.101 -727.001 137.511 -726.591 140.331C-726.481 141.121 -727.951 144.161 -728.081 143.861C-728.291 144.291 -728.501 144.721 -728.711 145.151C-728.061 145.971 -727.231 146.311 -726.221 146.181C-725.461 147.861 -722.941 150.961 -723.541 154.361C-724.461 159.521 -728.541 161.921 -732.711 163.081C-731.881 162.851 -734.401 171.651 -734.601 172.361C-735.141 174.291 -736.221 177.791 -736.441 179.671C-736.541 180.521 -737.661 182.141 -737.821 183.011C-737.901 183.431 -736.231 184.011 -736.251 184.641C-736.251 185.061 -736.891 190.671 -736.891 190.671C-741.861 196.191 -745.391 188.651 -747.521 184.911C-749.921 186.031 -750.441 189.621 -751.861 191.801C-753.301 194.011 -755.831 195.321 -756.191 198.011C-756.361 199.281 -756.181 202.551 -754.811 203.411C-752.091 205.111 -753.211 202.741 -751.471 201.351C-751.351 201.261 -744.311 210.101 -744.001 211.671C-743.611 213.631 -744.061 214.531 -744.431 216.761C-744.561 217.521 -744.641 221.001 -745.061 221.661C-745.691 222.641 -746.441 222.321 -747.041 221.971C-747.481 221.711 -747.851 221.441 -748.031 221.641C-753.221 227.441 -749.521 227.711 -747.951 232.491C-746.691 236.351 -749.291 238.631 -750.821 242.251C-752.371 245.921 -750.701 250.611 -747.701 254.041C-746.001 255.981 -741.361 255.961 -740.261 258.341C-739.531 259.921 -741.681 263.311 -741.471 265.231C-740.911 270.171 -739.971 266.601 -738.611 268.501C-737.531 270.011 -737.101 272.491 -736.581 273.701C-735.111 277.111 -733.081 280.851 -733.761 283.231C-734.041 284.221 -729.631 285.991 -729.031 286.721C-728.641 287.201 -732.221 287.881 -732.431 287.891C-730.171 290.261 -732.741 290.541 -734.471 290.611C-735.121 290.641 -735.651 290.641 -735.761 290.711C-735.861 290.771 -736.151 290.711 -736.511 290.671C-737.041 290.611 -737.731 290.581 -738.121 291.031C-739.011 292.061 -736.691 293.801 -737.051 295.071C-737.061 295.121 -738.071 295.011 -739.211 294.941C-740.481 294.861 -741.931 294.811 -742.401 295.081C-741.921 294.811 -741.951 295.961 -742.081 297.141C-742.211 298.261 -742.431 299.401 -742.431 299.371C-742.441 299.421 -745.791 304.021 -745.231 303.711C-748.791 305.691 -752.701 300.841 -755.961 299.901C-757.611 299.421 -763.671 298.171 -764.691 302.641C-765.841 307.691 -757.651 305.711 -757.151 308.271C-756.361 312.361 -759.661 311.501 -762.761 310.591C-765.431 309.811 -767.951 308.991 -767.621 311.251C-767.961 308.931 -773.001 305.511 -774.591 308.481C-775.731 310.621 -771.401 316.401 -772.801 318.351C-773.291 319.031 -773.851 318.131 -774.331 317.201C-774.731 316.421 -775.071 315.631 -775.231 315.751C-775.441 316.411 -775.841 316.631 -776.431 316.411C-776.591 315.821 -776.701 315.211 -776.751 314.601C-776.721 314.631 -784.981 318.151 -784.851 318.121C-786.751 318.601 -786.661 320.631 -789.261 318.901C-788.881 319.151 -789.411 317.491 -790.151 315.891C-791.021 314.021 -792.181 312.231 -792.571 313.591C-792.741 314.611 -792.781 315.641 -792.711 316.671C-793.101 315.971 -793.691 315.561 -794.481 315.441C-796.611 316.781 -791.181 329.901 -790.381 332.091C-788.881 336.171 -787.051 343.131 -786.481 347.361C-786.201 349.431 -786.651 362.371 -785.161 362.841C-782.661 363.631 -779.761 363.721 -778.131 366.481C-775.551 370.851 -775.041 374.431 -771.421 378.681C-767.081 383.781 -762.321 388.561 -760.731 395.391C-760.271 397.361 -760.971 400.321 -759.611 401.881C-758.381 403.291 -756.911 402.411 -755.631 403.031C-753.031 404.301 -753.371 404.401 -751.321 406.321C-749.381 408.131 -747.761 409.351 -746.771 412.861C-745.271 418.161 -748.221 417.051 -747.171 421.361C-746.551 423.891 -742.771 427.101 -741.581 429.421C-739.931 432.641 -740.121 435.101 -739.651 438.131C-739.271 440.651 -739.411 442.751 -737.271 444.511C-732.481 448.441 -734.341 444.091 -731.511 443.201C-730.921 443.011 -730.221 443.261 -729.451 443.481C-728.201 443.851 -726.751 444.181 -725.251 442.501C-723.771 440.851 -724.261 436.241 -724.411 432.871C-724.621 428.311 -725.411 423.241 -724.631 418.701C-724.041 415.251 -721.651 413.781 -720.011 411.951C-719.061 410.901 -716.901 409.981 -716.691 408.521C-716.361 406.291 -718.711 408.031 -719.161 406.441C-719.651 404.711 -720.331 398.261 -719.731 396.571C-718.591 393.351 -716.331 393.651 -713.131 391.661C-709.491 389.401 -707.921 387.551 -704.821 384.501C-704.911 384.591 -705.181 388.221 -704.931 388.291C-702.941 388.781 -699.651 386.881 -697.761 386.321C-699.831 386.931 -697.761 389.031 -696.301 389.221C-696.891 389.141 -693.751 388.201 -694.261 388.291C-693.311 388.111 -692.151 387.231 -691.391 387.021C-690.061 386.661 -690.021 388.181 -688.571 387.911C-686.271 387.491 -688.191 382.001 -689.131 379.251C-688.031 380.201 -685.191 377.511 -684.721 376.271C-683.821 373.841 -685.731 370.581 -685.801 368.131C-685.871 365.651 -684.261 364.691 -685.091 361.731C-685.621 359.831 -687.881 357.561 -689.041 356.041C-689.461 355.501 -691.981 355.401 -691.991 355.351C-693.081 351.971 -689.471 349.551 -689.951 346.031C-690.461 342.251 -694.381 342.481 -690.241 338.481C-689.351 337.621 -688.181 337.381 -687.051 337.151C-685.871 336.911 -684.721 336.681 -683.941 335.751C-682.701 334.261 -683.871 333.771 -683.131 332.181C-681.921 329.591 -681.721 327.411 -678.971 325.701C-677.611 324.851 -675.141 324.661 -673.521 323.671C-672.571 323.091 -670.891 319.761 -669.221 319.971C-670.031 319.871 -669.111 328.941 -669.101 329.171C-669.041 330.811 -669.871 331.661 -669.941 332.951C-670.151 336.771 -663.541 334.091 -662.601 333.191C-660.651 331.341 -661.521 326.001 -659.841 324.581C-660.561 325.191 -652.181 326.881 -652.511 327.171C-649.791 324.801 -654.001 324.681 -649.731 323.591C-649.621 323.561 -645.881 324.591 -645.131 324.621C-641.521 324.731 -640.091 323.901 -638.271 321.361C-637.951 320.901 -637.721 321.621 -637.581 322.361C-637.491 322.861 -637.441 323.361 -637.441 323.531C-637.261 323.171 -634.701 322.071 -633.821 322.921C-632.711 323.991 -633.341 325.371 -633.221 325.531C-632.471 326.541 -631.121 329.461 -629.831 329.991C-629.501 330.131 -629.001 329.721 -628.371 329.291C-627.391 328.611 -626.101 327.861 -624.751 329.031C-624.401 329.331 -624.331 333.081 -623.651 333.971C-622.241 335.851 -619.421 334.971 -618.011 336.971C-616.551 339.051 -618.571 339.931 -617.991 341.141C-617.021 343.151 -613.881 343.821 -613.281 344.811C-612.091 346.791 -615.051 346.831 -612.991 349.471C-611.861 350.911 -616.021 353.471 -615.601 354.571C-614.431 357.641 -613.131 355.311 -612.171 353.051C-611.561 351.621 -611.081 350.221 -610.861 350.251C-610.041 350.391 -609.061 352.061 -608.091 352.421C-608.901 352.131 -606.351 359.641 -605.411 360.261C-602.981 361.871 -601.341 360.661 -599.591 359.431C-598.511 358.671 -597.381 357.891 -596.001 357.771C-594.141 357.611 -590.741 361.351 -589.771 362.021C-587.831 363.341 -587.551 366.401 -584.971 362.371C-584.921 362.281 -578.891 365.991 -578.651 366.121C-579.961 365.431 -577.341 372.941 -576.721 374.531C-576.651 374.351 -575.531 375.211 -574.551 376.101C-573.591 376.981 -572.781 377.891 -573.251 377.881C-572.371 378.101 -570.841 378.191 -570.031 378.461C-569.751 377.551 -569.181 376.881 -568.311 376.471C-567.151 376.621 -566.391 377.301 -566.041 378.521C-563.801 379.331 -564.171 381.501 -560.921 381.991C-556.281 382.681 -555.031 379.191 -551.741 377.371C-549.691 376.241 -559.851 366.641 -560.431 365.671C-560.291 365.891 -560.571 364.391 -560.961 362.911C-561.371 361.341 -561.901 359.811 -562.191 360.381C-561.421 358.891 -559.041 359.661 -556.891 359.431C-550.161 358.741 -553.331 357.301 -551.871 352.361C-549.591 344.631 -543.621 352.531 -539.291 353.021C-537.901 353.181 -539.041 351.291 -540.461 349.471C-541.811 347.741 -543.401 346.061 -543.311 346.261C-544.951 342.681 -544.311 342.501 -540.211 342.711C-541.711 341.481 -543.211 340.261 -544.711 339.021C-540.571 339.621 -542.611 337.231 -542.541 335.291C-542.501 334.351 -539.531 335.141 -536.911 336.021C-534.781 336.731 -532.881 337.501 -532.981 337.431C-531.791 338.241 -531.361 340.531 -530.251 341.001C-530.471 340.901 -528.361 339.681 -527.171 339.711C-525.191 339.761 -523.761 340.501 -522.931 340.721C-522.341 340.871 -521.921 340.651 -521.511 340.421C-521.161 340.231 -520.811 340.031 -520.351 340.081C-519.271 340.201 -519.341 341.641 -518.281 341.721C-516.211 341.871 -514.941 340.861 -512.281 341.511C-510.131 342.031 -508.911 342.791 -507.191 343.571C-506.251 344.001 -506.321 340.841 -506.211 340.601C-505.791 339.641 -491.161 342.581 -489.031 342.541C-487.431 342.501 -487.001 342.791 -485.931 342.831C-485.491 342.851 -481.811 343.001 -481.601 342.941C-479.161 342.231 -476.141 338.691 -473.451 338.721C-470.481 338.751 -468.391 341.601 -466.231 343.101C-465.261 343.771 -465.741 344.771 -464.221 345.311C-463.901 345.421 -463.381 345.261 -462.931 345.121C-462.581 345.011 -462.271 344.901 -462.141 344.951C-461.951 345.021 -461.481 344.791 -460.941 344.551C-460.131 344.191 -459.131 343.781 -458.551 344.221C-455.201 346.801 -460.321 362.961 -460.991 362.761C-459.741 363.141 -458.241 363.621 -457.121 363.931C-455.961 364.251 -455.871 363.731 -455.671 363.171C-455.531 362.771 -455.321 362.351 -454.601 362.241C-453.831 362.121 -452.951 366.021 -452.101 364.611C-452.101 364.611 -451.561 360.811 -451.491 360.911C-449.311 364.091 -451.271 371.901 -448.111 365.441C-448.781 366.801 -440.701 370.151 -441.271 369.421C-438.871 372.491 -441.721 370.321 -443.441 373.921C-446.281 379.851 -438.201 373.361 -435.351 379.101C-433.331 375.271 -423.791 372.441 -419.751 371.111C-418.441 370.681 -414.211 367.871 -412.561 369.041C-408.991 371.551 -414.251 372.341 -416.011 372.991C-417.511 373.541 -406.671 385.631 -406.351 386.131C-402.141 392.751 -400.081 403.131 -397.121 410.651C-395.561 414.611 -394.731 418.471 -393.511 422.441C-392.081 427.071 -391.921 429.081 -387.751 426.391C-386.591 425.641 -387.891 423.351 -385.871 422.641C-382.591 421.471 -383.141 423.781 -381.261 425.871C-380.171 427.081 -379.301 426.801 -378.371 427.701C-377.441 428.601 -378.471 429.921 -377.461 430.671C-376.871 431.111 -370.241 432.491 -369.961 432.481C-366.401 432.361 -367.051 430.411 -364.381 429.391C-358.961 427.321 -355.081 434.021 -352.541 437.711C-351.021 439.921 -351.961 439.761 -350.001 441.551C-349.501 442.001 -347.661 442.901 -346.881 443.671C-345.181 445.371 -346.041 447.281 -344.581 449.351C-343.331 451.121 -339.171 453.071 -336.461 452.851C-334.821 452.721 -333.721 451.701 -332.591 450.671C-331.531 449.701 -330.441 448.731 -328.861 448.491C-332.011 448.971 -325.921 458.121 -324.541 458.821C-321.911 460.161 -318.291 459.681 -316.111 457.941C-314.771 456.871 -316.301 455.521 -314.421 454.241C-313.981 453.941 -313.201 454.241 -312.331 454.521C-311.571 454.761 -310.751 454.991 -310.041 454.791C-308.081 454.251 -304.641 452.731 -303.191 451.421C-300.141 448.661 -298.851 445.761 -295.061 443.071C-292.981 441.591 -290.161 441.391 -288.201 439.761C-285.451 437.471 -283.691 436.781 -280.411 434.911C-276.301 432.571 -278.551 433.151 -273.981 434.291C-270.571 435.141 -267.531 435.071 -263.551 435.281C-257.751 435.581 -258.071 439.681 -254.711 442.011C-252.351 443.651 -248.861 444.321 -246.101 444.341C-244.991 444.341 -244.781 443.821 -244.581 443.301C-244.381 442.771 -244.191 442.241 -243.071 442.271C-240.781 442.341 -239.091 444.181 -236.941 444.471C-231.991 445.141 -221.911 443.791 -221.051 437.001C-220.521 432.811 -231.671 421.631 -223.951 418.361C-224.051 416.291 -222.411 414.221 -221.151 412.021C-218.621 407.591 -221.151 408.831 -216.251 409.161C-213.241 409.361 -210.801 411.661 -207.831 412.201C-205.751 412.581 -203.621 411.831 -201.301 412.331C-199.451 412.741 -196.801 414.281 -195.551 414.451C-192.741 414.821 -189.991 412.471 -187.391 415.561C-186.921 416.121 -187.811 418.541 -187.531 419.201C-186.761 420.991 -184.891 422.641 -183.621 424.101C-178.231 430.261 -170.771 430.611 -164.251 426.921C-161.481 425.361 -157.051 421.341 -154.161 420.721C-151.081 420.061 -143.431 420.601 -140.161 421.111C-138.261 421.411 -134.091 422.281 -132.511 423.081C-129.691 424.501 -127.331 429.251 -123.641 430.021C-120.961 430.581 -114.891 428.761 -111.911 428.451C-108.261 428.071 -105.831 428.701 -102.281 426.861C-100.581 425.981 -98.9809 423.641 -97.1309 422.571C-95.9109 421.861 -94.4908 421.931 -93.2308 421.171C-91.6008 420.191 -90.7308 418.751 -89.4108 417.661C-88.7108 417.081 -88.7109 415.781 -88.0309 415.201C-87.7009 414.921 -87.1409 414.931 -86.5809 414.931C-86.0009 414.931 -85.4308 414.931 -85.1108 414.641C-81.0908 410.891 -79.8209 403.761 -75.6409 399.591C-75.9909 400.121 -74.2109 399.411 -73.0609 398.851C-72.3109 398.481 -71.8308 398.181 -72.4308 398.331C-71.2608 398.021 -69.5409 396.651 -67.5609 397.151C-66.1009 397.521 -65.6209 399.891 -63.7009 400.171C-61.7209 400.461 -60.1309 398.311 -58.5909 397.631C-55.9909 396.481 -52.9208 396.831 -49.8608 397.171C-46.2408 397.581 -42.6309 397.991 -39.8209 395.951C-37.5009 394.261 -37.6008 390.631 -35.9308 388.441C-35.1808 387.461 -32.9108 386.181 -32.4908 385.271C-31.2408 382.611 -32.2308 378.271 -32.7908 374.671C-33.4908 370.231 -33.9308 366.541 -33.4708 361.861C-33.0208 357.251 -30.0009 352.511 -32.5209 347.901C-34.8109 343.701 -35.2708 346.121 -38.4708 345.171C-39.1908 344.961 -39.5509 345.211 -39.8209 345.441C-40.2509 345.821 -40.4108 346.131 -41.3608 344.161C-41.8608 343.141 -39.3909 337.981 -39.0609 336.981C-36.7309 329.941 -30.5809 327.761 -24.7009 323.141C-18.9809 318.661 -20.6009 318.411 -13.2709 318.941C-11.9209 319.041 -10.7108 319.521 -9.30084 319.261C-6.71084 318.781 -6.21084 316.831 -4.24084 316.241C-0.770845 315.201 2.98913 316.511 5.54913 318.001C7.69913 319.251 12.4091 322.431 13.9691 323.841C18.3791 327.821 22.7292 332.771 28.0292 336.931C31.3892 339.561 35.2091 342.841 37.9391 345.631C40.1891 347.921 39.7391 350.491 43.7191 350.621C45.7191 350.681 46.6892 349.821 47.6992 348.951C48.4592 348.291 49.2492 347.631 50.5192 347.361C52.2992 346.991 52.9991 348.571 54.5991 348.181C56.8691 347.621 58.2891 345.051 60.4091 344.941C60.0091 344.961 62.4492 345.281 65.2092 345.531C68.2892 345.811 71.7492 346.001 72.0792 345.571C72.3892 347.611 77.4791 352.041 79.1191 353.611C80.1991 354.641 80.4392 354.991 80.3992 355.081C80.6192 355.181 80.9792 355.361 81.5692 355.691C84.0092 357.031 84.4691 357.001 86.1091 356.831C87.2191 356.711 94.5092 353.451 95.6392 351.551C97.4992 348.441 95.6391 344.101 97.3491 340.681C100.879 333.601 105.599 326.591 111.309 333.521C112.379 334.821 114.669 336.111 115.089 338.361C115.549 340.841 113.959 344.061 114.449 347.091C115.149 351.411 117.789 354.201 119.089 357.331C120.389 360.491 120.879 366.441 121.149 370.301C121.279 372.161 120.889 373.411 121.059 375.151C121.209 376.711 124.849 376.251 122.059 380.201C120.849 381.921 118.949 381.941 117.079 381.951C115.799 381.951 114.529 381.961 113.499 382.511C111.299 383.681 111.299 384.681 110.329 386.321C110.689 385.711 110.159 387.431 109.519 389.191C108.829 391.081 108.019 393.011 108.079 392.041C107.739 397.341 113.729 399.841 116.749 404.791C118.719 408.021 121.409 411.021 122.699 414.181C122.549 413.831 122.579 415.421 122.679 416.991C122.779 418.621 122.969 420.231 123.149 419.641C122.839 420.711 121.369 421.991 121.239 422.661C120.679 425.431 117.819 423.661 120.469 427.291C120.559 427.421 123.719 429.721 124.439 429.551C126.619 429.041 124.229 426.391 123.049 425.151C126.689 428.211 126.379 410.581 125.799 409.571C126.809 409.001 132.649 407.951 132.999 408.041C133.269 408.111 135.079 410.451 136.099 411.111C135.719 410.631 140.139 410.371 140.869 410.461C141.169 410.071 142.929 408.471 142.789 408.571C143.629 407.961 143.699 408.221 144.909 407.061C146.369 405.661 147.019 402.331 147.919 400.551C152.369 391.761 154.149 384.711 152.979 375.671C152.829 374.511 151.579 373.551 151.489 372.031C151.449 371.291 152.859 368.641 153.009 367.541C153.429 364.651 152.139 362.361 152.079 359.611C152.019 357.101 152.959 355.051 153.349 352.581C154.519 345.111 153.909 339.841 152.599 332.511C152.019 329.281 152.319 326.171 151.499 323.141C150.879 320.851 149.519 318.741 149.329 315.561C149.179 312.951 148.269 310.801 147.989 308.351C147.739 306.121 148.439 304.141 148.329 302.101C148.209 299.731 147.869 294.371 147.279 292.351C142.759 277.041 128.239 267.981 123.959 252.651C122.029 245.761 118.409 242.851 113.859 237.641C112.719 236.341 110.939 236.011 110.139 234.781C108.909 232.901 110.579 231.681 108.939 230.061C106.289 227.461 102.539 229.711 99.4191 227.471C99.0491 228.291 92.3491 227.811 90.4891 228.101C88.2891 228.441 88.0592 227.811 85.1992 229.201C83.9392 229.811 81.9992 231.121 80.8792 231.721C80.8792 231.721 90.1991 250.291 84.4391 243.841C82.2291 241.361 83.8192 235.681 81.9492 242.261C80.9092 245.891 82.1291 247.641 78.8491 250.431C78.7491 250.521 79.1091 243.471 78.9791 242.951C78.8591 242.491 78.1491 242.861 77.3491 243.251C76.5291 243.651 75.6091 244.081 75.1691 243.641C73.7591 242.251 75.7692 242.301 75.1492 240.431C73.6192 235.831 72.5291 244.141 72.4391 244.801C72.4091 245.061 75.8091 251.321 71.9291 250.221C68.2291 249.171 70.1192 241.491 64.8292 241.191C62.9692 241.091 61.1992 244.931 59.1992 245.811C54.2992 247.981 52.7891 245.771 53.4791 240.581C53.8791 237.531 53.7291 234.061 54.3491 231.181C55.7891 224.551 57.3991 219.611 56.0491 212.491C55.5491 209.871 54.7991 208.281 54.5391 205.751C54.0791 201.271 55.8691 197.141 55.6691 192.661C55.4291 187.501 53.0292 182.091 52.6392 176.761C52.4492 174.241 53.5291 172.001 53.4891 169.661C53.4391 166.301 52.1091 163.061 52.4091 159.671C52.9891 153.061 58.2392 148.781 62.0892 144.301C63.8592 142.241 64.4491 138.751 66.1791 137.141C66.6791 136.671 67.5491 136.651 68.4791 136.611C69.5391 136.561 70.6891 136.501 71.4991 135.731C72.2291 135.041 69.9791 133.431 70.9791 132.101C71.8091 130.991 72.7091 130.921 73.4791 130.881C73.9791 130.861 74.4292 130.841 74.7692 130.561C75.6392 130.721 76.2991 130.471 76.7491 129.801C77.7991 128.971 78.0292 127.751 77.4492 126.151C77.2892 125.011 77.6391 124.081 78.4991 123.361C79.8991 123.361 81.2292 123.091 82.5192 122.551C82.2692 122.311 80.3192 113.981 80.3892 113.691C81.2492 110.051 86.8092 109.351 89.0092 107.021C92.3392 103.491 90.2192 103.321 95.1992 102.931C95.9492 102.871 96.5792 102.461 97.0792 102.071C98.1992 101.211 98.6692 100.501 98.3292 104.271C98.1392 106.461 92.5291 109.201 97.5591 109.811C100.799 110.201 102.219 104.651 103.009 102.001C103.939 98.9108 104.619 95.5808 105.929 92.7008C106.929 90.5008 110.679 86.6508 109.839 83.5508C108.659 79.2408 106.609 84.6408 105.199 85.1508C100.879 86.7208 100.659 84.4808 98.4091 80.9308C94.0491 74.0508 94.7491 66.1708 90.9691 59.0408C89.3891 56.0608 87.3992 53.8108 86.7092 51.0508C86.1092 48.6608 87.3992 47.1208 87.8792 45.1408C88.5992 42.1608 89.6992 38.6208 91.5292 36.3908C92.6092 35.0808 93.5191 35.0008 94.1591 34.9808C95.2491 34.9508 95.5591 35.1108 94.5591 29.6008C97.8691 29.4408 102.709 41.5108 106.199 39.4808C105.229 38.0808 105.239 36.8908 106.249 35.9208C107.099 35.9208 109.019 39.2408 109.579 38.9608C112.409 37.5508 110.649 35.5608 109.899 32.9808C108.249 27.2208 106.349 20.1608 105.059 15.0608C104.879 14.3308 106.909 14.4508 106.019 13.0708C105.129 11.6908 99.8291 10.4408 98.0991 9.10081C95.3391 6.96081 93.3691 2.88082 94.9991 -0.789185C96.2491 -3.61918 98.9592 -5.51919 100.279 -3.10919C100.689 -2.34919 99.0391 -0.589194 99.5391 0.810806C99.9891 2.07081 105.549 6.57081 106.569 7.38081C110.329 10.3708 114.069 10.8408 116.039 15.4708C117.869 19.7708 117.599 25.5708 120.149 30.4108C120.669 31.4008 122.659 31.7908 122.929 32.5008C123.779 34.7008 124.689 38.3408 125.209 40.5508C126.299 45.1608 127.319 47.9408 129.629 52.1708C132.249 56.9808 134.049 62.0308 135.819 67.6408C136.709 70.4808 137.029 72.0808 137.119 74.9908C137.119 75.3408 135.539 75.4208 135.539 76.0808C135.539 76.0808 136.209 78.3408 136.259 78.1208C136.299 77.9408 136.119 79.3808 135.899 80.8408C135.669 82.3708 135.399 83.9008 135.319 83.5708C135.849 85.6308 136.459 84.6908 137.689 85.9808C139.029 87.3908 141.259 87.1508 142.579 88.9908C143.189 89.8308 143.519 93.6108 143.959 94.8908C146.649 102.641 156.689 113.411 163.819 118.021C168.259 120.891 173.539 121.561 177.969 124.051C182.279 126.481 186.559 129.471 190.779 131.751C195.459 134.281 201.239 135.811 206.069 138.591C209.079 140.321 210.569 142.471 213.789 143.881C214.239 144.081 220.529 146.471 220.599 146.441C219.419 142.841 221.089 140.601 220.619 137.201C220.589 136.981 220.549 136.771 220.499 136.571L220.449 136.371C219.849 133.951 218.259 132.031 217.639 129.601C216.939 126.881 213.679 120.941 211.869 118.801C210.299 116.941 203.779 116.501 203.499 115.601C203.559 114.621 204.069 114.011 205.029 113.771C204.939 111.731 204.749 109.701 204.459 107.681C204.649 107.551 206.749 102.381 206.639 103.421C206.709 102.751 206.819 102.421 206.929 102.251C206.629 102.181 206.049 101.851 205.019 100.841C203.949 99.8008 202.409 98.7908 201.189 97.9208C195.899 94.1608 191.709 90.8308 193.899 83.0708C194.869 79.6608 199.699 76.3908 195.039 72.4108C193.339 70.9608 191.019 71.8008 189.149 71.1008C184.939 69.5208 182.019 66.9908 179.589 63.0408C178.309 60.9608 178.129 59.7408 177.139 57.7908C176.549 56.6208 173.079 57.8408 174.169 55.0708C175.269 52.2808 176.309 53.8208 177.419 55.3408C178.439 56.7308 179.519 58.1108 180.769 56.1208C183.689 51.4708 174.559 48.3508 172.309 48.5308C171.679 48.5808 171.489 48.9208 171.259 49.2708C170.959 49.7208 170.599 50.1908 169.129 50.0508C170.009 50.1308 168.739 49.3808 167.329 48.6608C165.989 47.9808 164.529 47.3308 164.649 47.4508C162.219 45.0108 158.649 36.5308 154.809 43.9708C154.199 45.1508 158.599 49.4208 153.339 48.6308C149.149 48.0108 144.739 38.0508 142.669 35.1108C138.889 29.7608 128.419 23.2908 132.079 16.1908C133.799 16.6808 134.909 16.2808 135.429 14.9908C135.989 14.3708 136.019 13.6508 135.499 12.8408C135.359 13.6408 134.599 11.8608 133.929 10.0608C133.349 8.51081 132.839 6.95081 132.849 7.00081C130.709 -1.30919 132.939 1.3008 138.599 6.2608C141.569 6.6908 135.989 -1.41919 135.779 -2.13919C134.829 -5.34919 134.839 -8.19919 135.789 -11.6592C136.219 -13.2092 137.569 -18.7792 138.309 -19.5392C139.229 -20.4792 141.009 -20.6292 142.769 -20.7692C144.919 -20.9392 147.049 -21.1092 147.559 -22.7192C148.309 -25.0692 143.809 -26.6792 142.409 -29.0592C140.049 -33.0692 139.859 -38.4292 137.269 -42.4092C134.599 -46.5192 132.159 -49.6192 130.529 -54.0392C128.319 -60.0592 127.479 -66.9392 125.239 -73.2992C124.209 -76.2192 120.669 -80.3392 120.719 -83.0592C120.739 -84.1092 124.329 -89.1092 124.979 -90.1092C126.119 -91.8592 128.349 -93.4492 127.869 -95.2992C127.819 -95.5092 122.039 -99.7292 121.599 -99.7892C118.449 -100.219 119.279 -97.9292 116.959 -97.2792C117.329 -97.3792 112.069 -102.629 113.849 -96.8692C113.419 -96.9992 107.219 -98.0392 108.789 -95.0992C107.969 -95.3192 100.899 -100.769 101.219 -96.1792C98.4791 -100.469 97.2491 -94.1692 96.4791 -93.7592C96.0391 -93.5292 95.0392 -93.4792 94.1392 -93.4592C93.3192 -93.4392 92.5892 -93.4392 92.4592 -93.3392C91.4192 -92.5992 90.3891 -91.7592 89.7491 -91.1692C90.1091 -91.4992 89.9791 -90.2492 89.6191 -88.9392C89.0391 -86.8092 87.8692 -84.5392 87.2092 -88.7692C86.6792 -92.1592 92.8192 -95.0592 93.0892 -98.6992C93.4292 -103.429 85.5392 -113.019 81.3792 -114.309C77.1992 -115.609 74.5691 -113.279 70.6791 -117.039C70.0991 -117.599 68.9391 -117.119 68.5491 -117.859C67.6791 -119.509 70.6292 -120.179 68.4592 -122.199C70.2992 -123.179 71.9792 -119.769 73.7592 -119.539C75.2792 -119.349 77.6391 -120.179 78.6591 -120.569C79.2391 -120.789 79.5492 -120.609 79.7792 -120.409C80.2092 -120.039 80.3692 -119.609 81.5292 -121.559C83.3392 -124.589 79.3191 -126.319 79.5591 -128.289C79.9591 -131.619 84.2492 -134.139 86.9592 -135.169C87.7292 -135.459 88.4992 -135.429 89.2692 -135.409C90.5092 -135.369 91.7591 -135.329 93.0491 -136.619C94.6291 -138.209 93.5291 -140.239 94.6691 -142.009C96.4491 -144.799 101.019 -145.989 102.039 -149.139C103.099 -152.409 99.6791 -154.919 97.3591 -155.309C96.7091 -155.419 96.0991 -155.219 95.4391 -154.999C94.5191 -154.699 93.4891 -154.379 92.1091 -154.849C91.8691 -156.549 90.9592 -157.679 89.3792 -158.239C88.6892 -158.069 87.9891 -157.909 87.2991 -157.739C85.9191 -158.179 84.6392 -157.379 83.2592 -156.549C81.9692 -155.769 80.5991 -154.979 78.9791 -155.179C78.6291 -157.139 82.0291 -159.169 82.5491 -160.919C82.8791 -162.019 82.5492 -163.579 82.8792 -165.109C81.5592 -166.349 78.8692 -165.239 78.7792 -163.429C77.0492 -163.619 82.4591 -173.609 75.5391 -168.719C72.9591 -171.999 72.6592 -173.299 72.3292 -173.219C72.0392 -173.149 71.7191 -172.019 69.7891 -170.249" fill="white"/>
</mask>
<g mask="url(#mask0_590_1077)">
<path d="M143.639 -189.958L-860.998 46.418L-723.882 629.185L280.755 392.809L143.639 -189.958Z" fill="url(#paint1_linear_590_1077)"/>
</g>
</g>
<g opacity="0.8">
<mask id="path-4-inside-1_590_1077" fill="white">
<path d="M0 0H405V936H0V0Z"/>
</mask>
<path d="M0 0H405V936H0V0Z" fill="white"/>
<path d="M0 936H24V0H0H-24V936H0Z" fill="#09152A" mask="url(#path-4-inside-1_590_1077)"/>
</g>
</g>
<defs>
<linearGradient id="paint0_linear_590_1077" x1="-794.981" y1="143.201" x2="220.679" y2="143.201" gradientUnits="userSpaceOnUse">
<stop offset="0.35" stop-color="#004899"/>
<stop offset="1" stop-color="#102D69"/>
</linearGradient>
<linearGradient id="paint1_linear_590_1077" x1="-860.994" y1="219.593" x2="280.766" y2="219.593" gradientUnits="userSpaceOnUse">
<stop offset="0.35" stop-color="#004899"/>
<stop offset="1" stop-color="#102D69"/>
</linearGradient>
<clipPath id="clip0_590_1077">
<rect width="405" height="460" fill="white"/>
</clipPath>
<clipPath id="clip1_590_1077">
<rect width="1016" height="460" fill="white" transform="translate(-795)"/>
</clipPath>
</defs>
</svg>
