<svg width="80" height="80" viewBox="0 0 80 80" fill="none" xmlns="http://www.w3.org/2000/svg">
<path d="M32.1071 47.0713C32.107 44.2705 29.8366 42 27.0358 42C24.235 42.0001 21.9646 44.2705 21.9645 47.0713C21.9645 49.8721 24.235 52.1425 27.0358 52.1426V54.1426C23.1304 54.1425 19.9645 50.9767 19.9645 47.0713C19.9646 43.166 23.1304 40.0001 27.0358 40C30.9412 40 34.107 43.1659 34.1071 47.0713C34.1071 50.9767 30.9412 54.1426 27.0358 54.1426V52.1426C29.8366 52.1426 32.1071 49.8722 32.1071 47.0713Z" fill="#004B98"/>
<path d="M59.2137 32.9287C59.2137 35.7295 56.9433 38 54.1425 38C51.3417 37.9999 49.0712 35.7295 49.0712 32.9287C49.0712 30.1279 51.3416 27.8575 54.1425 27.8574V25.8574C50.2371 25.8575 47.0712 29.0233 47.0712 32.9287C47.0712 36.834 50.2371 39.9999 54.1425 40C58.0479 40 61.2137 36.8341 61.2137 32.9287C61.2137 29.0233 58.0479 25.8574 54.1425 25.8574V27.8574C56.9433 27.8574 59.2137 30.1278 59.2137 32.9287Z" fill="#004B98"/>
<path d="M28.0355 52.9642L28.0355 64.7504L26.0355 64.7504L26.0355 52.9642L28.0355 52.9642Z" fill="#004B98"/>
<path d="M53.1433 27.0358L53.1433 15.2496L55.1433 15.2496L55.1433 27.0358L53.1433 27.0358Z" fill="#004B98"/>
<path d="M28.0355 15.25L28.0355 41.1787L26.0355 41.1787L26.0355 15.25L28.0355 15.25Z" fill="#004B98"/>
<path d="M53.1433 64.75L53.1433 37.6426L55.1433 37.6426L55.1433 64.75L53.1433 64.75Z" fill="#004B98"/>
<path d="M73 7V73H7V7H73ZM9 71H71V9H9V71Z" fill="#004B98"/>
</svg>
