<svg width="80" height="80" viewBox="0 0 80 80" fill="none" xmlns="http://www.w3.org/2000/svg">
<path d="M61.733 30.4697C61.733 29.179 61.2208 27.941 60.3082 27.0283C59.3955 26.1157 58.1574 25.6036 56.8668 25.6035C55.5761 25.6035 54.338 26.1157 53.4254 27.0283C53.4068 27.0469 53.3889 27.0662 53.3707 27.085C53.3472 27.1138 53.3227 27.1423 53.2955 27.1689C53.2885 27.1757 53.2801 27.181 53.273 27.1875C52.4557 28.0823 51.9996 29.2526 51.9996 30.4697C51.9996 31.7605 52.5127 32.9984 53.4254 33.9111C54.338 34.8238 55.5761 35.3369 56.8668 35.3369C58.1574 35.3369 59.3955 34.8238 60.3082 33.9111C61.2208 32.9985 61.733 31.7604 61.733 30.4697ZM8.0025 39.2695C8.0025 40.9492 8.67023 42.5603 9.85797 43.748C10.7053 44.5953 11.7681 45.1762 12.9175 45.4404C12.999 45.4474 13.08 45.4639 13.1588 45.4912C13.5441 45.5641 13.9377 45.6035 14.3355 45.6035C16.0152 45.6035 17.6263 44.9358 18.814 43.748C20.0018 42.5603 20.6695 40.9492 20.6695 39.2695C20.6694 37.5899 20.0017 35.9787 18.814 34.791C17.6263 33.6035 16.0151 32.9365 14.3355 32.9365C13.1106 32.9366 11.923 33.2925 10.9088 33.9453L9.19586 35.5713C8.42553 36.6419 8.00256 37.9336 8.0025 39.2695ZM32.397 14.333C32.397 14.0562 32.4109 13.7809 32.438 13.5078L14.0718 30.9424C14.1596 30.9396 14.2474 30.9365 14.3355 30.9365C16.5455 30.9365 18.6653 31.8143 20.2281 33.377C20.8135 33.9623 21.3021 34.6266 21.6851 35.3438L36.1255 21.2783C35.6657 20.9734 35.2334 20.6216 34.8375 20.2256C33.2748 18.6628 32.397 16.543 32.397 14.333ZM34.397 14.333C34.397 16.0126 35.0639 17.6238 36.2515 18.8115C36.8101 19.3701 37.4635 19.8119 38.1724 20.125C38.1839 20.1297 38.1953 20.1345 38.2066 20.1396C38.9957 20.4826 39.853 20.667 40.73 20.667C42.3344 20.667 43.8745 20.0563 45.0445 18.9668C45.0758 18.9245 45.1102 18.8837 45.149 18.8457C45.1873 18.8082 45.2287 18.7752 45.2711 18.7451C46.4187 17.564 47.064 15.9823 47.064 14.333C47.0639 12.6535 46.3961 11.0431 45.2086 9.85547C44.0208 8.66773 42.4098 8 40.73 8C39.0504 8.00004 37.4392 8.66776 36.2515 9.85547C36.1846 9.92238 36.1198 9.99101 36.0562 10.0605C36.0391 10.0815 36.0206 10.1013 36.0015 10.1211C34.9711 11.2777 34.3971 12.7756 34.397 14.333ZM49.064 14.333C49.064 16.2366 48.4102 18.0716 47.231 19.543L52.6343 25.0645C53.8363 24.1233 55.3244 23.6035 56.8668 23.6035C58.6878 23.6036 60.4345 24.3266 61.7222 25.6143C63.0099 26.902 63.733 28.6486 63.733 30.4697C63.733 32.2908 63.0099 34.0375 61.7222 35.3252C60.4345 36.6129 58.6878 37.3369 56.8668 37.3369C55.0456 37.3369 53.299 36.6129 52.0113 35.3252C50.7235 34.0374 49.9996 32.2909 49.9996 30.4697C49.9996 29.0438 50.4448 27.6647 51.2554 26.5146L45.8013 20.9414C44.3539 22.0522 42.5746 22.667 40.73 22.667C39.8026 22.667 38.8919 22.5098 38.0308 22.2148L22.4507 37.3896C22.5011 37.6071 22.5458 37.8262 22.5787 38.0479L37.3189 48.9766L37.398 49.042C37.7724 49.3835 37.8352 49.9601 37.5269 50.376C37.198 50.8196 36.5711 50.9119 36.1275 50.583L22.5718 40.5322C22.3047 42.275 21.4901 43.9001 20.2281 45.1621C19.0506 46.3396 17.5571 47.127 15.9468 47.4443L32.5172 59.3584L32.5972 59.4219C32.9766 59.7578 33.0469 60.3336 32.7447 60.7539C32.4222 61.2021 31.7975 61.3038 31.3492 60.9814L12.4312 47.3799C10.9335 47.0281 9.54843 46.2676 8.44293 45.1621C6.88032 43.5993 6.0025 41.4795 6.0025 39.2695C6.00257 37.0595 6.88022 34.9397 8.44293 33.377C8.8188 33.0011 9.22788 32.666 9.66168 32.3721L34.5386 8.75488C34.6352 8.64775 34.735 8.5429 34.8375 8.44043C36.4002 6.87772 38.52 6.00004 40.73 6C42.9401 6 45.0598 6.87778 46.6226 8.44043C48.1853 10.0032 49.0639 12.123 49.064 14.333Z" fill="#004B98"/>
<path d="M48.5328 57.6001C48.5327 55.5314 47.7114 53.5472 46.2486 52.0845C44.7858 50.6218 42.8016 49.8003 40.733 49.8003C38.6643 49.8003 36.6801 50.6217 35.2173 52.0845C33.7546 53.5472 32.9332 55.5315 32.9332 57.6001V72.0034H48.5328V57.6001ZM56.7134 35.3872L56.5298 36.3706C56.3194 37.497 56.3598 38.6561 56.648 39.7651C56.9362 40.8741 57.4647 41.9062 58.1968 42.7876C58.9291 43.669 59.8469 44.3781 60.8843 44.8647C61.9218 45.3514 63.0538 45.6034 64.1998 45.603H65.1998L65.2007 47.603H64.2007C62.761 47.6035 61.3382 47.2867 60.0347 46.6753C58.7314 46.0639 57.5787 45.1723 56.6588 44.0649C55.7389 42.9576 55.0736 41.6614 54.7115 40.2681C54.3494 38.8747 54.2996 37.4186 54.564 36.0034L54.7476 35.02L56.7134 35.3872ZM62.9361 28.0796C64.1817 27.9176 65.4487 27.9959 66.6675 28.313C68.0607 28.6755 69.3573 29.341 70.4644 30.2612C71.5715 31.1815 72.4627 32.3346 73.0738 33.6382C73.6847 34.9416 74.0004 36.3637 73.9996 37.8032V38.8032L71.9996 38.8022V37.8022C72.0003 36.6564 71.7486 35.5243 71.2623 34.4868C70.7759 33.4494 70.0672 32.5317 69.1861 31.7993C68.305 31.0669 67.2734 30.5371 66.1646 30.2485C65.0557 29.96 63.8965 29.9194 62.7701 30.1294L61.7867 30.313L61.4205 28.3472L62.4029 28.1636L62.9361 28.0796ZM50.5328 72.0034H73.2672V74.0034H6.73297V72.0034H30.9332V57.6001C30.9332 55.001 31.9655 52.5082 33.8033 50.6704C35.6411 48.8326 38.1339 47.8003 40.733 47.8003C43.332 47.8003 45.8248 48.8326 47.6627 50.6704C49.5005 52.5082 50.5327 55.001 50.5328 57.6001V72.0034Z" fill="#004B98"/>
</svg>
