<svg width="80" height="80" viewBox="0 0 80 80" fill="none" xmlns="http://www.w3.org/2000/svg">
<path d="M31.7334 16.303L34.3438 43.6985L69.5576 34.5803C70.2003 34.4147 70.8734 34.3977 71.5234 34.5315C72.1735 34.6654 72.7846 34.9467 73.3096 35.3528C73.8345 35.7589 74.2598 36.2797 74.5527 36.8752C74.8456 37.4708 74.9988 38.1256 75 38.7893V74.97H5L5.00293 54.4133C5.00224 53.522 5.29769 52.6557 5.84277 51.9504C6.38809 51.2449 7.1525 50.7407 8.01562 50.5168L12.4111 49.3782L15.5596 16.303H31.7334ZM71.1201 36.4905C70.7687 36.4181 70.4051 36.4263 70.0576 36.5159L70.0586 36.5168L8.51758 52.4524C8.08363 52.5649 7.69897 52.8184 7.4248 53.1731C7.15063 53.5278 7.00248 53.964 7.00293 54.4123L7 72.97H73V38.7932L72.9961 38.6584C72.9777 38.346 72.8973 38.0397 72.7588 37.7581C72.6004 37.436 72.3698 37.1544 72.0859 36.9348C71.802 36.7152 71.4716 36.5629 71.1201 36.4905ZM14.4707 48.845L32.3838 44.2063L29.915 18.303H17.3789L14.4707 48.845ZM27.9072 5.38989C31.1681 5.32776 34.4014 5.99685 37.3701 7.34692C48.3992 12.0561 56.0765 11.465 60.9395 9.79809C63.3827 8.96058 65.1475 7.84098 66.293 6.94165C66.8658 6.4919 67.2838 6.09676 67.5537 5.82055C67.6883 5.6828 67.7861 5.57476 67.8477 5.50415C67.8785 5.46881 67.9003 5.44246 67.9131 5.427L67.9258 5.41137C67.9303 5.41567 67.9891 5.46385 68.7109 6.03051C69.4945 6.64564 69.4976 6.64895 69.4971 6.64965L69.4951 6.65063L69.4834 6.66626C69.4762 6.67514 69.4669 6.68711 69.4551 6.70141C69.4314 6.7301 69.3981 6.76968 69.3555 6.8186C69.2702 6.91642 69.146 7.05257 68.9834 7.21899C68.6581 7.55185 68.1752 8.00622 67.5273 8.51489C66.2309 9.53273 64.2713 10.7699 61.5879 11.6897C56.1972 13.5375 48.0074 14.0639 36.585 9.18676L36.5742 9.18188L36.5625 9.177C33.8599 7.94425 30.9152 7.3333 27.9453 7.38989L27.9072 5.38989Z" fill="#004B98"/>
<path d="M62.4216 58.3506H49.3113V72.9727H62.4216V58.3506ZM23.6218 60.8809V62.8809H17.0886V60.8809H23.6218ZM38.7332 60.8809V62.8809H32.2V60.8809H38.7332ZM64.4216 74.9727H47.3113V56.3506H64.4216V74.9727Z" fill="#004B98"/>
</svg>
