<svg width="80" height="80" viewBox="0 0 80 80" fill="none" xmlns="http://www.w3.org/2000/svg">
<path d="M57.6807 53.4998L55.3135 55.866L61.8399 62.3923L61.9151 62.616L64.919 71.5857L55.9493 68.5818L55.7256 68.5066L49.1993 61.9802L46.8331 64.3474L28.919 46.4333L39.7667 35.5857L57.6807 53.4998ZM74.0001 55.8669C74.0001 48.8593 69.9613 42.8064 64.0704 40.0027L62.7803 39.3894L63.7989 38.3875C65.6829 36.5338 66.833 33.9871 66.8331 31.1667C66.8331 25.8899 62.812 21.5512 57.6671 21.0486V24.073C61.0941 24.5671 63.8331 27.5531 63.8331 31.1667C63.833 34.7803 61.0941 37.7654 57.6671 38.2595V41.3679C65.2239 41.8864 71.0001 48.2387 71.0001 55.9001V68.9998H74.0001V55.8669ZM31.7471 46.4333L46.8331 61.5193L49.2003 59.1521L56.8067 66.7595L61.7471 68.4138L60.0928 63.4734L52.4854 55.8669L54.8526 53.4998L39.7667 38.4138L31.7471 46.4333ZM27.2139 23.033H36.6495L36.9424 23.3289L42.3448 28.7693L22.1026 49.0115L16.6622 43.6091L16.3663 43.3162V33.8806L5.3526 22.8669L16.2003 12.0193L27.2139 23.033ZM8.18073 22.8669L18.3663 33.0525V42.4822L22.0967 46.1882L39.5215 28.7634L35.8165 25.033H26.3858L16.2003 14.8474L8.18073 22.8669ZM68.8331 31.1667C68.8331 34.0627 67.8152 36.7169 66.1094 38.8103C72.0369 42.1546 76.0001 48.5501 76.0001 55.8669V70.9998H69.0001V55.9001C69.0001 48.9631 63.5587 43.334 56.6671 43.3337H55.6671V36.3337H56.6671C59.4549 36.3335 61.833 34.0073 61.8331 31.1667C61.8331 28.3262 59.455 26 56.6671 25.9998H55.6671V18.9998H56.6671C63.3858 19 68.8331 24.4479 68.8331 31.1667Z" fill="#004B98"/>
</svg>
