<svg width="80" height="80" viewBox="0 0 80 80" fill="none" xmlns="http://www.w3.org/2000/svg">
<path fill-rule="evenodd" clip-rule="evenodd" d="M69.5654 6.49995C70.6089 6.50001 73.5 6.5 73.5 6.5C73.5 6.5 73.5 9.39103 73.5 10.4345V69.5654C73.5 70.6089 73.5 73.5 73.5 73.5C73.5 73.5 70.6089 73.4999 69.5654 73.5H10.4346C9.39108 73.4999 6.50005 73.5 6.50005 73.5C6.50005 73.5 6.50006 70.6089 6.5 69.5654V10.4345C6.50006 9.39103 6.50005 6.49994 6.50005 6.49994C6.50005 6.49994 9.39108 6.50001 10.4346 6.49995H69.5654ZM10.4346 8.45601C9.90998 8.45606 8.45605 8.45601 8.45605 8.45601C8.45605 8.45601 8.45611 9.90993 8.45605 10.4345V69.5654C8.45611 70.09 8.45605 71.5439 8.45605 71.5439C8.45605 71.5439 9.90998 71.5439 10.4346 71.5439H47.8916V52.2324L26.1953 30.5371V47.9472L26.5957 48.0292C28.2689 48.3708 29.7554 49.3217 30.7676 50.6972C31.7796 52.0727 32.2458 53.7746 32.0742 55.4736C31.9026 57.1726 31.1056 58.7473 29.8389 59.8925C28.5722 61.0377 26.9254 61.6727 25.2178 61.6728C23.51 61.6728 21.8625 61.0378 20.5957 59.8925C19.3291 58.7473 18.533 57.1726 18.3613 55.4736C18.1897 53.7746 18.655 52.0727 19.667 50.6972C20.6791 49.3218 22.1657 48.3708 23.8389 48.0292L24.2393 47.9472V8.45601H10.4346ZM26.1953 8.45601V27.7675L49.8476 51.4511V71.5439H69.5654C70.09 71.5439 71.544 71.5439 71.544 71.5439C71.544 71.5439 71.5439 70.09 71.544 69.5654V10.4345C71.5439 9.90993 71.5 8.5 71.5 8.5C71.5 8.5 70.09 8.45606 69.5654 8.45601H43.9346V18.8945L50.3643 25.3232L50.6523 25.6123L50.9932 25.3867C52.418 24.446 54.1413 24.0677 55.8291 24.3251C57.5169 24.5826 59.0493 25.4575 60.1289 26.7802C61.2085 28.1031 61.7589 29.78 61.6728 31.4853C61.5867 33.1906 60.8704 34.8033 59.6631 36.0107C58.4557 37.218 56.843 37.9343 55.1377 38.0205C53.4324 38.1066 51.7555 37.5561 50.4326 36.4765C49.1099 35.3969 48.235 33.8645 47.9775 32.1767C47.7201 30.4889 48.0983 28.7656 49.0391 27.3408L49.2637 26.9999L41.9785 19.6796V8.45601H26.1953ZM25.2178 49.8476C23.909 49.8476 22.653 50.3675 21.7275 51.2929C20.8022 52.2183 20.2823 53.4736 20.2822 54.7822C20.2822 55.7582 20.572 56.7128 21.1143 57.5244C21.6565 58.3358 22.4274 58.9683 23.3291 59.3417C24.2306 59.7151 25.2226 59.8133 26.1797 59.623C27.1369 59.4326 28.0169 58.9625 28.707 58.2724C29.3972 57.5823 29.8672 56.7023 30.0576 55.7451C30.2479 54.788 30.1497 53.796 29.7764 52.8945C29.4029 51.9928 28.7705 51.2219 27.959 50.6796C27.1476 50.1375 26.1936 49.8477 25.2178 49.8476ZM54.7822 26.1953C53.4736 26.1954 52.2183 26.7153 51.293 27.6406C50.3675 28.566 49.8476 29.822 49.8476 31.1308C49.8477 32.1067 50.1375 33.0606 50.6797 33.872C51.2219 34.6835 51.9928 35.3159 52.8945 35.6894C53.7961 36.0628 54.788 36.161 55.7451 35.9707C56.7024 35.7802 57.5823 35.3102 58.2725 34.6201C58.9625 33.9299 59.4326 33.0499 59.623 32.0927C59.8133 31.1357 59.7152 30.1437 59.3418 29.2421C58.9683 28.3405 58.3359 27.5695 57.5244 27.0273C56.7129 26.4851 55.7582 26.1953 54.7822 26.1953Z" fill="#004B98"/>
</svg>
