<svg width="80" height="80" viewBox="0 0 80 80" fill="none" xmlns="http://www.w3.org/2000/svg">
<path d="M33.617 9.66365C39.5194 8.42177 45.6558 8.929 51.2743 11.1226C56.8929 13.3163 61.7494 17.1015 65.2489 22.0142C68.639 26.7735 70.6125 32.3905 70.9481 38.2164L70.9754 38.7808L71.0155 39.7799L69.0165 39.859L68.9774 38.859C68.7555 33.2209 66.8936 27.7701 63.62 23.1744C60.3463 18.5786 55.8028 15.0381 50.5467 12.9859C45.2907 10.9338 39.5498 10.4589 34.0282 11.6207C28.5067 12.7825 23.4442 15.5308 19.4608 19.5269C15.4775 23.5232 12.7464 28.5945 11.6024 34.1197C10.4583 39.645 10.9513 45.3839 13.0204 50.6334C15.0894 55.8828 18.6446 60.4146 23.2508 63.6734C27.7132 66.8304 32.9737 68.6601 38.4247 68.9566L38.953 68.981L39.952 69.0172L39.8797 71.0152L38.8807 70.9791L38.3163 70.9537C32.4893 70.6368 26.8657 68.681 22.0956 65.3062C17.1717 61.8226 13.3708 56.9782 11.159 51.3668C8.9474 45.7554 8.42056 39.6206 9.64342 33.7144C10.8664 27.8081 13.7866 22.3867 18.0448 18.1148C22.3029 13.843 27.7147 10.9056 33.617 9.66365Z" fill="#004B98"/>
<path d="M75.4062 45.8517L55.0791 70.9933L43.5859 59.5001L45 58.0861L54.9209 68.007L73.8516 44.5939L75.4062 45.8517ZM39 19.5001H41V39.5861L48.9141 47.5001L47.5 48.9142L39 40.4142V19.5001Z" fill="#004B98"/>
</svg>
